STARTFONT 2.3
FONT -FontForge-Bungee Shade-Book-R-Normal--11-110-72-72-P-93-ISO10646-1
SIZE 11 72 72  4
FONTBOUNDINGBOX 29 28 -7 -10
COMMENT "Generated by fontforge, http://fontforge.sourceforge.net"
COMMENT "Copyright 2008 The Bungee Project Authors (david@djr.com)"
STARTPROPERTIES 40
FOUNDRY "FontForge"
FAMILY_NAME "Bungee Shade"
WEIGHT_NAME "Book"
SLANT "R"
SETWIDTH_NAME "Normal"
ADD_STYLE_NAME ""
PIXEL_SIZE 11
POINT_SIZE 110
RESOLUTION_X 72
RESOLUTION_Y 72
SPACING "P"
AVERAGE_WIDTH 93
CHARSET_REGISTRY "ISO10646"
CHARSET_ENCODING "1"
FONTNAME_REGISTRY ""
CHARSET_COLLECTIONS "ISO8859-2 ISO8859-9 ISO8859-4 ISO10646-1"
BITS_PER_PIXEL 4
FONT_NAME "BungeeShade-Regular"
FACE_NAME "Bungee Shade"
COPYRIGHT "Copyright 2008 The Bungee Project Authors (david@djr.com)"
FONT_VERSION "1.000;PS 1.0;hotconv 1.0.72;makeotf.lib2.5.5900"
FONT_ASCENT 9
FONT_DESCENT 2
UNDERLINE_POSITION 0
UNDERLINE_THICKNESS 0
X_HEIGHT 8
CAP_HEIGHT 8
RAW_ASCENT 860
RAW_DESCENT 140
NORM_SPACE 4
RELATIVE_WEIGHT 40
RELATIVE_SETWIDTH 50
SUPERSCRIPT_X 0
SUPERSCRIPT_Y 3
SUPERSCRIPT_SIZE 6
SUBSCRIPT_X 0
SUBSCRIPT_Y 0
SUBSCRIPT_SIZE 6
AVG_LOWERCASE_WIDTH 88
AVG_UPPERCASE_WIDTH 90
ENDPROPERTIES
CHARS 1065
STARTCHAR space
ENCODING 32
SWIDTH 325 0
DWIDTH 4 0
BBX 1 1 0 0
BITMAP
00
ENDCHAR
STARTCHAR exclam
ENCODING 33
SWIDTH 524 0
DWIDTH 6 0
BBX 6 10 0 -1
BITMAP
054221
4F3202
5F4201
4F4211
4F5110
3F7230
2FA840
2E3102
5F9661
4FFD30
ENDCHAR
STARTCHAR quotedbl
ENCODING 34
SWIDTH 746 0
DWIDTH 8 0
BBX 8 7 0 2
BITMAP
07226423
8C028322
BC029322
BD019412
AE22B623
AFFCFFE2
25414520
ENDCHAR
STARTCHAR numbersign
ENCODING 35
SWIDTH 850 0
DWIDTH 9 0
BBX 10 10 0 -1
BITMAP
0035236220
0292173121
3D13322402
7F92291171
5C72282130
5A13223120
DB02002020
DF61A91520
5FA6DB6200
2FE4EF6000
ENDCHAR
STARTCHAR dollar
ENCODING 36
SWIDTH 750 0
DWIDTH 8 0
BBX 9 14 0 -3
BITMAP
0002221000
004A002000
0271202200
2D02321200
9C027ED300
BD02001200
AF51221100
7FFDB42010
0A21102110
7C02221200
BE32106300
AFFC223000
00CFF60000
0035300000
ENDCHAR
STARTCHAR percent
ENCODING 37
SWIDTH 1131 0
DWIDTH 12 0
BBX 13 10 0 -1
BITMAP
02344582300000
4A2926A2200000
BB2A2572200000
CB202631322200
CE645B21522120
7FFFCB25539220
0342B828539220
0000E40C622120
0003F97FE87500
0005FD2BFE8000
ENDCHAR
STARTCHAR ampersand
ENCODING 38
SWIDTH 866 0
DWIDTH 10 0
BBX 10 10 0 -1
BITMAP
0022222200
0671221200
1F722FD200
2F91033221
1C01037112
9A10CF7213
DB20120220
CE12222110
AFC7666510
2CFFFFA100
ENDCHAR
STARTCHAR quotesingle
ENCODING 39
SWIDTH 456 0
DWIDTH 5 0
BBX 5 7 0 2
BITMAP
072230
7E0220
9E0220
9E0120
9F3220
8FFB10
254000
ENDCHAR
STARTCHAR parenleft
ENCODING 40
SWIDTH 529 0
DWIDTH 6 0
BBX 6 14 0 -3
BITMAP
001221
023002
2C0312
8C0262
BC0220
BC0220
BC0220
BC0220
BC0220
BD0221
BF1212
9FC422
3EFFB1
014400
ENDCHAR
STARTCHAR parenright
ENCODING 41
SWIDTH 529 0
DWIDTH 6 0
BBX 6 14 0 -3
BITMAP
022210
4B0011
BC1212
BFD022
4CE022
09E022
09E022
09E022
09D022
080022
8C0201
BD2330
BFF800
342000
ENDCHAR
STARTCHAR asterisk
ENCODING 42
SWIDTH 818 0
DWIDTH 9 0
BBX 9 9 0 0
BITMAP
0004523000
004E512210
0931222020
3F21242130
7FF9223B10
26B0251200
07F67E3400
0AFDDF7000
0072330000
ENDCHAR
STARTCHAR plus
ENCODING 43
SWIDTH 834 0
DWIDTH 9 0
BBX 9 10 0 -1
BITMAP
0000321000
0008302000
003F322000
0148222220
1C02232120
7F32021230
7FFF329C10
158F525100
005FFB1000
0014400000
ENDCHAR
STARTCHAR comma
ENCODING 44
SWIDTH 484 0
DWIDTH 5 0
BBX 5 7 0 -3
BITMAP
022220
2C0020
AD1230
AF9430
7F1210
7FC800
386000
ENDCHAR
STARTCHAR hyphen
ENCODING 45
SWIDTH 520 0
DWIDTH 6 0
BBX 6 5 0 1
BITMAP
022221
5A1212
CC2223
CFFFB1
355400
ENDCHAR
STARTCHAR period
ENCODING 46
SWIDTH 484 0
DWIDTH 5 0
BBX 5 5 0 -1
BITMAP
022220
4C0220
AD0020
AE6660
9FFC10
ENDCHAR
STARTCHAR slash
ENCODING 47
SWIDTH 487 0
DWIDTH 5 0
BBX 6 14 0 -3
BITMAP
002221
02B002
0AA102
0C8211
0E7220
1F5220
3F3220
5F1220
6E0220
8C1120
AA1020
CA2210
EFE400
452000
ENDCHAR
STARTCHAR zero
ENCODING 48
SWIDTH 827 0
DWIDTH 9 0
BBX 9 10 0 -1
BITMAP
0023333210
0722000220
5E028E1220
9E029F2220
9E027F2220
9E027F2220
9E02250220
9F41222020
5FFA778600
07DFFC6000
ENDCHAR
STARTCHAR one
ENCODING 49
SWIDTH 701 0
DWIDTH 8 0
BBX 8 10 0 -1
BITMAP
05222210
5F022020
8F832020
7FF62020
02F62020
02F62020
03942031
5B023212
BE666663
AFFFFF70
ENDCHAR
STARTCHAR two
ENCODING 50
SWIDTH 739 0
DWIDTH 8 0
BBX 8 10 0 -1
BITMAP
06322221
5F444312
6FFFC122
15820021
08012202
7B111650
CB106622
CB122212
CD666665
BFFFFFA1
ENDCHAR
STARTCHAR three
ENCODING 51
SWIDTH 737 0
DWIDTH 8 0
BBX 8 10 0 -1
BITMAP
07222220
9C022202
BFED8202
48A00121
0BB02312
0CFEE522
09222022
7C022212
BE666661
AFFFEA10
ENDCHAR
STARTCHAR four
ENCODING 52
SWIDTH 809 0
DWIDTH 9 0
BBX 9 10 0 -1
BITMAP
0622372220
6E028C0220
9E028C0220
9E028C0220
9E02120220
9F11222220
7F93220220
2EFFFC0120
0145CE6620
0000AFE400
ENDCHAR
STARTCHAR five
ENCODING 53
SWIDTH 747 0
DWIDTH 8 0
BBX 8 10 0 -1
BITMAP
06222222
6F022212
8F026CC2
8F020002
8F022212
8FEEE521
4C222021
6D022212
AE766661
9FFFFA10
ENDCHAR
STARTCHAR six
ENCODING 54
SWIDTH 793 0
DWIDTH 9 0
BBX 9 10 0 -1
BITMAP
0023443200
0822000200
5E027CC300
9E02122210
9E02000120
9E028C0220
9E02571120
9F41222110
5FE9778400
07DFEB3000
ENDCHAR
STARTCHAR seven
ENCODING 55
SWIDTH 727 0
DWIDTH 8 0
BBX 8 10 0 -1
BITMAP
17222222
BB344222
DFFFF122
35572022
01601212
09811461
0F720800
1F710200
1FB65100
0EFD2000
ENDCHAR
STARTCHAR eight
ENCODING 56
SWIDTH 811 0
DWIDTH 9 0
BBX 9 10 0 -1
BITMAP
0023333200
0752012010
2F517D1010
3F83564210
1D02000220
8C11BE1220
BC02570220
BF21222020
8FE9778500
08DFEC5000
ENDCHAR
STARTCHAR nine
ENCODING 57
SWIDTH 793 0
DWIDTH 9 0
BBX 9 10 0 -1
BITMAP
0023343200
0802002010
7C01AB1020
BC02663020
BF51223020
9FFDC91020
18A0001020
0B91221110
0EC6678300
0DFFEB3000
ENDCHAR
STARTCHAR colon
ENCODING 58
SWIDTH 484 0
DWIDTH 5 0
BBX 5 10 0 -1
BITMAP
022220
2C0020
AD0220
AD0020
AE6640
6E8830
6D0220
AD0020
AE6660
9FFC10
ENDCHAR
STARTCHAR semicolon
ENCODING 59
SWIDTH 484 0
DWIDTH 5 0
BBX 5 11 0 -3
BITMAP
022220
3C0020
AD0220
AE6650
AF8830
3C0020
9D1230
AF9430
7F1210
7FC800
386000
ENDCHAR
STARTCHAR less
ENCODING 60
SWIDTH 814 0
DWIDTH 9 0
BBX 9 9 0 -1
BITMAP
0000001200
0001221020
0031222020
1C2226A600
5F22375100
6F81221110
3FFD941020
039DFFF910
0000279100
ENDCHAR
STARTCHAR equal
ENCODING 61
SWIDTH 834 0
DWIDTH 9 0
BBX 9 9 0 -1
BITMAP
0122222220
1C00000020
7F02222110
7FA9999800
2976666200
2E02222120
7F32222220
7FFFFFFC10
1444444100
ENDCHAR
STARTCHAR greater
ENCODING 62
SWIDTH 814 0
DWIDTH 9 0
BBX 9 9 0 -1
BITMAP
04CB620000
2F4268A600
4F40022430
3FFC830220
029D951110
0651221000
4F40376100
4FCA830000
1510000000
ENDCHAR
STARTCHAR question
ENCODING 63
SWIDTH 756 0
DWIDTH 8 0
BBX 9 10 0 -1
BITMAP
1722221000
AC24421000
BFFB932010
36A0012210
0BD0346A00
0CFEFFD200
0AB2271000
0AA0120000
0DC6630000
0CFF600000
ENDCHAR
STARTCHAR at
ENCODING 64
SWIDTH 967 0
DWIDTH 11 0
BBX 11 14 0 -3
BITMAP
000122222000
003100000300
0827EFFF8110
4E278888D220
8E281222A220
9E292782A220
9E292882A220
9E2925628210
9E2C12222200
9F2CC9888200
8F7268883000
3FF964443000
06EFFFFB1000
000345500000
ENDCHAR
STARTCHAR A
ENCODING 65
SWIDTH 830 0
DWIDTH 9 0
BBX 9 10 0 -1
BITMAP
0023222200
01B0221200
07813A2010
0D317E1120
3E01000120
8D03222220
AD02220220
AD01BF3120
AE669F9640
9FE64FF900
ENDCHAR
STARTCHAR B
ENCODING 66
SWIDTH 825 0
DWIDTH 9 0
BBX 9 10 0 -1
BITMAP
0632222200
5F02332110
8F028C2020
8F02232310
8F03343120
8F028F5220
8F02251220
8F02222120
8F76666610
7FFFFEB100
ENDCHAR
STARTCHAR C
ENCODING 67
SWIDTH 728 0
DWIDTH 8 0
BBX 8 10 0 -1
BITMAP
00222223
07222433
5E028FD3
9E024510
9E022000
9E022000
9E021222
9F412212
5FE97665
07DFFFA0
ENDCHAR
STARTCHAR D
ENCODING 68
SWIDTH 846 0
DWIDTH 9 0
BBX 9 10 0 -1
BITMAP
0632222210
5F02222120
8F02361220
8F027F5220
8F025F5220
8F024F5220
8F02382220
8F02222120
8F76667610
7FFFFE8000
ENDCHAR
STARTCHAR E
ENCODING 69
SWIDTH 754 0
DWIDTH 8 0
BBX 8 10 0 -1
BITMAP
06322223
5F022221
8F027EE6
8F020002
8F032202
8F024850
8F024832
8F022221
8F766666
7FFFFFC2
ENDCHAR
STARTCHAR F
ENCODING 70
SWIDTH 718 0
DWIDTH 8 0
BBX 8 10 0 -1
BITMAP
06322223
5F022322
8F027FE4
8F022330
8F032220
8F021230
8F027D20
8F013200
8F763000
7FF70000
ENDCHAR
STARTCHAR G
ENCODING 71
SWIDTH 808 0
DWIDTH 9 0
BBX 9 10 0 -1
BITMAP
0022222300
0822243300
5E028FE400
9E02464210
9E023C0020
9E028F0220
9E02130220
9F41222120
5FE9766620
07DFFFF600
ENDCHAR
STARTCHAR H
ENCODING 72
SWIDTH 859 0
DWIDTH 9 0
BBX 9 10 0 -1
BITMAP
0632245230
5F024F5220
8F02383220
8F02000220
8F03222320
8F02121220
8F027F5220
8F015F5120
8F767FA650
7FF82FFB10
ENDCHAR
STARTCHAR I
ENCODING 73
SWIDTH 705 0
DWIDTH 8 0
BBX 8 10 0 -1
BITMAP
06222222
7D023212
AE822172
9EF52240
03F52200
03F52200
04932121
4C022212
AE666662
9FFFFE50
ENDCHAR
STARTCHAR J
ENCODING 74
SWIDTH 788 0
DWIDTH 9 0
BBX 9 10 0 -1
BITMAP
0000172210
0000D92020
0000E92020
0222E92020
4A00D92020
CB20D92020
CC11212020
BF21221200
7FE9778200
08EFEA2000
ENDCHAR
STARTCHAR K
ENCODING 75
SWIDTH 846 0
DWIDTH 9 0
BBX 9 10 0 -1
BITMAP
0632243220
5F026A2020
8F02742200
8F02202120
8F03232120
8F02372220
8F027F5220
8F015F5120
8F766FA650
7FF72FFB10
ENDCHAR
STARTCHAR L
ENCODING 76
SWIDTH 795 0
DWIDTH 9 0
BBX 9 10 0 -1
BITMAP
0632200000
5F02200000
8F02200000
8F02212210
8F022C0020
8F027F0220
8F02230220
8F02222120
8F76666620
7FFFFFF500
ENDCHAR
STARTCHAR M
ENCODING 77
SWIDTH 949 0
DWIDTH 10 0
BBX 10 10 0 -1
BITMAP
0632203223
5F02138122
8F02232122
8F02121122
8F02712522
8F028CD522
8F0278F522
8F0123F512
8F7623FA65
7FF602FFB1
ENDCHAR
STARTCHAR N
ENCODING 78
SWIDTH 853 0
DWIDTH 9 0
BBX 9 10 0 -1
BITMAP
0632335230
5F041C5220
8F02224220
8F02020220
8F02411220
8F02871320
8F028F3220
8F018F5120
8F765FA650
7FF62FFA10
ENDCHAR
STARTCHAR O
ENCODING 79
SWIDTH 837 0
DWIDTH 9 0
BBX 9 10 0 -1
BITMAP
0023333210
0722000220
5E028F3220
9E028F4220
9E026F4220
9E026F4220
9E02250220
9F41222030
5FFA778700
07DFFD7000
ENDCHAR
STARTCHAR P
ENCODING 80
SWIDTH 782 0
DWIDTH 9 0
BBX 9 10 0 -1
BITMAP
0632222200
5F02222020
8F026B0220
8F028E0220
8F02000220
8F03345500
8F027FA000
8F00320000
8F76200000
7FF6000000
ENDCHAR
STARTCHAR Q
ENCODING 81
SWIDTH 837 0
DWIDTH 9 0
BBX 9 12 0 -3
BITMAP
0011222210
0621222020
4E02260220
9E029F4220
9E027F4220
9E026F4220
9E025F3220
9F41232040
7FFA014A10
1BFF325100
008FFC1000
0015510000
ENDCHAR
STARTCHAR R
ENCODING 82
SWIDTH 843 0
DWIDTH 9 0
BBX 10 10 0 -1
BITMAP
0632222200
5F02222020
8F027B2020
8F02462120
8F03223120
8F02120211
8F027F7201
8F014F7101
8F764FB650
7FF71EFC10
ENDCHAR
STARTCHAR S
ENCODING 83
SWIDTH 750 0
DWIDTH 8 0
BBX 9 10 0 -1
BITMAP
0032222200
0A02221200
7C027ED300
AD02001300
AF41221100
8FFDB42010
0A21102110
7C02221100
BE66666100
AFFFEA1000
ENDCHAR
STARTCHAR T
ENCODING 84
SWIDTH 756 0
DWIDTH 8 0
BBX 9 10 0 -1
BITMAP
2722222220
DA33324220
EFF920D900
45E9204000
00E9202000
00E9202000
00E9202000
00E9102000
00EC651000
00DFE30000
ENDCHAR
STARTCHAR U
ENCODING 85
SWIDTH 846 0
DWIDTH 9 0
BBX 9 10 0 -1
BITMAP
0622235230
6F013E4120
8F025F4220
8F025F4220
8F025F4220
8F025F4220
8F02151220
8F51222030
4FFA778600
06CFFD7000
ENDCHAR
STARTCHAR V
ENCODING 86
SWIDTH 830 0
DWIDTH 9 0
BBX 9 10 0 -1
BITMAP
0622244230
8D015F3120
AD027F3220
AD027F3220
AE026F1220
9F422B1120
6FA1112110
1EF1221200
09FA666200
03FFFE3000
ENDCHAR
STARTCHAR W
ENCODING 87
SWIDTH 931 0
DWIDTH 10 0
BBX 10 10 0 -1
BITMAP
0622204523
7E0222F522
9E0224C522
9E02602522
9E02221222
9E02112022
9F22262122
7F711B6112
3FD66FC650
0CFD2DFC10
ENDCHAR
STARTCHAR X
ENCODING 88
SWIDTH 837 0
DWIDTH 9 0
BBX 9 10 0 -1
BITMAP
0622234230
6E024E3220
9F122A1220
8F91102110
2EF1322200
0871122110
1D026E1220
7E019F4120
9F767F9650
8FF63FFA10
ENDCHAR
STARTCHAR Y
ENCODING 89
SWIDTH 805 0
DWIDTH 9 0
BBX 9 10 0 -1
BITMAP
0722253220
9C116F1120
CC118F1220
CD025A1120
BF51102110
6FE2130200
0AFA022000
01ED012000
00AE662000
009FF60000
ENDCHAR
STARTCHAR Z
ENCODING 90
SWIDTH 760 0
DWIDTH 8 0
BBX 9 10 0 -1
BITMAP
0722222300
7F24322200
8FFF402200
2578020200
0090202000
0731111000
3B02032200
BC02222020
CE66666610
AFFFFFD200
ENDCHAR
STARTCHAR bracketleft
ENCODING 91
SWIDTH 529 0
DWIDTH 6 0
BBX 6 14 0 -3
BITMAP
022221
3B0002
BC0312
BC0272
BC0220
BC0220
BC0220
BC0220
BC0220
BC0221
BC0312
BD2222
BFFFB1
355400
ENDCHAR
STARTCHAR backslash
ENCODING 92
SWIDTH 487 0
DWIDTH 5 0
BBX 6 14 0 -3
BITMAP
022200
690010
EB2020
DD0120
BF0220
9F2220
7F4220
5F6220
3F8210
1F9202
0EB102
0CE222
0AFF80
025400
ENDCHAR
STARTCHAR bracketright
ENCODING 93
SWIDTH 529 0
DWIDTH 6 0
BBX 6 14 0 -3
BITMAP
022221
4B0002
BC1222
BFE022
4BE022
09E022
09E022
09E022
09E022
080022
8C0212
BD2222
BFFFA0
355400
ENDCHAR
STARTCHAR asciicircum
ENCODING 94
SWIDTH 814 0
DWIDTH 9 0
BBX 9 9 0 0
BITMAP
0003222000
00A1220100
06B2002200
0B72452200
0E32892200
4E01CD1020
7C22CF3220
BFE48FFA00
3520154000
ENDCHAR
STARTCHAR underscore
ENCODING 95
SWIDTH 834 0
DWIDTH 9 0
BBX 9 5 0 -3
BITMAP
0122222210
2D02222120
7F32222230
7FFFFFFC10
1444444100
ENDCHAR
STARTCHAR grave
ENCODING 96
SWIDTH 600 0
DWIDTH 7 0
BBX 7 4 0 7
BITMAP
04222200
8B022120
CEB97520
6ACEF600
ENDCHAR
STARTCHAR a
ENCODING 97
SWIDTH 830 0
DWIDTH 9 0
BBX 9 10 0 -1
BITMAP
0023222200
01B0221200
07813A2010
0D317E1120
3E01000120
8D03222220
AD02220220
AD01BF3120
AE669F9640
9FE64FF900
ENDCHAR
STARTCHAR b
ENCODING 98
SWIDTH 825 0
DWIDTH 9 0
BBX 9 10 0 -1
BITMAP
0632222200
5F02332110
8F028C2020
8F02232310
8F03343120
8F028F5220
8F02251220
8F02222120
8F76666610
7FFFFEB100
ENDCHAR
STARTCHAR c
ENCODING 99
SWIDTH 728 0
DWIDTH 8 0
BBX 8 10 0 -1
BITMAP
00222223
07222433
5E028FD3
9E024510
9E022000
9E022000
9E021222
9F412212
5FE97665
07DFFFA0
ENDCHAR
STARTCHAR d
ENCODING 100
SWIDTH 846 0
DWIDTH 9 0
BBX 9 10 0 -1
BITMAP
0632222210
5F02222120
8F02361220
8F027F5220
8F025F5220
8F024F5220
8F02382220
8F02222120
8F76667610
7FFFFE8000
ENDCHAR
STARTCHAR e
ENCODING 101
SWIDTH 754 0
DWIDTH 8 0
BBX 8 10 0 -1
BITMAP
06322223
5F022221
8F027EE6
8F020002
8F032202
8F024850
8F024832
8F022221
8F766666
7FFFFFC2
ENDCHAR
STARTCHAR f
ENCODING 102
SWIDTH 718 0
DWIDTH 8 0
BBX 8 10 0 -1
BITMAP
06322223
5F022322
8F027FE4
8F022330
8F032220
8F021230
8F027D20
8F013200
8F763000
7FF70000
ENDCHAR
STARTCHAR g
ENCODING 103
SWIDTH 808 0
DWIDTH 9 0
BBX 9 10 0 -1
BITMAP
0022222300
0822243300
5E028FE400
9E02464210
9E023C0020
9E028F0220
9E02130220
9F41222120
5FE9766620
07DFFFF600
ENDCHAR
STARTCHAR h
ENCODING 104
SWIDTH 859 0
DWIDTH 9 0
BBX 9 10 0 -1
BITMAP
0632245230
5F024F5220
8F02383220
8F02000220
8F03222320
8F02121220
8F027F5220
8F015F5120
8F767FA650
7FF82FFB10
ENDCHAR
STARTCHAR i
ENCODING 105
SWIDTH 705 0
DWIDTH 8 0
BBX 8 10 0 -1
BITMAP
06222222
7D023212
AE822172
9EF52240
03F52200
03F52200
04932121
4C022212
AE666662
9FFFFE50
ENDCHAR
STARTCHAR j
ENCODING 106
SWIDTH 788 0
DWIDTH 9 0
BBX 9 10 0 -1
BITMAP
0000172210
0000D92020
0000E92020
0222E92020
4A00D92020
CB20D92020
CC11212020
BF21221200
7FE9778200
08EFEA2000
ENDCHAR
STARTCHAR k
ENCODING 107
SWIDTH 846 0
DWIDTH 9 0
BBX 9 10 0 -1
BITMAP
0632243220
5F026A2020
8F02742200
8F02202120
8F03232120
8F02372220
8F027F5220
8F015F5120
8F766FA650
7FF72FFB10
ENDCHAR
STARTCHAR l
ENCODING 108
SWIDTH 795 0
DWIDTH 9 0
BBX 9 10 0 -1
BITMAP
0632200000
5F02200000
8F02200000
8F02212210
8F022C0020
8F027F0220
8F02230220
8F02222120
8F76666620
7FFFFFF500
ENDCHAR
STARTCHAR m
ENCODING 109
SWIDTH 949 0
DWIDTH 10 0
BBX 10 10 0 -1
BITMAP
0632203223
5F02138122
8F02232122
8F02121122
8F02712522
8F028CD522
8F0278F522
8F0123F512
8F7623FA65
7FF602FFB1
ENDCHAR
STARTCHAR n
ENCODING 110
SWIDTH 853 0
DWIDTH 9 0
BBX 9 10 0 -1
BITMAP
0632335230
5F041C5220
8F02224220
8F02020220
8F02411220
8F02871320
8F028F3220
8F018F5120
8F765FA650
7FF62FFA10
ENDCHAR
STARTCHAR o
ENCODING 111
SWIDTH 837 0
DWIDTH 9 0
BBX 9 10 0 -1
BITMAP
0023333210
0722000220
5E028F3220
9E028F4220
9E026F4220
9E026F4220
9E02250220
9F41222030
5FFA778700
07DFFD7000
ENDCHAR
STARTCHAR p
ENCODING 112
SWIDTH 782 0
DWIDTH 9 0
BBX 9 10 0 -1
BITMAP
0632222200
5F02222020
8F026B0220
8F028E0220
8F02000220
8F03345500
8F027FA000
8F00320000
8F76200000
7FF6000000
ENDCHAR
STARTCHAR q
ENCODING 113
SWIDTH 837 0
DWIDTH 9 0
BBX 9 12 0 -3
BITMAP
0011222210
0621222020
4E02260220
9E029F4220
9E027F4220
9E026F4220
9E025F3220
9F41232040
7FFA014A10
1BFF325100
008FFC1000
0015510000
ENDCHAR
STARTCHAR r
ENCODING 114
SWIDTH 843 0
DWIDTH 9 0
BBX 10 10 0 -1
BITMAP
0632222200
5F02222020
8F027B2020
8F02462120
8F03223120
8F02120211
8F027F7201
8F014F7101
8F764FB650
7FF71EFC10
ENDCHAR
STARTCHAR s
ENCODING 115
SWIDTH 750 0
DWIDTH 8 0
BBX 9 10 0 -1
BITMAP
0032222200
0A02221200
7C027ED300
AD02001300
AF41221100
8FFDB42010
0A21102110
7C02221100
BE66666100
AFFFEA1000
ENDCHAR
STARTCHAR t
ENCODING 116
SWIDTH 756 0
DWIDTH 8 0
BBX 9 10 0 -1
BITMAP
2722222220
DA33324220
EFF920D900
45E9204000
00E9202000
00E9202000
00E9202000
00E9102000
00EC651000
00DFE30000
ENDCHAR
STARTCHAR u
ENCODING 117
SWIDTH 846 0
DWIDTH 9 0
BBX 9 10 0 -1
BITMAP
0622235230
6F013E4120
8F025F4220
8F025F4220
8F025F4220
8F025F4220
8F02151220
8F51222030
4FFA778600
06CFFD7000
ENDCHAR
STARTCHAR v
ENCODING 118
SWIDTH 830 0
DWIDTH 9 0
BBX 9 10 0 -1
BITMAP
0622244230
8D015F3120
AD027F3220
AD027F3220
AE026F1220
9F422B1120
6FA1112110
1EF1221200
09FA666200
03FFFE3000
ENDCHAR
STARTCHAR w
ENCODING 119
SWIDTH 931 0
DWIDTH 10 0
BBX 10 10 0 -1
BITMAP
0622204523
7E0222F522
9E0224C522
9E02602522
9E02221222
9E02112022
9F22262122
7F711B6112
3FD66FC650
0CFD2DFC10
ENDCHAR
STARTCHAR x
ENCODING 120
SWIDTH 837 0
DWIDTH 9 0
BBX 9 10 0 -1
BITMAP
0622234230
6E024E3220
9F122A1220
8F91102110
2EF1322200
0871122110
1D026E1220
7E019F4120
9F767F9650
8FF63FFA10
ENDCHAR
STARTCHAR y
ENCODING 121
SWIDTH 805 0
DWIDTH 9 0
BBX 9 10 0 -1
BITMAP
0722253220
9C116F1120
CC118F1220
CD025A1120
BF51102110
6FE2130200
0AFA022000
01ED012000
00AE662000
009FF60000
ENDCHAR
STARTCHAR z
ENCODING 122
SWIDTH 760 0
DWIDTH 8 0
BBX 9 10 0 -1
BITMAP
0722222300
7F24322200
8FFF402200
2578020200
0090202000
0731111000
3B02032200
BC02222020
CE66666610
AFFFFFD200
ENDCHAR
STARTCHAR braceleft
ENCODING 123
SWIDTH 555 0
DWIDTH 6 0
BBX 6 14 0 -3
BITMAP
000222
004002
085212
2F3224
5F3220
5B1220
982140
FC1220
EF3220
6F3212
5F6122
4FE633
0BFFD3
003510
ENDCHAR
STARTCHAR bar
ENCODING 124
SWIDTH 447 0
DWIDTH 5 0
BBX 5 14 0 -3
BITMAP
012210
2D0020
8F0220
8F0220
8F0220
8F0220
8F0220
8F0220
8F0220
8F0220
8F0120
8F2220
8FF900
254000
ENDCHAR
STARTCHAR braceright
ENCODING 125
SWIDTH 555 0
DWIDTH 6 0
BBX 7 14 0 -3
BITMAP
02221000
4B001100
BC120200
BFC02200
4DD02200
0AE32110
0AE32110
06D02300
0AC02200
09011100
8C020100
BD242000
BFF60000
34100000
ENDCHAR
STARTCHAR asciitilde
ENCODING 126
SWIDTH 834 0
DWIDTH 9 0
BBX 9 5 0 1
BITMAP
0022222220
0812222120
6F24420130
8FFFFFFA00
3534785000
ENDCHAR
STARTCHAR uni00A0
ENCODING 160
SWIDTH 325 0
DWIDTH 4 0
BBX 1 1 0 0
BITMAP
00
ENDCHAR
STARTCHAR exclamdown
ENCODING 161
SWIDTH 523 0
DWIDTH 6 0
BBX 6 10 0 -1
BITMAP
044221
3F3102
5FDB90
2D5020
2F4210
3F4211
4F3201
4F3102
5F8651
4FFD20
ENDCHAR
STARTCHAR cent
ENCODING 162
SWIDTH 728 0
DWIDTH 8 0
BBX 8 13 0 -3
BITMAP
00013210
001C1002
01A70134
0C322312
6E021223
9E029FD2
9E024510
9E021222
9F312212
6FE80124
0BFF3271
008FFB10
00154000
ENDCHAR
STARTCHAR sterling
ENCODING 163
SWIDTH 795 0
DWIDTH 9 0
BBX 10 10 -1 -1
BITMAP
0001122220
0063132120
03F126FC10
0780205100
0B80204221
1FF027E012
0CF0200022
08F0222212
08F7666662
06FFFFFF50
ENDCHAR
STARTCHAR currency
ENCODING 164
SWIDTH 921 0
DWIDTH 10 0
BBX 10 11 0 -2
BITMAP
0000000010
0311222302
3E32021122
9FD1100120
1CE20E9220
09E21FB220
09E12B7320
0842322212
2C11877602
9FCBFEFF61
2C50107B10
ENDCHAR
STARTCHAR yen
ENCODING 165
SWIDTH 803 0
DWIDTH 9 0
BBX 9 10 0 -1
BITMAP
1722253220
AB116F2120
CD017E1120
BF61131110
4FB1010300
0C51232010
3F84023510
3FFE009400
16CF763000
008FF50000
ENDCHAR
STARTCHAR brokenbar
ENCODING 166
SWIDTH 447 0
DWIDTH 5 0
BBX 5 14 0 -3
BITMAP
012210
2C0020
8F0220
8F0220
8F0120
8F7620
8F9610
2D0020
8F0220
8F0220
8F0120
8F2220
8FF900
254000
ENDCHAR
STARTCHAR section
ENCODING 167
SWIDTH 750 0
DWIDTH 8 0
BBX 9 10 0 -1
BITMAP
0024443200
0813000200
6D026AB200
AD03222200
AE01862200
9F81123010
4FDBA42110
1C02221200
8F76677200
8FFFEA1000
ENDCHAR
STARTCHAR dieresis
ENCODING 168
SWIDTH 600 0
DWIDTH 7 0
BBX 8 5 -1 7
BITMAP
00322321
07714412
1F705502
1FFFFFD1
06737710
ENDCHAR
STARTCHAR copyright
ENCODING 169
SWIDTH 967 0
DWIDTH 11 0
BBX 11 14 0 -3
BITMAP
000122222000
003100000200
0828EFFF8110
4E267432E220
8E2C2022F220
9E2D25FCF220
9E2D2337F220
9E2D2125F220
9E2E7321F220
9F28FFFD9220
8F7113301300
4FFA64467100
07EFFFFB1000
001344200000
ENDCHAR
STARTCHAR ordfeminine
ENCODING 170
SWIDTH 620 0
DWIDTH 7 0
BBX 7 10 0 -1
BITMAP
01534200
0C323210
4D235220
9A211220
DA168120
DB3AC330
DD878830
7A111120
DD666620
CFFFF700
ENDCHAR
STARTCHAR guillemotleft
ENCODING 171
SWIDTH 912 0
DWIDTH 10 0
BBX 10 8 0 -1
BITMAP
0002220121
0121132112
2B11291222
AC207C1151
BE22162212
9FEA58FA63
17CFB7CFA1
0001000100
ENDCHAR
STARTCHAR logicalnot
ENCODING 172
SWIDTH 834 0
DWIDTH 9 0
BBX 9 8 0 -1
BITMAP
0122222220
1C02222220
7F32221220
7FFFFF6220
15556F6120
00002F8220
00001FFC10
0000044100
ENDCHAR
STARTCHAR uni00AD
ENCODING 173
SWIDTH 520 0
DWIDTH 6 0
BBX 6 5 0 1
BITMAP
022221
5A1212
CC2223
CFFFB1
355400
ENDCHAR
STARTCHAR registered
ENCODING 174
SWIDTH 660 0
DWIDTH 7 0
BBX 7 8 0 1
BITMAP
017EFE30
1B822960
8D826860
AD825560
AE81C450
9F989860
6FFFFA00
05995000
ENDCHAR
STARTCHAR macron
ENCODING 175
SWIDTH 600 0
DWIDTH 7 0
BBX 7 5 0 7
BITMAP
02222210
3A000020
CB122110
CFFFF900
57776000
ENDCHAR
STARTCHAR degree
ENCODING 176
SWIDTH 583 0
DWIDTH 6 0
BBX 7 7 0 2
BITMAP
02344300
2A200220
BC297220
CC264220
BE222110
9FECA200
17981000
ENDCHAR
STARTCHAR plusminus
ENCODING 177
SWIDTH 834 0
DWIDTH 9 0
BBX 9 10 0 -1
BITMAP
0004422000
003F322000
0148222210
2D02232120
7F76124650
7FFF329C10
1678204210
2D02222120
7F76666640
7FFFFFF800
ENDCHAR
STARTCHAR twosuperior
ENCODING 178
SWIDTH 585 0
DWIDTH 6 0
BBX 7 9 0 0
BITMAP
07244300
7FA92210
7EB42110
08222300
7B237210
CB222120
CC222210
CFFFF400
35553000
ENDCHAR
STARTCHAR threesuperior
ENCODING 179
SWIDTH 584 0
DWIDTH 6 0
BBX 7 9 0 0
BITMAP
07343200
8C001200
BFB82200
5D713310
1FCB4110
2C122120
AD222300
BFFFB100
35540000
ENDCHAR
STARTCHAR acute
ENCODING 180
SWIDTH 600 0
DWIDTH 7 0
BBX 7 4 0 7
BITMAP
01222210
28022120
CC579810
CECA8100
ENDCHAR
STARTCHAR mu
ENCODING 181
SWIDTH 813 0
DWIDTH 9 0
BBX 9 10 0 -2
BITMAP
0222112220
2C002B0020
9E028F0220
9E028F0220
9E028F0220
9E03360110
9E03222000
9E01123000
9F88CC4000
7ED5000000
ENDCHAR
STARTCHAR paragraph
ENCODING 182
SWIDTH 782 0
DWIDTH 9 0
BBX 9 10 0 -1
BITMAP
0022222210
1902223020
9A20001120
DA20001120
DC02323120
CF92221120
7FF5281120
05F5180020
03FA6C7510
02FFCFC200
ENDCHAR
STARTCHAR periodcentered
ENCODING 183
SWIDTH 464 0
DWIDTH 5 0
BBX 5 5 0 1
BITMAP
022220
5B0220
BC0020
CD6650
BFFB10
ENDCHAR
STARTCHAR cedilla
ENCODING 184
SWIDTH 600 0
DWIDTH 7 0
BBX 5 6 1 -4
BITMAP
001000
073110
3C1120
992400
EFD200
441000
ENDCHAR
STARTCHAR onesuperior
ENCODING 185
SWIDTH 557 0
DWIDTH 6 0
BBX 6 9 0 0
BITMAP
073430
7F5120
8FF120
09F120
088112
3B1212
BD2222
BFFFE2
355520
ENDCHAR
STARTCHAR ordmasculine
ENCODING 186
SWIDTH 625 0
DWIDTH 7 0
BBX 7 10 0 -1
BITMAP
01244310
39100220
BA16B120
CA17C120
CB16B120
CF633420
9E888520
4A111120
CD666620
BFFFF800
ENDCHAR
STARTCHAR guillemotright
ENCODING 187
SWIDTH 912 0
DWIDTH 10 0
BBX 10 8 0 -1
BITMAP
0555265530
6E023B0233
9F51265022
8FA3269322
1C02190213
8E48DE4881
9FD7AFE800
3300330000
ENDCHAR
STARTCHAR onequarter
ENCODING 188
SWIDTH 1303 0
DWIDTH 14 0
BBX 15 10 0 -1
BITMAP
0834305522000000
7F5123F212000000
8FF126E214233200
08F129B2362C3210
07811892662C3210
5C34446286273210
BFFFFF32BB320210
35557F10DFFF3210
00007F74248F8600
00008FC1005FD200
ENDCHAR
STARTCHAR onehalf
ENCODING 189
SWIDTH 1260 0
DWIDTH 14 0
BBX 14 10 0 -1
BITMAP
07343055220000
6F5123F2120000
9FF126E2142221
2BF129B2361212
078118926EC522
5C344462692141
BFFFFF32B32731
35557F10D22212
00007F77F86661
00008FC7FFFF60
ENDCHAR
STARTCHAR threequarters
ENCODING 190
SWIDTH 1313 0
DWIDTH 14 0
BBX 15 10 0 -1
BITMAP
1834326622000000
AFB814F321000000
5C7126F215032010
1F7001C2182B4220
1FCB4182482B4220
3C34478278274220
BFFFCF529C321220
35543F20CFFF4120
00005F75247F9610
00006FD2003FD300
ENDCHAR
STARTCHAR questiondown
ENCODING 191
SWIDTH 756 0
DWIDTH 8 0
BBX 9 10 0 -1
BITMAP
0002522100
002E410200
004F854100
005C977000
0622220200
6C02134100
BC02684200
BE12222010
AFC7666610
2CFFFFD200
ENDCHAR
STARTCHAR Agrave
ENCODING 192
SWIDTH 830 0
DWIDTH 9 0
BBX 9 13 0 -1
BITMAP
004B976200
05F7ACDA00
08F0000000
05D0689400
01B0221200
07713A2010
0D217E1120
3E01000120
8D03222220
AD02220220
AD01BF3120
AE669F9640
9FE64FF900
ENDCHAR
STARTCHAR Aacute
ENCODING 193
SWIDTH 830 0
DWIDTH 9 0
BBX 9 13 0 -1
BITMAP
0003579600
009EDB9600
08F0001400
08F5753000
03D0221200
07813A2010
0D317E1120
3E01000120
8D03222220
AD02220220
AD01BF3120
AE669F9640
9FE64FF900
ENDCHAR
STARTCHAR Acircumflex
ENCODING 194
SWIDTH 830 0
DWIDTH 9 0
BBX 9 14 0 -1
BITMAP
0000221000
0022222200
02D0000200
08F8CEA400
08F4000200
03C0221200
07713A2010
0D217E1120
3E01000120
8D03222220
AD02220220
AD01BF3120
AE669F9640
9FE64FF900
ENDCHAR
STARTCHAR Atilde
ENCODING 195
SWIDTH 830 0
DWIDTH 9 0
BBX 9 13 0 -1
BITMAP
0002212200
00A0221200
08F2421300
08F9666200
03D0221200
07913A2110
0D417E1120
3E01000120
8D03222220
AD02220220
AD01BF3120
AE669F9640
9FE64FFA00
ENDCHAR
STARTCHAR Adieresis
ENCODING 196
SWIDTH 830 0
DWIDTH 9 0
BBX 9 13 0 -1
BITMAP
0022232200
05A1081200
0CB0190200
0CFA777500
04E1221200
07913A2110
0D417E1120
3E01000120
8D03222220
AD02220220
AD01BF3120
AE669F9640
9FE64FFA00
ENDCHAR
STARTCHAR Aring
ENCODING 197
SWIDTH 830 0
DWIDTH 9 0
BBX 9 14 0 -1
BITMAP
0001222000
0042222200
03D2012200
09E25E2200
0AF2351200
07C0221200
09713A2020
0E217E1120
4E01000120
8D03222220
AD02220220
AD01BF3120
AE669F9640
9FE64FF900
ENDCHAR
STARTCHAR AE
ENCODING 198
SWIDTH 1105 0
DWIDTH 12 0
BBX 12 10 0 -1
BITMAP
003322222223
03C022232222
09722E225EE5
0E226F220020
4E0258132220
8D0322223860
AD0222023822
AD01BF222212
AE66AF866665
9FE66FFFFFB1
ENDCHAR
STARTCHAR Ccedilla
ENCODING 199
SWIDTH 728 0
DWIDTH 8 0
BBX 8 12 0 -3
BITMAP
00222222
08222212
5E020222
9E029FC1
9E024510
9E022000
9E021222
8F412212
4FFA1155
06CD2270
009FF600
00342000
ENDCHAR
STARTCHAR Egrave
ENCODING 200
SWIDTH 754 0
DWIDTH 8 0
BBX 8 13 0 -1
BITMAP
00797530
0AC8BDE4
0F800001
0C235781
4F022221
8F027EE6
8F020002
8F032202
8F024850
8F024832
8F022221
8F766666
7FFFFFC2
ENDCHAR
STARTCHAR Eacute
ENCODING 201
SWIDTH 754 0
DWIDTH 8 0
BBX 8 13 0 -1
BITMAP
00035795
01AEDB85
09D00014
0A287531
5F022221
8F027EE6
8F020002
8F032202
8F024850
8F024832
8F022221
8F766666
7FFFFFC2
ENDCHAR
STARTCHAR Ecircumflex
ENCODING 202
SWIDTH 754 0
DWIDTH 8 0
BBX 8 14 0 -1
BITMAP
00012200
00532322
08A10002
0DC7BB72
1E322223
7F022221
8F027EE6
8F020002
8F032202
8F024850
8F024832
8F022221
8F766666
7FFFFFC2
ENDCHAR
STARTCHAR Edieresis
ENCODING 203
SWIDTH 754 0
DWIDTH 8 0
BBX 8 13 0 -1
BITMAP
00322322
07814512
0F804600
0F877778
3F022221
7F027EE6
8F020002
8F032202
8F024850
8F024832
8F022221
8F766666
7FFFFFC2
ENDCHAR
STARTCHAR Igrave
ENCODING 204
SWIDTH 705 0
DWIDTH 8 0
BBX 8 13 0 -1
BITMAP
01886420
1C99CDE0
4F400010
2D035772
7D023212
AE822172
9EF52240
03F52200
03F52200
04932121
4C022212
AE666662
9FFFFE50
ENDCHAR
STARTCHAR Iacute
ENCODING 205
SWIDTH 705 0
DWIDTH 8 0
BBX 8 13 0 -1
BITMAP
00246890
06EDCA80
3F400050
4D576412
6D023212
AE822172
9EF52240
03F52200
03F52200
04932121
4C022212
AE666662
9FFFFE50
ENDCHAR
STARTCHAR Icircumflex
ENCODING 206
SWIDTH 705 0
DWIDTH 8 0
BBX 8 14 0 -1
BITMAP
00012200
00422230
0A410120
3F89C960
4D222222
6D023212
AE822172
9EF52240
03F52200
03F52200
04932121
4C022212
AE666662
9FFFFE50
ENDCHAR
STARTCHAR Idieresis
ENCODING 207
SWIDTH 705 0
DWIDTH 8 0
BBX 8 13 0 -1
BITMAP
01224221
2D019102
8F10A001
8E777774
7D023212
AE822171
9EF52240
03F52200
03F52200
04932121
4C022212
AE666662
9FFFFE50
ENDCHAR
STARTCHAR Eth
ENCODING 208
SWIDTH 856 0
DWIDTH 9 0
BBX 11 10 -1 -1
BITMAP
004422222100
04F222221200
06F226F62100
068020972110
0B8131972110
1FF225E52110
0BF220002100
06F222221200
06F866677100
05FFFFE91000
ENDCHAR
STARTCHAR Ntilde
ENCODING 209
SWIDTH 853 0
DWIDTH 9 0
BBX 9 13 0 -1
BITMAP
0002222200
00A2221200
06F3420100
0832BF7230
5F041C5220
8F02224220
8F02020220
8F02411220
8F02871320
8F028F3220
8F018F5120
8F765FA650
7FF62FFA10
ENDCHAR
STARTCHAR Ograve
ENCODING 210
SWIDTH 837 0
DWIDTH 9 0
BBX 9 14 0 -1
BITMAP
0001000000
009FFDB600
07F79CDA00
08F4776200
0353468620
2D02000220
8E028F3220
9E028F4220
9E026F4220
9E026F4220
9E02250220
8F51222020
4FFA778600
06DFFC6000
ENDCHAR
STARTCHAR Oacute
ENCODING 211
SWIDTH 837 0
DWIDTH 9 0
BBX 9 14 0 -1
BITMAP
0000000100
0029BEFA00
03EEDB8500
08F4777700
0769763120
2E02000220
8E028F3220
9E028F4220
9E026F4220
9E026F4220
9E02250220
8F51222020
4FFA778600
06DFFC6000
ENDCHAR
STARTCHAR Ocircumflex
ENCODING 212
SWIDTH 837 0
DWIDTH 9 0
BBX 9 14 0 -1
BITMAP
0000321000
0044222300
04F0000200
08F7AB9400
07A3222320
2E12000220
8E028F3220
9E028F4220
9E026F4220
9E026F4220
9E02250220
8F41222020
4FFA778600
06DFFD6000
ENDCHAR
STARTCHAR Otilde
ENCODING 213
SWIDTH 837 0
DWIDTH 9 0
BBX 9 14 0 -1
BITMAP
0003211200
00A1221200
07F0001200
08F3521100
06C5334310
2E12000220
8E028F3220
9E028F4220
9E026F4220
9E026F4220
9E02250220
8F41222030
4FFA778600
06DFFD7000
ENDCHAR
STARTCHAR Odieresis
ENCODING 214
SWIDTH 837 0
DWIDTH 9 0
BBX 9 14 0 -1
BITMAP
0022222200
04A0080200
0CB1091200
0CC01A0100
08E9778610
2E32000230
8E028F3220
9E028F4220
9E026F4220
9E026F4220
9E02250220
8F41222030
4FFA778600
06DFFD7000
ENDCHAR
STARTCHAR multiply
ENCODING 215
SWIDTH 834 0
DWIDTH 9 0
BBX 9 9 0 0
BITMAP
0001000000
0130121010
0B81121120
3FF6221200
07F7221200
0171121110
0A807E2120
3FF6BFD300
06801C6000
ENDCHAR
STARTCHAR Oslash
ENCODING 216
SWIDTH 837 0
DWIDTH 9 0
BBX 9 13 0 -2
BITMAP
0000001210
0000022020
0023334110
072100A720
5E01A83320
9E01A72220
9E01766220
9E03767220
9E0B763120
9F43322030
6F90378600
0EDCED6000
1AA2000000
ENDCHAR
STARTCHAR Ugrave
ENCODING 217
SWIDTH 846 0
DWIDTH 9 0
BBX 9 13 0 -1
BITMAP
0039864100
04E7ACD900
09E0000100
0922373430
6F013E4120
8F025F4220
8F025F4220
8F025F4220
8F025F4220
8F02151220
8F51222030
4FFA778600
06CFFD7000
ENDCHAR
STARTCHAR Uacute
ENCODING 218
SWIDTH 846 0
DWIDTH 9 0
BBX 9 13 0 -1
BITMAP
0002468800
007EDCA700
05F3000500
0826151130
6F013E4120
8F025F4220
8F025F4220
8F025F4220
8F025F4220
8F02151220
8F51222030
4FFA778600
06CFFD7000
ENDCHAR
STARTCHAR Ucircumflex
ENCODING 219
SWIDTH 846 0
DWIDTH 9 0
BBX 9 14 0 -1
BITMAP
0000120000
0021221000
01D2573200
07FFFFFB00
09228E6230
6F014E4120
8F025F4220
8F025F4220
8F025F4220
8F025F3220
8F02000220
8F51222030
4FFA778600
06CFFD7000
ENDCHAR
STARTCHAR Udieresis
ENCODING 220
SWIDTH 846 0
DWIDTH 9 0
BBX 9 14 0 -1
BITMAP
0022222200
03B0080200
0BC1091200
0BD00A0000
3E87CFA770
8F015F4120
8F025F4220
8F025F4220
8F025F4220
8F025F4220
8F02261220
7F51222020
3FFA778600
05CFFD7000
ENDCHAR
STARTCHAR Yacute
ENCODING 221
SWIDTH 805 0
DWIDTH 9 0
BBX 9 13 0 -1
BITMAP
0003579600
00AEDB9600
08E0001400
0818171020
9C116F1120
CC118F1220
CD025A1120
BF51102110
6FE2130200
0AFA022000
01ED012000
00AE662000
009FF60000
ENDCHAR
STARTCHAR Thorn
ENCODING 222
SWIDTH 792 0
DWIDTH 9 0
BBX 9 10 0 -1
BITMAP
0632200000
5F02122200
8F03222020
8F026B0120
8F028E0220
8F02000120
8F03345400
8F017F9000
8F75120000
7FF5000000
ENDCHAR
STARTCHAR germandbls
ENCODING 223
SWIDTH 859 0
DWIDTH 9 0
BBX 10 10 0 -1
BITMAP
0632222200
5F02222020
8F02342020
8F02772120
8F02742211
8F027FA102
8F02751102
8F01731211
8F76B96740
7FFBFFD500
ENDCHAR
STARTCHAR agrave
ENCODING 224
SWIDTH 830 0
DWIDTH 9 0
BBX 9 13 0 -1
BITMAP
004B976200
05F7ACDA00
08F0000000
05D0689400
01B0221200
07713A2010
0D217E1120
3E01000120
8D03222220
AD02220220
AD01BF3120
AE669F9640
9FE64FF900
ENDCHAR
STARTCHAR aacute
ENCODING 225
SWIDTH 830 0
DWIDTH 9 0
BBX 9 13 0 -1
BITMAP
0003579600
009EDB9600
08F0001400
08F5753000
03D0221200
07813A2010
0D317E1120
3E01000120
8D03222220
AD02220220
AD01BF3120
AE669F9640
9FE64FF900
ENDCHAR
STARTCHAR acircumflex
ENCODING 226
SWIDTH 830 0
DWIDTH 9 0
BBX 9 14 0 -1
BITMAP
0000221000
0022222200
02D0000200
08F8CEA400
08F4000200
03C0221200
07713A2010
0D217E1120
3E01000120
8D03222220
AD02220220
AD01BF3120
AE669F9640
9FE64FF900
ENDCHAR
STARTCHAR atilde
ENCODING 227
SWIDTH 830 0
DWIDTH 9 0
BBX 9 13 0 -1
BITMAP
0002212200
00A0221200
08F2421300
08F9666200
03D0221200
07913A2110
0D417E1120
3E01000120
8D03222220
AD02220220
AD01BF3120
AE669F9640
9FE64FFA00
ENDCHAR
STARTCHAR adieresis
ENCODING 228
SWIDTH 830 0
DWIDTH 9 0
BBX 9 13 0 -1
BITMAP
0022232200
05A1081200
0CB0190200
0CFA777500
04E1221200
07913A2110
0D417E1120
3E01000120
8D03222220
AD02220220
AD01BF3120
AE669F9640
9FE64FFA00
ENDCHAR
STARTCHAR aring
ENCODING 229
SWIDTH 830 0
DWIDTH 9 0
BBX 9 14 0 -1
BITMAP
0001222000
0042222200
03D2012200
09E25E2200
0AF2351200
07C0221200
09713A2020
0E217E1120
4E01000120
8D03222220
AD02220220
AD01BF3120
AE669F9640
9FE64FF900
ENDCHAR
STARTCHAR ae
ENCODING 230
SWIDTH 1105 0
DWIDTH 12 0
BBX 12 10 0 -1
BITMAP
003322222223
03C022232222
09722E225EE5
0E226F220020
4E0258132220
8D0322223860
AD0222023822
AD01BF222212
AE66AF866665
9FE66FFFFFB1
ENDCHAR
STARTCHAR ccedilla
ENCODING 231
SWIDTH 728 0
DWIDTH 8 0
BBX 8 12 0 -3
BITMAP
00222222
08222212
5E020222
9E029FC1
9E024510
9E022000
9E021222
8F412212
4FFA1155
06CD2270
009FF600
00342000
ENDCHAR
STARTCHAR egrave
ENCODING 232
SWIDTH 754 0
DWIDTH 8 0
BBX 8 13 0 -1
BITMAP
00797530
0AC8BDE4
0F800001
0C235781
4F022221
8F027EE6
8F020002
8F032202
8F024850
8F024832
8F022221
8F766666
7FFFFFC2
ENDCHAR
STARTCHAR eacute
ENCODING 233
SWIDTH 754 0
DWIDTH 8 0
BBX 8 13 0 -1
BITMAP
00035795
01AEDB85
09D00014
0A287531
5F022221
8F027EE6
8F020002
8F032202
8F024850
8F024832
8F022221
8F766666
7FFFFFC2
ENDCHAR
STARTCHAR ecircumflex
ENCODING 234
SWIDTH 754 0
DWIDTH 8 0
BBX 8 14 0 -1
BITMAP
00012200
00532322
08A10002
0DC7BB72
1E322223
7F022221
8F027EE6
8F020002
8F032202
8F024850
8F024832
8F022221
8F766666
7FFFFFC2
ENDCHAR
STARTCHAR edieresis
ENCODING 235
SWIDTH 754 0
DWIDTH 8 0
BBX 8 13 0 -1
BITMAP
00322322
07814512
0F804600
0F877778
3F022221
7F027EE6
8F020002
8F032202
8F024850
8F024832
8F022221
8F766666
7FFFFFC2
ENDCHAR
STARTCHAR igrave
ENCODING 236
SWIDTH 705 0
DWIDTH 8 0
BBX 8 13 0 -1
BITMAP
01886420
1C99CDE0
4F400010
2D035772
7D023212
AE822172
9EF52240
03F52200
03F52200
04932121
4C022212
AE666662
9FFFFE50
ENDCHAR
STARTCHAR iacute
ENCODING 237
SWIDTH 705 0
DWIDTH 8 0
BBX 8 13 0 -1
BITMAP
00246890
06EDCA80
3F400050
4D576412
6D023212
AE822172
9EF52240
03F52200
03F52200
04932121
4C022212
AE666662
9FFFFE50
ENDCHAR
STARTCHAR icircumflex
ENCODING 238
SWIDTH 705 0
DWIDTH 8 0
BBX 8 14 0 -1
BITMAP
00012200
00422230
0A410120
3F89C960
4D222222
6D023212
AE822172
9EF52240
03F52200
03F52200
04932121
4C022212
AE666662
9FFFFE50
ENDCHAR
STARTCHAR idieresis
ENCODING 239
SWIDTH 705 0
DWIDTH 8 0
BBX 8 13 0 -1
BITMAP
01224221
2D019102
8F10A001
8E777774
7D023212
AE822171
9EF52240
03F52200
03F52200
04932121
4C022212
AE666662
9FFFFE50
ENDCHAR
STARTCHAR eth
ENCODING 240
SWIDTH 856 0
DWIDTH 9 0
BBX 11 10 -1 -1
BITMAP
004422222100
04F222221200
06F226F62100
068020972110
0B8131972110
1FF225E52110
0BF220002100
06F222221200
06F866677100
05FFFFE91000
ENDCHAR
STARTCHAR ntilde
ENCODING 241
SWIDTH 853 0
DWIDTH 9 0
BBX 9 13 0 -1
BITMAP
0002222200
00A2221200
06F3420100
0832BF7230
5F041C5220
8F02224220
8F02020220
8F02411220
8F02871320
8F028F3220
8F018F5120
8F765FA650
7FF62FFA10
ENDCHAR
STARTCHAR ograve
ENCODING 242
SWIDTH 837 0
DWIDTH 9 0
BBX 9 14 0 -1
BITMAP
0001000000
009FFDB600
07F79CDA00
08F4776200
0353468620
2D02000220
8E028F3220
9E028F4220
9E026F4220
9E026F4220
9E02250220
8F51222020
4FFA778600
06DFFC6000
ENDCHAR
STARTCHAR oacute
ENCODING 243
SWIDTH 837 0
DWIDTH 9 0
BBX 9 14 0 -1
BITMAP
0000000100
0029BEFA00
03EEDB8500
08F4777700
0769763120
2E02000220
8E028F3220
9E028F4220
9E026F4220
9E026F4220
9E02250220
8F51222020
4FFA778600
06DFFC6000
ENDCHAR
STARTCHAR ocircumflex
ENCODING 244
SWIDTH 837 0
DWIDTH 9 0
BBX 9 14 0 -1
BITMAP
0000321000
0044222300
04F0000200
08F7AB9400
07A3222320
2E12000220
8E028F3220
9E028F4220
9E026F4220
9E026F4220
9E02250220
8F41222020
4FFA778600
06DFFD6000
ENDCHAR
STARTCHAR otilde
ENCODING 245
SWIDTH 837 0
DWIDTH 9 0
BBX 9 14 0 -1
BITMAP
0003211200
00A1221200
07F0001200
08F3521100
06C5334310
2E12000220
8E028F3220
9E028F4220
9E026F4220
9E026F4220
9E02250220
8F41222030
4FFA778600
06DFFD7000
ENDCHAR
STARTCHAR odieresis
ENCODING 246
SWIDTH 837 0
DWIDTH 9 0
BBX 9 14 0 -1
BITMAP
0022222200
04A0080200
0CB1091200
0CC01A0100
08E9778610
2E32000230
8E028F3220
9E028F4220
9E026F4220
9E026F4220
9E02250220
8F41222030
4FFA778600
06DFFD7000
ENDCHAR
STARTCHAR divide
ENCODING 247
SWIDTH 834 0
DWIDTH 9 0
BBX 9 10 0 -2
BITMAP
0002222000
005F012000
0168874220
0B00000020
7F12222110
8FCB879A10
4ABF015300
007F223000
008FFC2000
0014410000
ENDCHAR
STARTCHAR oslash
ENCODING 248
SWIDTH 837 0
DWIDTH 9 0
BBX 9 13 0 -2
BITMAP
0000001210
0000022020
0023334110
072100A720
5E01A83320
9E01A72220
9E01766220
9E03767220
9E0B763120
9F43322030
6F90378600
0EDCED6000
1AA2000000
ENDCHAR
STARTCHAR ugrave
ENCODING 249
SWIDTH 846 0
DWIDTH 9 0
BBX 9 13 0 -1
BITMAP
0039864100
04E7ACD900
09E0000100
0922373430
6F013E4120
8F025F4220
8F025F4220
8F025F4220
8F025F4220
8F02151220
8F51222030
4FFA778600
06CFFD7000
ENDCHAR
STARTCHAR uacute
ENCODING 250
SWIDTH 846 0
DWIDTH 9 0
BBX 9 13 0 -1
BITMAP
0002468800
007EDCA700
05F3000500
0826151130
6F013E4120
8F025F4220
8F025F4220
8F025F4220
8F025F4220
8F02151220
8F51222030
4FFA778600
06CFFD7000
ENDCHAR
STARTCHAR ucircumflex
ENCODING 251
SWIDTH 846 0
DWIDTH 9 0
BBX 9 14 0 -1
BITMAP
0000120000
0021221000
01D2573200
07FFFFFB00
09228E6230
6F014E4120
8F025F4220
8F025F4220
8F025F4220
8F025F3220
8F02000220
8F51222030
4FFA778600
06CFFD7000
ENDCHAR
STARTCHAR udieresis
ENCODING 252
SWIDTH 846 0
DWIDTH 9 0
BBX 9 14 0 -1
BITMAP
0022222200
03B0080200
0BC1091200
0BD00A0000
3E87CFA770
8F015F4120
8F025F4220
8F025F4220
8F025F4220
8F025F4220
8F02261220
7F51222020
3FFA778600
05CFFD7000
ENDCHAR
STARTCHAR yacute
ENCODING 253
SWIDTH 805 0
DWIDTH 9 0
BBX 9 13 0 -1
BITMAP
0003579600
00AEDB9600
08E0001400
0818171020
9C116F1120
CC118F1220
CD025A1120
BF51102110
6FE2130200
0AFA022000
01ED012000
00AE662000
009FF60000
ENDCHAR
STARTCHAR thorn
ENCODING 254
SWIDTH 792 0
DWIDTH 9 0
BBX 9 10 0 -1
BITMAP
0632200000
5F02122200
8F03222020
8F026B0120
8F028E0220
8F02000120
8F03345400
8F017F9000
8F75120000
7FF5000000
ENDCHAR
STARTCHAR ydieresis
ENCODING 255
SWIDTH 805 0
DWIDTH 9 0
BBX 9 13 0 -1
BITMAP
0032232200
0781361200
0F90370000
0D77EF9750
8C008F1120
CC118F1220
CC026B0110
BF41112000
6FD1130100
0BFA022000
01ED012000
00AE662000
009FF60000
ENDCHAR
STARTCHAR Amacron
ENCODING 256
SWIDTH 830 0
DWIDTH 9 0
BBX 9 13 0 -1
BITMAP
0012222200
01C0221200
08F0000200
08FA777300
03E1221200
07913A2110
0D417E1120
3E01000120
8D03222220
AD02220220
AD01BF3120
AE669F9640
9FE64FFA00
ENDCHAR
STARTCHAR amacron
ENCODING 257
SWIDTH 830 0
DWIDTH 9 0
BBX 9 13 0 -1
BITMAP
0012222200
01C0221200
08F0000200
08FA777300
03E1221200
07913A2110
0D417E1120
3E01000120
8D03222220
AD02220220
AD01BF3120
AE669F9640
9FE64FFA00
ENDCHAR
STARTCHAR Abreve
ENCODING 258
SWIDTH 830 0
DWIDTH 9 0
BBX 9 14 0 -1
BITMAP
0012222200
01B1271200
09F1221100
09F9202000
05F9666400
01C1221300
07913A2120
0D417E1130
3E01000120
8D03222220
AD02220220
AD01BF3120
AE669F9640
9FE64FF900
ENDCHAR
STARTCHAR abreve
ENCODING 259
SWIDTH 830 0
DWIDTH 9 0
BBX 9 14 0 -1
BITMAP
0012222200
01B1271200
09F1221100
09F9202000
05F9666400
01C1221300
07913A2120
0D417E1130
3E01000120
8D03222220
AD02220220
AD01BF3120
AE669F9640
9FE64FF900
ENDCHAR
STARTCHAR Aogonek
ENCODING 260
SWIDTH 830 0
DWIDTH 9 0
BBX 9 13 0 -4
BITMAP
0023222200
01B0221200
07813A2010
0D317E1120
3E01000120
8D03222220
AD02220220
AD01BF3220
AE669F3220
9FE65F1320
00007F5230
00007FFE40
0000045200
ENDCHAR
STARTCHAR aogonek
ENCODING 261
SWIDTH 830 0
DWIDTH 9 0
BBX 9 13 0 -4
BITMAP
0023222200
01B0221200
07813A2010
0D317E1120
3E01000120
8D03222220
AD02220220
AD01BF3220
AE669F3220
9FE65F1320
00007F5230
00007FFE40
0000045200
ENDCHAR
STARTCHAR Cacute
ENCODING 262
SWIDTH 728 0
DWIDTH 8 0
BBX 8 13 0 -1
BITMAP
00025687
008EDC97
06F10005
07C57530
06222433
3E028FD3
8E024510
9E022000
9E022000
9E021222
9F412212
5FE97665
08DFFFA0
ENDCHAR
STARTCHAR cacute
ENCODING 263
SWIDTH 728 0
DWIDTH 8 0
BBX 8 13 0 -1
BITMAP
00025687
008EDC97
06F10005
07C57530
06222433
3E028FD3
8E024510
9E022000
9E022000
9E021222
9F412212
5FE97665
08DFFFA0
ENDCHAR
STARTCHAR Ccircumflex
ENCODING 264
SWIDTH 728 0
DWIDTH 8 0
BBX 8 14 0 -1
BITMAP
00002210
00323222
03B00012
0BD7BB73
0CC42223
08222433
3E028FD3
8E024510
9E022000
9E022000
9E021222
9F412212
5FE97665
08DFFFA0
ENDCHAR
STARTCHAR ccircumflex
ENCODING 265
SWIDTH 728 0
DWIDTH 8 0
BBX 8 14 0 -1
BITMAP
00002210
00323222
03B00012
0BD7BB73
0CC42223
08222433
3E028FD3
8E024510
9E022000
9E022000
9E021222
9F412212
5FE97665
08DFFFA0
ENDCHAR
STARTCHAR Cdotaccent
ENCODING 266
SWIDTH 728 0
DWIDTH 8 0
BBX 8 14 0 -1
BITMAP
00022210
002C0020
009E0120
009E0000
02A42223
1D222433
7E028FD3
9E024510
9E022000
9E022000
9E021222
8F412212
4FE97665
07DFFFA0
ENDCHAR
STARTCHAR cdotaccent
ENCODING 267
SWIDTH 728 0
DWIDTH 8 0
BBX 8 14 0 -1
BITMAP
00022210
002C0020
009E0120
009E0000
02A42223
1D222433
7E028FD3
9E024510
9E022000
9E022000
9E021222
8F412212
4FE97665
07DFFFA0
ENDCHAR
STARTCHAR Ccaron
ENCODING 268
SWIDTH 728 0
DWIDTH 8 0
BBX 8 14 0 -1
BITMAP
00340000
03B23222
0BB02211
0CFA3240
06B42223
05122433
4E028FD3
8E024510
9E022000
9E022000
9E021222
9F412212
5FE97665
08DFFFA0
ENDCHAR
STARTCHAR ccaron
ENCODING 269
SWIDTH 728 0
DWIDTH 8 0
BBX 8 14 0 -1
BITMAP
00340000
03B23222
0BB02211
0CFA3240
06B42223
05122433
4E028FD3
8E024510
9E022000
9E022000
9E021222
9F412212
5FE97665
08DFFFA0
ENDCHAR
STARTCHAR Dcaron
ENCODING 270
SWIDTH 846 0
DWIDTH 9 0
BBX 9 14 0 -1
BITMAP
0016000000
01C3422300
07F1221100
07FC515100
0721111210
5F02222120
8F02361220
8F027F5220
8F025F5220
8F024F5220
8F02382220
8F02222120
8F76667610
7FFFFE8000
ENDCHAR
STARTCHAR dcaron
ENCODING 271
SWIDTH 846 0
DWIDTH 9 0
BBX 9 14 0 -1
BITMAP
0016000000
01C3422300
07F1221100
07FC515100
0721111210
5F02222120
8F02361220
8F027F5220
8F025F5220
8F024F5220
8F02382220
8F02222120
8F76667610
7FFFFE8000
ENDCHAR
STARTCHAR Dcroat
ENCODING 272
SWIDTH 856 0
DWIDTH 9 0
BBX 11 10 -1 -1
BITMAP
004422222100
04F222221200
06F226F62100
068020972110
0B8131972110
1FF225E52110
0BF220002100
06F222221200
06F866677100
05FFFFE91000
ENDCHAR
STARTCHAR dcroat
ENCODING 273
SWIDTH 856 0
DWIDTH 9 0
BBX 11 10 -1 -1
BITMAP
004422222100
04F222221200
06F226F62100
068020972110
0B8131972110
1FF225E52110
0BF220002100
06F222221200
06F866677100
05FFFFE91000
ENDCHAR
STARTCHAR Emacron
ENCODING 274
SWIDTH 754 0
DWIDTH 8 0
BBX 8 13 0 -1
BITMAP
00222221
04912212
0DB00000
0D322223
4F022221
8F027EE6
8F020002
8F032202
8F024850
8F024832
8F022221
8F766666
7FFFFFC2
ENDCHAR
STARTCHAR emacron
ENCODING 275
SWIDTH 754 0
DWIDTH 8 0
BBX 8 13 0 -1
BITMAP
00222221
04912212
0DB00000
0D322223
4F022221
8F027EE6
8F020002
8F032202
8F024850
8F024832
8F022221
8F766666
7FFFFFC2
ENDCHAR
STARTCHAR Ebreve
ENCODING 276
SWIDTH 754 0
DWIDTH 8 0
BBX 8 14 0 -1
BITMAP
00221321
03A13612
0CC12211
0CF61010
09322223
4F022221
8F027EE6
8F020002
8F032202
8F024850
8F024832
8F022221
8F766666
7FFFFFC2
ENDCHAR
STARTCHAR ebreve
ENCODING 277
SWIDTH 754 0
DWIDTH 8 0
BBX 8 14 0 -1
BITMAP
00221321
03A13612
0CC12211
0CF61010
09322223
4F022221
8F027EE6
8F020002
8F032202
8F024850
8F024832
8F022221
8F766666
7FFFFFC2
ENDCHAR
STARTCHAR Edotaccent
ENCODING 278
SWIDTH 754 0
DWIDTH 8 0
BBX 8 14 0 -1
BITMAP
00022210
00380020
00D91020
00EA0100
06322223
5F022221
8F027EE6
8F020002
8F032202
8F024850
8F024832
8F022221
8F766666
7FFFFFC2
ENDCHAR
STARTCHAR edotaccent
ENCODING 279
SWIDTH 754 0
DWIDTH 8 0
BBX 8 14 0 -1
BITMAP
00022210
00380020
00D91020
00EA0100
06322223
5F022221
8F027EE6
8F020002
8F032202
8F024850
8F024832
8F022221
8F766666
7FFFFFC2
ENDCHAR
STARTCHAR Eogonek
ENCODING 280
SWIDTH 754 0
DWIDTH 8 0
BBX 8 13 0 -4
BITMAP
06222223
5F022221
8F027EE6
8F020002
8F032202
8F024850
8F024832
8F022221
8F766226
7FFFF336
0004F823
0004FFF6
00003530
ENDCHAR
STARTCHAR eogonek
ENCODING 281
SWIDTH 754 0
DWIDTH 8 0
BBX 8 13 0 -4
BITMAP
06222223
5F022221
8F027EE6
8F020002
8F032202
8F024850
8F024832
8F022221
8F766226
7FFFF336
0004F823
0004FFF6
00003530
ENDCHAR
STARTCHAR Ecaron
ENCODING 282
SWIDTH 754 0
DWIDTH 8 0
BBX 8 14 0 -1
BITMAP
00340000
03B33222
0CB02211
0CF92240
09322223
4F022221
8F027EE6
8F020002
8F032202
8F024850
8F024832
8F022221
8F766666
7FFFFFC2
ENDCHAR
STARTCHAR ecaron
ENCODING 283
SWIDTH 754 0
DWIDTH 8 0
BBX 8 14 0 -1
BITMAP
00340000
03B33222
0CB02211
0CF92240
09322223
4F022221
8F027EE6
8F020002
8F032202
8F024850
8F024832
8F022221
8F766666
7FFFFFC2
ENDCHAR
STARTCHAR Gcircumflex
ENCODING 284
SWIDTH 808 0
DWIDTH 9 0
BBX 9 14 0 -1
BITMAP
0000121000
0013222300
01B2000200
06F9BEB600
06B2000200
0612243300
3E028FE400
8E02464210
9E023C0020
9E028F0220
9E02130220
9F41222120
5FE9766620
08DFFFF600
ENDCHAR
STARTCHAR gcircumflex
ENCODING 285
SWIDTH 808 0
DWIDTH 9 0
BBX 9 14 0 -1
BITMAP
0000121000
0013222300
01B2000200
06F9BEB600
06B2000200
0612243300
3E028FE400
8E02464210
9E023C0020
9E028F0220
9E02130220
9F41222120
5FE9766620
08DFFFF600
ENDCHAR
STARTCHAR Gbreve
ENCODING 286
SWIDTH 808 0
DWIDTH 9 0
BBX 9 14 0 -1
BITMAP
0012222200
01C1171200
07F1222100
07FA202000
03C4222300
0512243300
3E028FE400
8E02464210
9E023C0020
9E028F0220
9E02130220
9F41222120
5FE9766620
08DFFFF600
ENDCHAR
STARTCHAR gbreve
ENCODING 287
SWIDTH 808 0
DWIDTH 9 0
BBX 9 14 0 -1
BITMAP
0012222200
01C1171200
07F1222100
07FA202000
03C4222300
0512243300
3E028FE400
8E02464210
9E023C0020
9E028F0220
9E02130220
9F41222120
5FE9766620
08DFFFF600
ENDCHAR
STARTCHAR Gdotaccent
ENCODING 288
SWIDTH 808 0
DWIDTH 9 0
BBX 9 14 0 -1
BITMAP
0000322000
000A202000
005F212000
006F300000
0044222300
0622243300
4E028FE400
8E02464210
9E023C0020
9E028F0220
9E02130220
9F41222120
5FE9766620
08DFFFF600
ENDCHAR
STARTCHAR gdotaccent
ENCODING 289
SWIDTH 808 0
DWIDTH 9 0
BBX 9 14 0 -1
BITMAP
0000322000
000A202000
005F212000
006F300000
0044222300
0622243300
4E028FE400
8E02464210
9E023C0020
9E028F0220
9E02130220
9F41222120
5FE9766620
08DFFFF600
ENDCHAR
STARTCHAR Gcommaaccent
ENCODING 290
SWIDTH 808 0
DWIDTH 9 0
BBX 9 14 0 -5
BITMAP
0023443300
0712022300
5E028FE400
9E02464210
9E023C0020
9E028F0220
9F02130220
9F71222120
5FFE979B40
08DF225600
004F212000
006F942000
004F530000
004FC30000
ENDCHAR
STARTCHAR gcommaaccent
ENCODING 291
SWIDTH 808 0
DWIDTH 9 0
BBX 9 14 0 -5
BITMAP
0023443300
0712022300
5E028FE400
9E02464210
9E023C0020
9E028F0220
9F02130220
9F71222120
5FFE979B40
08DF225600
004F212000
006F942000
004F530000
004FC30000
ENDCHAR
STARTCHAR Hcircumflex
ENCODING 292
SWIDTH 859 0
DWIDTH 9 0
BBX 9 14 0 -1
BITMAP
0000121000
0013222200
01C2010200
06FBDFD800
08327E7230
5F023F5220
8F02383220
8F02000220
8F03222320
8F02121220
8F027F5220
8F015F5120
8F767FA650
7FF82FFB10
ENDCHAR
STARTCHAR hcircumflex
ENCODING 293
SWIDTH 859 0
DWIDTH 9 0
BBX 9 14 0 -1
BITMAP
0000121000
0013222200
01C2010200
06FBDFD800
08327E7230
5F023F5220
8F02383220
8F02000220
8F03222320
8F02121220
8F027F5220
8F015F5120
8F767FA650
7FF82FFB10
ENDCHAR
STARTCHAR Hbar
ENCODING 294
SWIDTH 879 0
DWIDTH 10 0
BBX 10 10 0 -1
BITMAP
0542216221
4D12174202
9913222312
EF226E7203
AF22000201
6F23222301
6F22121201
6F216F8101
6F866FB640
5FF80EFC10
ENDCHAR
STARTCHAR hbar
ENCODING 295
SWIDTH 879 0
DWIDTH 10 0
BBX 10 10 0 -1
BITMAP
0542216221
4D12174202
9913222312
EF226E7203
AF22000201
6F23222301
6F22121201
6F216F8101
6F866FB640
5FF80EFC10
ENDCHAR
STARTCHAR Itilde
ENCODING 296
SWIDTH 705 0
DWIDTH 8 0
BBX 8 13 0 -1
BITMAP
00222230
07412220
3F642010
4D222222
6D023212
AE822172
9EF52240
03F52200
03F52200
04932121
4C022212
AE666662
9FFFFE50
ENDCHAR
STARTCHAR itilde
ENCODING 297
SWIDTH 705 0
DWIDTH 8 0
BBX 8 13 0 -1
BITMAP
00222230
07412220
3F642010
4D222222
6D023212
AE822172
9EF52240
03F52200
03F52200
04932121
4C022212
AE666662
9FFFFE50
ENDCHAR
STARTCHAR Imacron
ENCODING 298
SWIDTH 705 0
DWIDTH 8 0
BBX 8 13 0 -1
BITMAP
00322220
09412220
3F500000
4E777774
6D023212
AE822171
9EF52240
03F52200
03F52200
04932121
4C022212
AE666662
9FFFFE50
ENDCHAR
STARTCHAR imacron
ENCODING 299
SWIDTH 705 0
DWIDTH 8 0
BBX 8 13 0 -1
BITMAP
00322220
09412220
3F500000
4E777774
6D023212
AE822171
9EF52240
03F52200
03F52200
04932121
4C022212
AE666662
9FFFFE50
ENDCHAR
STARTCHAR Ibreve
ENCODING 300
SWIDTH 705 0
DWIDTH 8 0
BBX 8 14 0 -1
BITMAP
00321320
09317211
4F422210
4FC30200
1C222222
6D023212
AE822172
9EF52240
03F52200
03F52200
04932121
4C022212
AE666662
9FFFFE50
ENDCHAR
STARTCHAR ibreve
ENCODING 301
SWIDTH 705 0
DWIDTH 8 0
BBX 8 14 0 -1
BITMAP
00321320
09317211
4F422210
4FC30200
1C222222
6D023212
AE822172
9EF52240
03F52200
03F52200
04932121
4C022212
AE666662
9FFFFE50
ENDCHAR
STARTCHAR Iogonek
ENCODING 302
SWIDTH 705 0
DWIDTH 8 0
BBX 8 13 0 -4
BITMAP
06222222
7D023212
AE822171
9EF52240
03F52200
03F52200
04932121
4C022312
AE664234
9FFF9252
000DD322
000CFFB1
00015400
ENDCHAR
STARTCHAR iogonek
ENCODING 303
SWIDTH 705 0
DWIDTH 8 0
BBX 8 13 0 -4
BITMAP
06222222
7D023212
AE822171
9EF52240
03F52200
03F52200
04932121
4C022312
AE664234
9FFF9252
000DD322
000CFFB1
00015400
ENDCHAR
STARTCHAR Idotaccent
ENCODING 304
SWIDTH 705 0
DWIDTH 8 0
BBX 8 14 0 -1
BITMAP
00032200
00750200
02F51200
03F60000
06222222
7D023212
AE822172
9EF52240
03F52200
03F52200
04932121
4C022212
AE666662
9FFFFE50
ENDCHAR
STARTCHAR dotlessi
ENCODING 305
SWIDTH 705 0
DWIDTH 8 0
BBX 8 10 0 -1
BITMAP
06222222
7D023212
AE822172
9EF52240
03F52200
03F52200
04932121
4C022212
AE666662
9FFFFE50
ENDCHAR
STARTCHAR IJ
ENCODING 306
SWIDTH 844 0
DWIDTH 9 0
BBX 9 10 0 -1
BITMAP
0532245230
5F025F4220
8F027F4220
8F017F4220
8F108F4220
8FFDAF4220
3A94681220
2D02222020
7F76667500
7FFFFE7000
ENDCHAR
STARTCHAR ij
ENCODING 307
SWIDTH 844 0
DWIDTH 9 0
BBX 9 10 0 -1
BITMAP
0532245230
5F025F4220
8F027F4220
8F017F4220
8F108F4220
8FFDAF4220
3A94681220
2D02222020
7F76667500
7FFFFE7000
ENDCHAR
STARTCHAR Jcircumflex
ENCODING 308
SWIDTH 788 0
DWIDTH 9 0
BBX 10 14 0 -1
BITMAP
0000012200
0000422221
0009700002
001FBAEC71
000DBA0030
0000D92020
0000E92020
0222E92020
4A00D92020
CB20D92020
CC11212020
BF21221200
7FE9778200
08EFEA2000
ENDCHAR
STARTCHAR jcircumflex
ENCODING 309
SWIDTH 788 0
DWIDTH 9 0
BBX 10 14 0 -1
BITMAP
0000012200
0000422221
0009700002
001FBAEC71
000DBA0030
0000D92020
0000E92020
0222E92020
4A00D92020
CB20D92020
CC11212020
BF21221200
7FE9778200
08EFEA2000
ENDCHAR
STARTCHAR Kcommaaccent
ENCODING 310
SWIDTH 846 0
DWIDTH 9 0
BBX 9 14 0 -5
BITMAP
0633483220
5F02772110
8F02312110
8F03232120
8F02241220
8F027F5220
8F026F5220
8F005F5020
8F77586630
7FFF225A00
006F112000
007F942000
004F530000
004FC30000
ENDCHAR
STARTCHAR kcommaaccent
ENCODING 311
SWIDTH 846 0
DWIDTH 9 0
BBX 9 14 0 -5
BITMAP
0633483220
5F02772110
8F02312110
8F03232120
8F02241220
8F027F5220
8F026F5220
8F005F5020
8F77586630
7FFF225A00
006F112000
007F942000
004F530000
004FC30000
ENDCHAR
STARTCHAR kgreenlandic
ENCODING 312
SWIDTH 846 0
DWIDTH 9 0
BBX 9 10 0 -1
BITMAP
0632243220
5F026A2020
8F02742200
8F02202120
8F03232120
8F02372220
8F027F5220
8F015F5120
8F766FA650
7FF72FFB10
ENDCHAR
STARTCHAR Lacute
ENCODING 313
SWIDTH 795 0
DWIDTH 9 0
BBX 9 13 0 -1
BITMAP
00468A7000
1AEDC96000
7F10016000
7F99232000
6F02200000
8F02200000
8F02212210
8F022C0020
8F027F0220
8F02230220
8F02222120
8F76666620
7FFFFFF500
ENDCHAR
STARTCHAR lacute
ENCODING 314
SWIDTH 795 0
DWIDTH 9 0
BBX 9 13 0 -1
BITMAP
00468A7000
1AEDC96000
7F10016000
7F99232000
6F02200000
8F02200000
8F02212210
8F022C0020
8F027F0220
8F02230220
8F02222120
8F76666620
7FFFFFF500
ENDCHAR
STARTCHAR Lcommaaccent
ENCODING 315
SWIDTH 795 0
DWIDTH 9 0
BBX 9 14 0 -5
BITMAP
0622200000
5F02200000
8F02200000
8F02212210
8F022C0020
8F027F0220
8F02230220
8F02222120
8FCB87AB40
7FFF117500
006F022000
008F841000
006F320000
005FC20000
ENDCHAR
STARTCHAR lcommaaccent
ENCODING 316
SWIDTH 795 0
DWIDTH 9 0
BBX 9 14 0 -5
BITMAP
0622200000
5F02200000
8F02200000
8F02212210
8F022C0020
8F027F0220
8F02230220
8F02222120
8FCB87AB40
7FFF117500
006F022000
008F841000
006F320000
005FC20000
ENDCHAR
STARTCHAR Lcaron
ENCODING 317
SWIDTH 795 0
DWIDTH 9 0
BBX 9 10 0 -1
BITMAP
0632272220
5F027D1120
8F027C4400
8F027F9410
8F024E0020
8F027F0220
8F02230220
8F02222120
8F76666620
7FFFFFF500
ENDCHAR
STARTCHAR lcaron
ENCODING 318
SWIDTH 795 0
DWIDTH 9 0
BBX 9 10 0 -1
BITMAP
0632272220
5F027D1120
8F027C4400
8F027F9410
8F024E0020
8F027F0220
8F02230220
8F02222120
8F76666620
7FFFFFF500
ENDCHAR
STARTCHAR Ldot
ENCODING 319
SWIDTH 795 0
DWIDTH 9 0
BBX 9 10 0 -1
BITMAP
0632200000
5F02222210
8F025D0120
8F027E4320
8F027F9710
8F024E0020
8F02130220
8F02222120
8F76666620
7FFFFFF500
ENDCHAR
STARTCHAR ldot
ENCODING 320
SWIDTH 795 0
DWIDTH 9 0
BBX 9 10 0 -1
BITMAP
0632200000
5F02222210
8F025D0120
8F027E4320
8F027F9710
8F024E0020
8F02130220
8F02222120
8F76666620
7FFFFFF500
ENDCHAR
STARTCHAR Lslash
ENCODING 321
SWIDTH 805 0
DWIDTH 9 0
BBX 10 10 -1 -1
BITMAP
0063220000
05F2220000
06E2212000
0871312221
0F8024D202
1FF226F222
0AF2213022
06F2222212
06F8666662
05FFFFFF70
ENDCHAR
STARTCHAR lslash
ENCODING 322
SWIDTH 805 0
DWIDTH 9 0
BBX 10 10 -1 -1
BITMAP
0063220000
05F2220000
06E2212000
0871312221
0F8024D202
1FF226F222
0AF2213022
06F2222212
06F8666662
05FFFFFF70
ENDCHAR
STARTCHAR Nacute
ENCODING 323
SWIDTH 853 0
DWIDTH 9 0
BBX 9 13 0 -1
BITMAP
0002468800
007EDCA700
04F3000500
0836151130
5F041C5220
8F02224220
8F02020220
8F02411220
8F02871320
8F028F3220
8F018F5120
8F765FA650
7FF62FFA10
ENDCHAR
STARTCHAR nacute
ENCODING 324
SWIDTH 853 0
DWIDTH 9 0
BBX 9 13 0 -1
BITMAP
0002468800
007EDCA700
04F3000500
0836151130
5F041C5220
8F02224220
8F02020220
8F02411220
8F02871320
8F028F3220
8F018F5120
8F765FA650
7FF62FFA10
ENDCHAR
STARTCHAR Ncommaaccent
ENCODING 325
SWIDTH 853 0
DWIDTH 9 0
BBX 9 14 0 -5
BITMAP
0634596330
5F02295220
8F02111220
8F02120220
8F02722220
8F028C1320
8F028F5220
8F006F5020
8F76486650
7FFF225A10
006F212000
006F942000
004F530000
003FD30000
ENDCHAR
STARTCHAR ncommaaccent
ENCODING 326
SWIDTH 853 0
DWIDTH 9 0
BBX 9 14 0 -5
BITMAP
0634596330
5F02295220
8F02111220
8F02120220
8F02722220
8F028C1320
8F028F5220
8F006F5020
8F76486650
7FFF225A10
006F212000
006F942000
004F530000
003FD30000
ENDCHAR
STARTCHAR Ncaron
ENCODING 327
SWIDTH 853 0
DWIDTH 9 0
BBX 9 13 0 -1
BITMAP
0092222200
07F0221100
08FB414000
0832AB6230
5F041C5220
8F02224220
8F02020220
8F02411220
8F02871320
8F028F3220
8F018F5120
8F765FA650
7FF62FFA10
ENDCHAR
STARTCHAR ncaron
ENCODING 328
SWIDTH 853 0
DWIDTH 9 0
BBX 9 13 0 -1
BITMAP
0092222200
07F0221100
08FB414000
0832AB6230
5F041C5220
8F02224220
8F02020220
8F02411220
8F02871320
8F028F3220
8F018F5120
8F765FA650
7FF62FFA10
ENDCHAR
STARTCHAR napostrophe
ENCODING 329
SWIDTH 853 0
DWIDTH 9 0
BBX 9 15 0 -1
BITMAP
0222100000
2B12200000
9D02200000
AF42100000
7F10000000
7F66538660
6F042D5220
8F02224220
8F02020220
8F02411220
8F02871320
8F028F3220
8F018F5120
8F765FA650
7FF62FFA10
ENDCHAR
STARTCHAR Eng
ENCODING 330
SWIDTH 846 0
DWIDTH 9 0
BBX 9 12 0 -3
BITMAP
0022333210
0622000220
4F027F3220
8F028F4220
8F026F4220
8F026F4220
8F026F4220
8F01670220
8F76C31120
7FFBF86610
0005FF9100
0000100000
ENDCHAR
STARTCHAR eng
ENCODING 331
SWIDTH 846 0
DWIDTH 9 0
BBX 9 12 0 -3
BITMAP
0022333210
0622000220
4F027F3220
8F028F4220
8F026F4220
8F026F4220
8F026F4220
8F01670220
8F76C31120
7FFBF86610
0005FF9100
0000100000
ENDCHAR
STARTCHAR Omacron
ENCODING 332
SWIDTH 837 0
DWIDTH 9 0
BBX 9 13 0 -1
BITMAP
0022222200
03E0221200
08F1000200
06E9778410
2E32000230
8E028F3220
9E028F4220
9E026F4220
9E026F4220
9E02250220
8F41222030
4FFA778700
06DFFD7000
ENDCHAR
STARTCHAR omacron
ENCODING 333
SWIDTH 837 0
DWIDTH 9 0
BBX 9 13 0 -1
BITMAP
0022222200
03E0221200
08F1000200
06E9778410
2E32000230
8E028F3220
9E028F4220
9E026F4220
9E026F4220
9E02250220
8F41222030
4FFA778700
06DFFD7000
ENDCHAR
STARTCHAR Obreve
ENCODING 334
SWIDTH 837 0
DWIDTH 9 0
BBX 9 14 0 -1
BITMAP
0022222200
02C1171200
09F1222200
07F9203200
02D8656210
1D22000220
7E028F3220
9E028F4220
9E026F4220
9E026F4220
9E02250220
9F41222030
4FFA778700
06DFFD7000
ENDCHAR
STARTCHAR obreve
ENCODING 335
SWIDTH 837 0
DWIDTH 9 0
BBX 9 14 0 -1
BITMAP
0022222200
02C1171200
09F1222200
07F9203200
02D8656210
1D22000220
7E028F3220
9E028F4220
9E026F4220
9E026F4220
9E02250220
9F41222030
4FFA778700
06DFFD7000
ENDCHAR
STARTCHAR Ohungarumlaut
ENCODING 336
SWIDTH 837 0
DWIDTH 9 0
BBX 9 15 0 -1
BITMAP
0003212210
0076074020
01F32D2210
05F11E1100
08E03C0100
07E9778510
2E32000230
8E028F3220
9E028F4220
9E026F4220
9E026F4220
9E02250220
8F41222030
4FFA778700
06DFFD7000
ENDCHAR
STARTCHAR ohungarumlaut
ENCODING 337
SWIDTH 837 0
DWIDTH 9 0
BBX 9 15 0 -1
BITMAP
0003212210
0076074020
01F32D2210
05F11E1100
08E03C0100
07E9778510
2E32000230
8E028F3220
9E028F4220
9E026F4220
9E026F4220
9E02250220
8F41222030
4FFA778700
06DFFD7000
ENDCHAR
STARTCHAR OE
ENCODING 338
SWIDTH 1115 0
DWIDTH 12 0
BBX 12 10 0 -1
BITMAP
002222222223
082122232222
5E028F225EE6
9E029F220011
9E029F232102
9E029F223850
9E0248123832
9F4122222212
5FE976666666
08EFFFFFFFC1
ENDCHAR
STARTCHAR oe
ENCODING 339
SWIDTH 1115 0
DWIDTH 12 0
BBX 12 10 0 -1
BITMAP
002222222223
082122232222
5E028F225EE6
9E029F220011
9E029F232102
9E029F223850
9E0248123832
9F4122222212
5FE976666666
08EFFFFFFFC1
ENDCHAR
STARTCHAR Racute
ENCODING 340
SWIDTH 843 0
DWIDTH 9 0
BBX 10 13 0 -1
BITMAP
000468A600
01BEDB9500
09E0001500
091A974100
4F02222020
8F027B2020
8F02462120
8F03223120
8F02120211
8F027F7201
8F014F7101
8F764FB650
7FF71EFC10
ENDCHAR
STARTCHAR racute
ENCODING 341
SWIDTH 843 0
DWIDTH 9 0
BBX 10 13 0 -1
BITMAP
000468A600
01BEDB9500
09E0001500
091A974100
4F02222020
8F027B2020
8F02462120
8F03223120
8F02120211
8F027F7201
8F014F7101
8F764FB650
7FF71EFC10
ENDCHAR
STARTCHAR Rcommaaccent
ENCODING 342
SWIDTH 843 0
DWIDTH 9 0
BBX 10 14 0 -5
BITMAP
0634443200
5F02002020
8F027B2020
8F02462120
8F03223120
8F02120211
8F027F7201
8F014F7101
8F77687650
7FFF324C10
005F303000
005FA43000
003F630000
003FD40000
ENDCHAR
STARTCHAR rcommaaccent
ENCODING 343
SWIDTH 843 0
DWIDTH 9 0
BBX 10 14 0 -5
BITMAP
0634443200
5F02002020
8F027B2020
8F02462120
8F03223120
8F02120211
8F027F7201
8F014F7101
8F77687650
7FFF324C10
005F303000
005FA43000
003F630000
003FD40000
ENDCHAR
STARTCHAR Rcaron
ENCODING 344
SWIDTH 843 0
DWIDTH 9 0
BBX 10 14 0 -1
BITMAP
0016000100
01C2422300
07F1221200
07FC416200
0665554200
3E02222020
7F027B2020
8F02462120
8F03223120
8F02120211
8F027F7201
8F014F7101
8F764FB650
7FF71EFC10
ENDCHAR
STARTCHAR rcaron
ENCODING 345
SWIDTH 843 0
DWIDTH 9 0
BBX 10 14 0 -1
BITMAP
0016000100
01C2422300
07F1221200
07FC416200
0665554200
3E02222020
7F027B2020
8F02462120
8F03223120
8F02120211
8F027F7201
8F014F7101
8F764FB650
7FF71EFC10
ENDCHAR
STARTCHAR Sacute
ENCODING 346
SWIDTH 750 0
DWIDTH 8 0
BBX 9 13 0 -1
BITMAP
0013579300
02DDDB8400
0DA0003200
0D67642200
0902221200
6C027ED300
AD02001300
AF41221100
8FFDB42010
0A21102110
7C02221100
BE66666100
AFFFEA1000
ENDCHAR
STARTCHAR sacute
ENCODING 347
SWIDTH 750 0
DWIDTH 8 0
BBX 9 13 0 -1
BITMAP
0013579300
02DDDB8400
0DA0003200
0D67642200
0902221200
6C027ED300
AD02001300
AF41221100
8FFDB42010
0A21102110
7C02221100
BE66666100
AFFFEA1000
ENDCHAR
STARTCHAR Scircumflex
ENCODING 348
SWIDTH 750 0
DWIDTH 8 0
BBX 9 14 0 -1
BITMAP
0001220000
0032222100
0681000200
0FB8CA6200
0FA3222200
0A02221200
6C027ED300
AD02001300
AF41221100
8FFDB42010
0A21102110
7C02221100
BE66666100
AFFFEA1000
ENDCHAR
STARTCHAR scircumflex
ENCODING 349
SWIDTH 750 0
DWIDTH 8 0
BBX 9 14 0 -1
BITMAP
0001220000
0032222100
0681000200
0FB8CA6200
0FA3222200
0A02221200
6C027ED300
AD02001300
AF41221100
8FFDB42010
0A21102110
7C02221100
BE66666100
AFFFEA1000
ENDCHAR
STARTCHAR Scedilla
ENCODING 350
SWIDTH 750 0
DWIDTH 8 0
BBX 9 12 0 -3
BITMAP
0032222200
0A02221200
7C027ED300
AD02001300
AF41221200
8FFDB42010
0911102110
7C02221000
BE63214000
AFF6230000
02FFA00000
0144000000
ENDCHAR
STARTCHAR scedilla
ENCODING 351
SWIDTH 750 0
DWIDTH 8 0
BBX 9 12 0 -3
BITMAP
0032222200
0A02221200
7C027ED300
AD02001300
AF41221200
8FFDB42010
0911102110
7C02221000
BE63214000
AFF6230000
02FFA00000
0144000000
ENDCHAR
STARTCHAR Scaron
ENCODING 352
SWIDTH 750 0
DWIDTH 8 0
BBX 9 14 0 -1
BITMAP
0043000000
04A3322200
0DA1220100
0DF9234000
0793222200
0702221200
7C027ED300
AD02001300
AF41221100
8FFDB42010
0A21102110
7C02221100
BE66666100
AFFFEA1000
ENDCHAR
STARTCHAR scaron
ENCODING 353
SWIDTH 750 0
DWIDTH 8 0
BBX 9 14 0 -1
BITMAP
0043000000
04A3322200
0DA1220100
0DF9234000
0793222200
0702221200
7C027ED300
AD02001300
AF41221100
8FFDB42010
0A21102110
7C02221100
BE66666100
AFFFEA1000
ENDCHAR
STARTCHAR Tcommaaccent
ENCODING 354
SWIDTH 756 0
DWIDTH 8 0
BBX 9 14 0 -5
BITMAP
2734544220
DA21202220
EFF920D900
45E9204000
00E9202000
00E9202000
00E9202000
00E9002000
00ED771000
00D9112000
00C9022000
00ED621000
00CB210000
00BE700000
ENDCHAR
STARTCHAR tcommaaccent
ENCODING 355
SWIDTH 756 0
DWIDTH 8 0
BBX 9 14 0 -5
BITMAP
2734544220
DA21202220
EFF920D900
45E9204000
00E9202000
00E9202000
00E9202000
00E9002000
00ED771000
00D9112000
00C9022000
00ED621000
00CB210000
00BE700000
ENDCHAR
STARTCHAR Tcaron
ENCODING 356
SWIDTH 756 0
DWIDTH 8 0
BBX 9 14 0 -1
BITMAP
0043000000
0593322200
0E91220100
0FF8233000
1822222220
CA33324220
EFF920D900
45E9204000
00E9202000
00E9202000
00E9202000
00E9102000
00EC651000
00DFE30000
ENDCHAR
STARTCHAR tcaron
ENCODING 357
SWIDTH 756 0
DWIDTH 8 0
BBX 9 14 0 -1
BITMAP
0043000000
0593322200
0E91220100
0FF8233000
1822222220
CA33324220
EFF920D900
45E9204000
00E9202000
00E9202000
00E9202000
00E9102000
00EC651000
00DFE30000
ENDCHAR
STARTCHAR Tbar
ENCODING 358
SWIDTH 756 0
DWIDTH 8 0
BBX 9 10 0 -1
BITMAP
1622222220
D912322020
EFF920CA10
67B5206100
0A51321200
3F93204300
3FF9206000
03E9102000
00EC651000
00DFE30000
ENDCHAR
STARTCHAR tbar
ENCODING 359
SWIDTH 756 0
DWIDTH 8 0
BBX 9 10 0 -1
BITMAP
1622222220
D912322020
EFF920CA10
67B5206100
0A51321200
3F93204300
3FF9206000
03E9102000
00EC651000
00DFE30000
ENDCHAR
STARTCHAR Utilde
ENCODING 360
SWIDTH 846 0
DWIDTH 9 0
BBX 9 14 0 -1
BITMAP
0003210200
0071231200
04F1001200
07F4531100
09229F6230
6F014F4120
8F025F4220
8F025F4220
8F025F4220
8F025F4220
8F02151220
8F51222030
4FFA778600
06CFFD7000
ENDCHAR
STARTCHAR utilde
ENCODING 361
SWIDTH 846 0
DWIDTH 9 0
BBX 9 14 0 -1
BITMAP
0003210200
0071231200
04F1001200
07F4531100
09229F6230
6F014F4120
8F025F4220
8F025F4220
8F025F4220
8F025F4220
8F02151220
8F51222030
4FFA778600
06CFFD7000
ENDCHAR
STARTCHAR Umacron
ENCODING 362
SWIDTH 846 0
DWIDTH 9 0
BBX 9 13 0 -1
BITMAP
0012222200
00B1221200
06F2000000
0787CFA770
3D015F4120
8F025F4220
8F025F4220
8F025F4220
8F025F4220
8F02261220
8F51222020
4FFA778600
06DFFD7000
ENDCHAR
STARTCHAR umacron
ENCODING 363
SWIDTH 846 0
DWIDTH 9 0
BBX 9 13 0 -1
BITMAP
0012222200
00B1221200
06F2000000
0787CFA770
3D015F4120
8F025F4220
8F025F4220
8F025F4220
8F025F4220
8F02261220
8F51222020
4FFA778600
06DFFD7000
ENDCHAR
STARTCHAR Ubreve
ENCODING 364
SWIDTH 846 0
DWIDTH 9 0
BBX 9 14 0 -1
BITMAP
0012222200
01C1171200
08F1221100
08FA202000
07229F6230
5E015E4120
8F025F4220
8F025F4220
8F025F4220
8F025F4220
8F02261220
8F51222030
4FFA778600
06CFFD7000
ENDCHAR
STARTCHAR ubreve
ENCODING 365
SWIDTH 846 0
DWIDTH 9 0
BBX 9 14 0 -1
BITMAP
0012222200
01C1171200
08F1221100
08FA202000
07229F6230
5E015E4120
8F025F4220
8F025F4220
8F025F4220
8F025F4220
8F02261220
8F51222030
4FFA778600
06CFFD7000
ENDCHAR
STARTCHAR Uring
ENCODING 366
SWIDTH 846 0
DWIDTH 9 0
BBX 9 16 0 -1
BITMAP
0001222000
0033232300
02E24F2200
07F2142200
08F1221100
08F9202000
07229F6230
6F014E4120
8F025F4220
8F025F4220
8F025F4220
8F025F4220
8F024E3220
8F51222030
4FFA778600
06CFFD7000
ENDCHAR
STARTCHAR uring
ENCODING 367
SWIDTH 846 0
DWIDTH 9 0
BBX 9 16 0 -1
BITMAP
0001222000
0033232300
02E24F2200
07F2142200
08F1221100
08F9202000
07229F6230
6F014E4120
8F025F4220
8F025F4220
8F025F4220
8F025F4220
8F024E3220
8F51222030
4FFA778600
06CFFD7000
ENDCHAR
STARTCHAR Uhungarumlaut
ENCODING 368
SWIDTH 846 0
DWIDTH 9 0
BBX 9 15 0 -1
BITMAP
0002212210
0037065010
00D52B3210
02F21E1100
04F12E0000
0787CFA770
3E015E4120
8F025F4220
8F025F4220
8F025F4220
8F025F4220
8F02261220
8F51222020
4FFA778600
06DFFD7000
ENDCHAR
STARTCHAR uhungarumlaut
ENCODING 369
SWIDTH 846 0
DWIDTH 9 0
BBX 9 15 0 -1
BITMAP
0002212210
0037065010
00D52B3210
02F21E1100
04F12E0000
0787CFA770
3E015E4120
8F025F4220
8F025F4220
8F025F4220
8F025F4220
8F02261220
8F51222020
4FFA778600
06DFFD7000
ENDCHAR
STARTCHAR Uogonek
ENCODING 370
SWIDTH 846 0
DWIDTH 9 0
BBX 9 13 0 -4
BITMAP
0622235230
6F013E4120
8F025F4220
8F025F4220
8F025F4220
8F025F4220
8F02151220
8F41233120
4FF9225710
08EF432200
003F922100
003FFF5000
0003530000
ENDCHAR
STARTCHAR uogonek
ENCODING 371
SWIDTH 846 0
DWIDTH 9 0
BBX 9 13 0 -4
BITMAP
0622235230
6F013E4120
8F025F4220
8F025F4220
8F025F4220
8F025F4220
8F02151220
8F41233120
4FF9225710
08EF432200
003F922100
003FFF5000
0003530000
ENDCHAR
STARTCHAR Wcircumflex
ENCODING 372
SWIDTH 931 0
DWIDTH 10 0
BBX 10 14 0 -1
BITMAP
0000122000
0003222110
0078010020
00FCCFEA20
08227BF723
7E0222F522
9E0224C522
9E02602522
9E02221222
9E02112022
9F22262122
7F711B6112
3FD66FC650
0CFD2DFC10
ENDCHAR
STARTCHAR wcircumflex
ENCODING 373
SWIDTH 931 0
DWIDTH 10 0
BBX 10 14 0 -1
BITMAP
0000122000
0003222110
0078010020
00FCCFEA20
08227BF723
7E0222F522
9E0224C522
9E02602522
9E02221222
9E02112022
9F22262122
7F711B6112
3FD66FC650
0CFD2DFC10
ENDCHAR
STARTCHAR Ycircumflex
ENCODING 374
SWIDTH 805 0
DWIDTH 9 0
BBX 9 14 0 -1
BITMAP
0000221000
0032222100
03C0000200
0AE9DEA400
0922BF4220
9C116F1120
CC118F1220
CD02591120
BF51102110
6FE2130200
0AFA022000
01ED012000
00AE662000
009FF60000
ENDCHAR
STARTCHAR ycircumflex
ENCODING 375
SWIDTH 805 0
DWIDTH 9 0
BBX 9 14 0 -1
BITMAP
0000221000
0032222100
03C0000200
0AE9DEA400
0922BF4220
9C116F1120
CC118F1220
CD02591120
BF51102110
6FE2130200
0AFA022000
01ED012000
00AE662000
009FF60000
ENDCHAR
STARTCHAR Ydieresis
ENCODING 376
SWIDTH 805 0
DWIDTH 9 0
BBX 9 13 0 -1
BITMAP
0032232200
0781361200
0F90370000
0D77EF9750
8C008F1120
CC118F1220
CC026B0110
BF41112000
6FD1130100
0BFA022000
01ED012000
00AE662000
009FF60000
ENDCHAR
STARTCHAR Zacute
ENCODING 377
SWIDTH 760 0
DWIDTH 8 0
BBX 9 13 0 -1
BITMAP
0003579300
02CDDB8400
0CB0002300
0D18643200
7F24322200
8FFF402200
2578020200
0090202000
0731111000
3B02032200
BC02222020
CE66666610
AFFFFFD200
ENDCHAR
STARTCHAR zacute
ENCODING 378
SWIDTH 760 0
DWIDTH 8 0
BBX 9 13 0 -1
BITMAP
0003579300
02CDDB8400
0CB0002300
0D18643200
7F24322200
8FFF402200
2578020200
0090202000
0731111000
3B02032200
BC02222020
CE66666610
AFFFFFD200
ENDCHAR
STARTCHAR Zdotaccent
ENCODING 379
SWIDTH 760 0
DWIDTH 8 0
BBX 9 14 0 -1
BITMAP
0002221000
0039002000
00CA102000
00DA000000
0722222300
7F24322200
8FFF402200
2578020200
0090202000
0731111000
3B02032200
BC02222020
CE66666610
AFFFFFD200
ENDCHAR
STARTCHAR zdotaccent
ENCODING 380
SWIDTH 760 0
DWIDTH 8 0
BBX 9 14 0 -1
BITMAP
0002221000
0039002000
00CA102000
00DA000000
0722222300
7F24322200
8FFF402200
2578020200
0090202000
0731111000
3B02032200
BC02222020
CE66666610
AFFFFFD200
ENDCHAR
STARTCHAR Zcaron
ENCODING 381
SWIDTH 760 0
DWIDTH 8 0
BBX 9 14 0 -1
BITMAP
0043000000
0593322200
0E91220100
0EF8233000
0B22222300
6F24322200
8FFF402200
2578020200
0090202000
0731111000
3B02032200
BC02222020
CE66666610
AFFFFFD200
ENDCHAR
STARTCHAR zcaron
ENCODING 382
SWIDTH 760 0
DWIDTH 8 0
BBX 9 14 0 -1
BITMAP
0043000000
0593322200
0E91220100
0EF8233000
0B22222300
6F24322200
8FFF402200
2578020200
0090202000
0731111000
3B02032200
BC02222020
CE66666610
AFFFFFD200
ENDCHAR
STARTCHAR Schwa
ENCODING 399
SWIDTH 815 0
DWIDTH 9 0
BBX 9 10 0 -1
BITMAP
0063445210
0AB0000220
0CFEEE2220
0A22220220
6D03222220
AD029E2220
AD02010120
AF41221020
7FFA778500
09DFFC5000
ENDCHAR
STARTCHAR florin
ENCODING 402
SWIDTH 674 0
DWIDTH 7 0
BBX 8 10 0 -1
BITMAP
00023221
00561202
02F32151
07812341
8C024202
CFE225E1
6C002520
9C021400
CE677000
AFD70000
ENDCHAR
STARTCHAR Ohorn
ENCODING 416
SWIDTH 847 0
DWIDTH 9 0
BBX 10 12 0 -1
BITMAP
0000000221
0000002502
0022224321
0711000320
5E028F3220
9E028F4220
9E026F4220
9E026F4220
9E02250220
9F41222020
7FFA778500
08DFFC6000
ENDCHAR
STARTCHAR ohorn
ENCODING 417
SWIDTH 847 0
DWIDTH 9 0
BBX 10 12 0 -1
BITMAP
0000000221
0000002502
0022224321
0711000320
5E028F3220
9E028F4220
9E026F4220
9E026F4220
9E02250220
9F41222020
7FFA778500
08DFFC6000
ENDCHAR
STARTCHAR Uhorn
ENCODING 431
SWIDTH 856 0
DWIDTH 9 0
BBX 10 12 0 -1
BITMAP
0000000221
0000005702
0622246022
6F013E4221
8F025F4220
8F025F4220
8F025F4220
8F025F4220
8F02151220
8F51222030
5FFA778600
07DFFD7000
ENDCHAR
STARTCHAR uhorn
ENCODING 432
SWIDTH 856 0
DWIDTH 9 0
BBX 10 12 0 -1
BITMAP
0000000221
0000005702
0622246022
6F013E4221
8F025F4220
8F025F4220
8F025F4220
8F025F4220
8F02151220
8F51222030
5FFA778600
07DFFD7000
ENDCHAR
STARTCHAR Acaron
ENCODING 461
SWIDTH 830 0
DWIDTH 9 0
BBX 9 14 0 -1
BITMAP
0015000000
01C2422200
08F0221100
08FB415100
04D5222200
01B0221200
07813A2010
0D317E1120
3E01000120
8D03222220
AD02220220
AD01BF3120
AE669F9640
9FE64FF900
ENDCHAR
STARTCHAR acaron
ENCODING 462
SWIDTH 830 0
DWIDTH 9 0
BBX 9 14 0 -1
BITMAP
0015000000
01C2422200
08F0221100
08FB415100
04D5222200
01B0221200
07813A2010
0D317E1120
3E01000120
8D03222220
AD02220220
AD01BF3120
AE669F9640
9FE64FF900
ENDCHAR
STARTCHAR Icaron
ENCODING 463
SWIDTH 705 0
DWIDTH 8 0
BBX 8 14 0 -1
BITMAP
00610010
09542230
3F412210
3FD61520
1C222222
7D023212
AE822172
9EF52240
03F52200
03F52200
04932121
4C022212
AE666662
9FFFFE50
ENDCHAR
STARTCHAR icaron
ENCODING 464
SWIDTH 705 0
DWIDTH 8 0
BBX 8 14 0 -1
BITMAP
00610010
09542230
3F412210
3FD61520
1C222222
7D023212
AE822172
9EF52240
03F52200
03F52200
04932121
4C022212
AE666662
9FFFFE50
ENDCHAR
STARTCHAR Ocaron
ENCODING 465
SWIDTH 837 0
DWIDTH 9 0
BBX 9 14 0 -1
BITMAP
0026000000
02D2422200
08F0221100
07FC416100
01A4223110
1D12000220
7E028F3220
9E028F4220
9E026F4220
9E026F4220
9E02250220
9F41222030
4FFA778600
06DFFD7000
ENDCHAR
STARTCHAR ocaron
ENCODING 466
SWIDTH 837 0
DWIDTH 9 0
BBX 9 14 0 -1
BITMAP
0026000000
02D2422200
08F0221100
07FC416100
01A4223110
1D12000220
7E028F3220
9E028F4220
9E026F4220
9E026F4220
9E02250220
9F41222030
4FFA778600
06DFFD7000
ENDCHAR
STARTCHAR Ucaron
ENCODING 467
SWIDTH 846 0
DWIDTH 9 0
BBX 9 13 0 -1
BITMAP
0082222300
06F1221100
07FC515100
08228C6230
6F013E4120
8F025F4220
8F025F4220
8F025F4220
8F025F4220
8F02151220
8F51222030
4FFA778600
06CFFD7000
ENDCHAR
STARTCHAR ucaron
ENCODING 468
SWIDTH 846 0
DWIDTH 9 0
BBX 9 13 0 -1
BITMAP
0082222300
06F1221100
07FC515100
08228C6230
6F013E4120
8F025F4220
8F025F4220
8F025F4220
8F025F4220
8F02151220
8F51222030
4FFA778600
06CFFD7000
ENDCHAR
STARTCHAR Udieresismacron
ENCODING 469
SWIDTH 846 0
DWIDTH 9 0
BBX 9 16 0 -1
BITMAP
0012222200
01C0221200
07F7696500
07C0090200
08C1091200
0BD00A0000
0C87CFA770
7F015F4120
8F025F4220
8F025F4220
8F025F4220
8F025F4220
8F02261220
8F51222020
4FFA778600
06CFFD7000
ENDCHAR
STARTCHAR udieresismacron
ENCODING 470
SWIDTH 846 0
DWIDTH 9 0
BBX 9 16 0 -1
BITMAP
0012222200
01C0221200
07F7696500
07C0090200
08C1091200
0BD00A0000
0C87CFA770
7F015F4120
8F025F4220
8F025F4220
8F025F4220
8F025F4220
8F02261220
8F51222020
4FFA778600
06CFFD7000
ENDCHAR
STARTCHAR Udieresisacute
ENCODING 471
SWIDTH 846 0
DWIDTH 9 0
BBX 9 17 0 -1
BITMAP
0000002000
00009FE000
000BFFD000
0028418200
03B076A200
0BC1171200
0BD00A0000
3E87CFA770
8F015F4120
8F025F4220
8F025F4220
8F025F4220
8F025F4220
8F02261220
7F51222020
3FFA778600
05CFFD7000
ENDCHAR
STARTCHAR udieresisacute
ENCODING 472
SWIDTH 846 0
DWIDTH 9 0
BBX 9 17 0 -1
BITMAP
0000002000
00009FE000
000BFFD000
0028418200
03B076A200
0BC1171200
0BD00A0000
3E87CFA770
8F015F4120
8F025F4220
8F025F4220
8F025F4220
8F025F4220
8F02261220
7F51222020
3FFA778600
05CFFD7000
ENDCHAR
STARTCHAR Udieresiscaron
ENCODING 473
SWIDTH 846 0
DWIDTH 9 0
BBX 9 17 0 -1
BITMAP
0017100000
01C2422200
07F5222300
07E87A7200
02B0090200
09C1091200
0BD00A0000
1D87CFA770
8F015F4120
8F025F4220
8F025F4220
8F025F4220
8F025F4220
8F02261220
8F51222020
3FFA778600
06CFFD7000
ENDCHAR
STARTCHAR udieresiscaron
ENCODING 474
SWIDTH 846 0
DWIDTH 9 0
BBX 9 17 0 -1
BITMAP
0017100000
01C2422200
07F5222300
07E87A7200
02B0090200
09C1091200
0BD00A0000
1D87CFA770
8F015F4120
8F025F4220
8F025F4220
8F025F4220
8F025F4220
8F02261220
8F51222020
3FFA778600
06CFFD7000
ENDCHAR
STARTCHAR Udieresisgrave
ENCODING 475
SWIDTH 846 0
DWIDTH 9 0
BBX 9 17 0 -1
BITMAP
0000200000
0009FF5000
006FFF7000
0068410200
03B0C66200
0BC1070200
0BD00A0000
3E87CFA770
8F015F4120
8F025F4220
8F025F4220
8F025F4220
8F025F4220
8F02261220
7F51222020
3FFA778600
05CFFD7000
ENDCHAR
STARTCHAR udieresisgrave
ENCODING 476
SWIDTH 846 0
DWIDTH 9 0
BBX 9 17 0 -1
BITMAP
0000200000
0009FF5000
006FFF7000
0068410200
03B0C66200
0BC1070200
0BD00A0000
3E87CFA770
8F015F4120
8F025F4220
8F025F4220
8F025F4220
8F025F4220
8F02261220
7F51222020
3FFA778600
05CFFD7000
ENDCHAR
STARTCHAR Gcaron
ENCODING 486
SWIDTH 808 0
DWIDTH 9 0
BBX 9 14 0 -1
BITMAP
0025000000
02C2422200
0AD0221100
0AFA325000
05B4222300
0512243300
4E028FE400
8E02464210
9E023C0020
9E028F0220
9E02130220
9F41222120
5FE9766620
08DFFFF600
ENDCHAR
STARTCHAR gcaron
ENCODING 487
SWIDTH 808 0
DWIDTH 9 0
BBX 9 14 0 -1
BITMAP
0025000000
02C2422200
0AD0221100
0AFA325000
05B4222300
0512243300
4E028FE400
8E02464210
9E023C0020
9E028F0220
9E02130220
9F41222120
5FE9766620
08DFFFF600
ENDCHAR
STARTCHAR Scommaaccent
ENCODING 536
SWIDTH 750 0
DWIDTH 8 0
BBX 9 14 0 -5
BITMAP
0024443200
1A02111300
8C026CC200
AD02200200
AF50022100
7FFEC42010
0900002100
8D02221200
BFBB778000
AFFA112000
00BA022000
00DE721000
00BD200000
00AE800000
ENDCHAR
STARTCHAR scommaaccent
ENCODING 537
SWIDTH 750 0
DWIDTH 8 0
BBX 9 14 0 -5
BITMAP
0024443200
1A02111300
8C026CC200
AD02200200
AF50022100
7FFEC42010
0900002100
8D02221200
BFBB778000
AFFA112000
00BA022000
00DE721000
00BD200000
00AE800000
ENDCHAR
STARTCHAR uni021A
ENCODING 538
SWIDTH 756 0
DWIDTH 8 0
BBX 9 14 0 -5
BITMAP
2734544220
DA21202220
EFF920D900
45E9204000
00E9202000
00E9202000
00E9202000
00E9002000
00ED771000
00D9112000
00C9022000
00ED621000
00CB210000
00BE700000
ENDCHAR
STARTCHAR uni021B
ENCODING 539
SWIDTH 756 0
DWIDTH 8 0
BBX 9 14 0 -5
BITMAP
2734544220
DA21202220
EFF920D900
45E9204000
00E9202000
00E9202000
00E9202000
00E9002000
00ED771000
00D9112000
00C9022000
00ED621000
00CB210000
00BE700000
ENDCHAR
STARTCHAR dotlessj
ENCODING 567
SWIDTH 788 0
DWIDTH 9 0
BBX 9 10 0 -1
BITMAP
0000172210
0000D92020
0000E92020
0222E92020
4A00D92020
CB20D92020
CC11212020
BF21221200
7FE9778200
08EFEA2000
ENDCHAR
STARTCHAR ascript
ENCODING 593
SWIDTH 846 0
DWIDTH 9 0
BBX 9 10 0 -1
BITMAP
0023333210
0622000220
4E028F2220
9E028F3220
9E026F3220
9E026F3220
9E02131220
9F41222220
6FE9766640
09EFFFFA00
ENDCHAR
STARTCHAR schwa
ENCODING 601
SWIDTH 815 0
DWIDTH 9 0
BBX 9 10 0 -1
BITMAP
0063445210
0AB0000220
0CFEEE2220
0A22220220
6D03222220
AD029E2220
AD02010120
AF41221020
7FFA778500
09DFFC5000
ENDCHAR
STARTCHAR gscript
ENCODING 609
SWIDTH 815 0
DWIDTH 9 0
BBX 9 12 0 -3
BITMAP
0022222200
0711222020
6C026A0220
AC029F2220
BE02000220
AF94211220
5FFFFF1220
04A0000220
09B1222020
0CC2223400
0CFFFFA100
0355420000
ENDCHAR
STARTCHAR commaturnedmod
ENCODING 699
SWIDTH 600 0
DWIDTH 7 0
BBX 5 6 1 3
BITMAP
023320
3A2620
BB2120
CC2220
CFF900
344000
ENDCHAR
STARTCHAR apostrophemod
ENCODING 700
SWIDTH 600 0
DWIDTH 7 0
BBX 5 6 1 4
BITMAP
022210
3A1120
BB0220
CE7200
AD2000
9E9000
ENDCHAR
STARTCHAR ringhalfright
ENCODING 702
SWIDTH 412 0
DWIDTH 5 0
BBX 5 6 0 3
BITMAP
163310
BA0220
EFA220
6B4420
DFE500
452000
ENDCHAR
STARTCHAR ringhalfleft
ENCODING 703
SWIDTH 412 0
DWIDTH 5 0
BBX 5 6 0 3
BITMAP
033320
792620
D92310
ED4320
CFFB10
144000
ENDCHAR
STARTCHAR circumflex
ENCODING 710
SWIDTH 600 0
DWIDTH 7 0
BBX 7 5 0 7
BITMAP
00122100
05122110
8B155120
CFFFFD20
54037100
ENDCHAR
STARTCHAR caron
ENCODING 711
SWIDTH 600 0
DWIDTH 7 0
BBX 7 5 0 7
BITMAP
07122220
AB122120
CF922610
8FFFB100
02730000
ENDCHAR
STARTCHAR verticallinemod
ENCODING 712
SWIDTH 456 0
DWIDTH 5 0
BBX 5 7 0 2
BITMAP
072220
6E0220
9E0220
9E0120
9F2220
9FFB10
255000
ENDCHAR
STARTCHAR firsttonechinese
ENCODING 713
SWIDTH 600 0
DWIDTH 7 0
BBX 7 5 0 7
BITMAP
02222210
3A000020
CB122110
CFFFF900
57776000
ENDCHAR
STARTCHAR secondtonechinese
ENCODING 714
SWIDTH 600 0
DWIDTH 7 0
BBX 7 4 0 7
BITMAP
01222210
28022120
CC579810
CECA8100
ENDCHAR
STARTCHAR fourthtonechinese
ENCODING 715
SWIDTH 600 0
DWIDTH 7 0
BBX 7 4 0 7
BITMAP
04222200
8B022120
CEB97520
6ACEF600
ENDCHAR
STARTCHAR verticallinelowmod
ENCODING 716
SWIDTH 456 0
DWIDTH 5 0
BBX 5 7 0 -3
BITMAP
072220
6E0220
9E0220
9E0120
9F2220
9FFB10
255000
ENDCHAR
STARTCHAR breve
ENCODING 728
SWIDTH 600 0
DWIDTH 7 0
BBX 7 5 0 7
BITMAP
02213210
6A135120
DE522420
BFFFE300
15761000
ENDCHAR
STARTCHAR dotaccent
ENCODING 729
SWIDTH 600 0
DWIDTH 7 0
BBX 5 5 1 7
BITMAP
022210
4B0120
BC0020
BFFA00
476000
ENDCHAR
STARTCHAR ring
ENCODING 730
SWIDTH 600 0
DWIDTH 7 0
BBX 7 7 0 7
BITMAP
00222200
06133120
9929A220
DA222220
EE522420
AFFFE300
15761000
ENDCHAR
STARTCHAR ogonek
ENCODING 731
SWIDTH 600 0
DWIDTH 7 0
BBX 5 6 1 -4
BITMAP
023300
2C2200
9C2320
BE4230
AFFC20
145100
ENDCHAR
STARTCHAR tilde
ENCODING 732
SWIDTH 600 0
DWIDTH 7 0
BBX 7 5 0 7
BITMAP
01221210
29122120
BB331120
CFFFF700
44574000
ENDCHAR
STARTCHAR hungarumlaut
ENCODING 733
SWIDTH 600 0
DWIDTH 7 0
BBX 8 6 -1 7
BITMAP
00222222
03A04812
0B729522
0E50D311
3FFDFF60
17527400
ENDCHAR
STARTCHAR gravecmb
ENCODING 768
SWIDTH 100 0
DWIDTH 1 0
BBX 7 4 -3 7
BITMAP
03222210
4E022120
9FB97530
49BDF900
ENDCHAR
STARTCHAR acutecmb
ENCODING 769
SWIDTH 100 0
DWIDTH 1 0
BBX 7 4 -3 7
BITMAP
00222220
1A022120
8F568920
8EDB9200
ENDCHAR
STARTCHAR circumflexcmb
ENCODING 770
SWIDTH 100 0
DWIDTH 1 0
BBX 7 5 -3 7
BITMAP
00022100
04122120
5E046220
9FFFFE40
45127300
ENDCHAR
STARTCHAR tildecmb
ENCODING 771
SWIDTH 100 0
DWIDTH 1 0
BBX 7 5 -3 7
BITMAP
00222220
0A022120
7F242120
8FFFFA00
34476000
ENDCHAR
STARTCHAR uni0304
ENCODING 772
SWIDTH 600 0
DWIDTH 7 0
BBX 7 5 0 7
BITMAP
02222210
3A000020
CB122110
CFFFF900
57776000
ENDCHAR
STARTCHAR brevecmb
ENCODING 774
SWIDTH 100 0
DWIDTH 1 0
BBX 7 5 -3 7
BITMAP
02222220
3C127120
AF732430
7FFFF600
04772000
ENDCHAR
STARTCHAR dotaccentcmb
ENCODING 775
SWIDTH 100 0
DWIDTH 1 0
BBX 5 5 -2 7
BITMAP
012210
2D0120
8F1020
8FFD20
377100
ENDCHAR
STARTCHAR dieresiscmb
ENCODING 776
SWIDTH 100 0
DWIDTH 1 0
BBX 7 5 -3 7
BITMAP
02223220
4A109120
CB019020
CFFFFE40
57467300
ENDCHAR
STARTCHAR hookcmb
ENCODING 777
SWIDTH 100 0
DWIDTH 1 0
BBX 6 6 -2 7
BITMAP
022220
2D1212
8FA522
4E9451
0FFE30
065100
ENDCHAR
STARTCHAR ringcmb
ENCODING 778
SWIDTH 100 0
DWIDTH 1 0
BBX 7 7 -3 7
BITMAP
00122200
05123220
5D25D220
AE213220
AF732430
7FFFF600
04772000
ENDCHAR
STARTCHAR hungarumlautcmb
ENCODING 779
SWIDTH 100 0
DWIDTH 1 0
BBX 8 6 -3 7
BITMAP
00221321
06609412
1F32D221
4F02D020
8FEDFE30
37347200
ENDCHAR
STARTCHAR caroncmb
ENCODING 780
SWIDTH 100 0
DWIDTH 1 0
BBX 7 5 -3 7
BITMAP
07112220
6F022120
9FB41620
5EFFD300
01640000
ENDCHAR
STARTCHAR horncmb
ENCODING 795
SWIDTH 100 0
DWIDTH 1 0
BBX 5 5 -2 5
BITMAP
003210
0A1220
6E2210
9FC200
461000
ENDCHAR
STARTCHAR dotbelowcmb
ENCODING 803
SWIDTH 100 0
DWIDTH 1 0
BBX 5 5 -2 -5
BITMAP
012210
2D0120
8F1020
8FFD20
377100
ENDCHAR
STARTCHAR dieresisbelowcmb
ENCODING 804
SWIDTH 100 0
DWIDTH 1 0
BBX 7 5 -3 -4
BITMAP
02223220
4A109120
CB019020
CFFFFE40
57467300
ENDCHAR
STARTCHAR commaaccent
ENCODING 806
SWIDTH 600 0
DWIDTH 7 0
BBX 5 6 1 -5
BITMAP
022210
3A1120
BB0220
CE7200
AD2000
9E9000
ENDCHAR
STARTCHAR cedillacmb
ENCODING 807
SWIDTH 100 0
DWIDTH 1 0
BBX 5 6 -2 -4
BITMAP
001000
046110
0E1120
5C2320
AFE500
342000
ENDCHAR
STARTCHAR ogonekcmb
ENCODING 808
SWIDTH 100 0
DWIDTH 1 0
BBX 6 6 -2 -4
BITMAP
003320
096220
1F4330
4F9231
3FFF70
035300
ENDCHAR
STARTCHAR brevebelowcmb
ENCODING 814
SWIDTH 100 0
DWIDTH 1 0
BBX 7 5 -3 -5
BITMAP
02222220
3C127120
AF732430
7FFFF600
04772000
ENDCHAR
STARTCHAR macronbelowcmb
ENCODING 817
SWIDTH 100 0
DWIDTH 1 0
BBX 7 5 -3 -5
BITMAP
01222220
1C000020
8F122110
8FFFFC10
37777100
ENDCHAR
STARTCHAR uni0394
ENCODING 916
SWIDTH 830 0
DWIDTH 9 0
BBX 9 10 0 -2
BITMAP
0043111200
04D0222200
0992162110
0D624C1120
2F228F0220
5E02AE2220
9D03111220
AD00000020
AFFFFFFD30
2555555100
ENDCHAR
STARTCHAR uni03A9
ENCODING 937
SWIDTH 877 0
DWIDTH 10 0
BBX 10 11 0 -2
BITMAP
0000122000
0022010220
0742212220
3F224E5201
6F224F7201
6F223F7211
6F422F6221
6A021A1312
CA000A0002
DFFFEFFFB1
3554255400
ENDCHAR
STARTCHAR uni03BC
ENCODING 956
SWIDTH 813 0
DWIDTH 9 0
BBX 9 10 0 -2
BITMAP
0222112220
2C002B0020
9E028F0220
9E028F0220
9E028F0220
9E03360110
9E03222000
9E01123000
9F88CC4000
7ED5000000
ENDCHAR
STARTCHAR pi
ENCODING 960
SWIDTH 821 0
DWIDTH 9 0
BBX 9 9 0 -2
BITMAP
0122222210
2B02222120
9E02230220
9E028F0220
9E028F0220
9E028F0220
9E009F1020
9FFB8FFC20
2540255000
ENDCHAR
STARTCHAR Ddotbelow
ENCODING 7692
SWIDTH 846 0
DWIDTH 9 0
BBX 9 14 0 -5
BITMAP
0622222210
5F02222120
8F02361220
8F027F5220
8F025F5220
8F024F5220
8F02382220
8F02222140
8FCB87A910
7FFF203000
004F212000
006F422000
006FFB1000
0015510000
ENDCHAR
STARTCHAR ddotbelow
ENCODING 7693
SWIDTH 846 0
DWIDTH 9 0
BBX 9 14 0 -5
BITMAP
0622222210
5F02222120
8F02361220
8F027F5220
8F025F5220
8F024F5220
8F02382220
8F02222140
8FCB87A910
7FFF203000
004F212000
006F422000
006FFB1000
0015510000
ENDCHAR
STARTCHAR Dlinebelow
ENCODING 7694
SWIDTH 846 0
DWIDTH 9 0
BBX 9 13 0 -4
BITMAP
0622222210
5F02222120
8F02361220
8F027F5220
8F025F5220
8F024F5220
8F02382220
8F12222220
8FDAAAB600
7FF0000200
05F2443300
08FFFFC100
0255551000
ENDCHAR
STARTCHAR dlinebelow
ENCODING 7695
SWIDTH 846 0
DWIDTH 9 0
BBX 9 13 0 -4
BITMAP
0622222210
5F02222120
8F02361220
8F027F5220
8F025F5220
8F024F5220
8F02382220
8F12222220
8FDAAAB600
7FF0000200
05F2443300
08FFFFC100
0255551000
ENDCHAR
STARTCHAR Gmacron
ENCODING 7712
SWIDTH 808 0
DWIDTH 9 0
BBX 9 13 0 -1
BITMAP
0003222200
00B2221200
05F3000000
06FA877700
0542243300
3E028FE400
8E02464210
9E023C0020
9E028F0220
9E02130220
9F31222120
5FE9766620
08DFFFF600
ENDCHAR
STARTCHAR gmacron
ENCODING 7713
SWIDTH 808 0
DWIDTH 9 0
BBX 9 13 0 -1
BITMAP
0003222200
00B2221200
05F3000000
06FA877700
0542243300
3E028FE400
8E02464210
9E023C0020
9E028F0220
9E02130220
9F31222120
5FE9766620
08DFFFF600
ENDCHAR
STARTCHAR Hdotbelow
ENCODING 7716
SWIDTH 859 0
DWIDTH 9 0
BBX 9 14 0 -5
BITMAP
0632245230
5F024F5220
8F02383220
8F02000220
8F03222320
8F02121220
8F027F5220
8F015F5120
8F77886650
7FFF304B10
004F312000
005F522000
005FFC1000
0015510000
ENDCHAR
STARTCHAR hdotbelow
ENCODING 7717
SWIDTH 859 0
DWIDTH 9 0
BBX 9 14 0 -5
BITMAP
0632245230
5F024F5220
8F02383220
8F02000220
8F03222320
8F02121220
8F027F5220
8F015F5120
8F77886650
7FFF304B10
004F312000
005F522000
005FFC1000
0015510000
ENDCHAR
STARTCHAR Hbrevebelow
ENCODING 7722
SWIDTH 859 0
DWIDTH 9 0
BBX 9 13 0 -4
BITMAP
0622245230
5F024F5220
8F02383220
8F02000220
8F03343320
8F027F5220
8F025F5220
8F114F6120
8FE86F99B0
7FF12E1200
05F5222400
06FFB9A300
01BEEB2000
ENDCHAR
STARTCHAR hbrevebelow
ENCODING 7723
SWIDTH 859 0
DWIDTH 9 0
BBX 9 13 0 -4
BITMAP
0622245230
5F024F5220
8F02383220
8F02000220
8F03343320
8F027F5220
8F025F5220
8F114F6120
8FE86F99B0
7FF12E1200
05F5222400
06FFB9A300
01BEEB2000
ENDCHAR
STARTCHAR Ldotbelow
ENCODING 7734
SWIDTH 795 0
DWIDTH 9 0
BBX 9 14 0 -5
BITMAP
0622200000
5F02200000
8F02200000
8F02212210
8F022C0020
8F027F0220
8F02230220
8F02222120
8FCB87AB30
7FFF007500
005F012000
008F322000
008FFA0000
0025500000
ENDCHAR
STARTCHAR ldotbelow
ENCODING 7735
SWIDTH 795 0
DWIDTH 9 0
BBX 9 14 0 -5
BITMAP
0622200000
5F02200000
8F02200000
8F02212210
8F022C0020
8F027F0220
8F02230220
8F02222120
8FCB87AB30
7FFF007500
005F012000
008F322000
008FFA0000
0025500000
ENDCHAR
STARTCHAR Ldotbelowmacron
ENCODING 7736
SWIDTH 795 0
DWIDTH 9 0
BBX 9 17 0 -5
BITMAP
0022222100
04B0221200
0BD0000100
0B87CF9000
6F01340000
8F02200000
8F02212210
8F022C0020
8F027F0220
8F02230220
8F02222120
8FCB87AB30
7FFF007500
005F012000
008F322000
008FFA0000
0025500000
ENDCHAR
STARTCHAR ldotbelowmacron
ENCODING 7737
SWIDTH 795 0
DWIDTH 9 0
BBX 9 17 0 -5
BITMAP
0022222100
04B0221200
0BD0000100
0B87CF9000
6F01340000
8F02200000
8F02212210
8F022C0020
8F027F0220
8F02230220
8F02222120
8FCB87AB30
7FFF007500
005F012000
008F322000
008FFA0000
0025500000
ENDCHAR
STARTCHAR Llinebelow
ENCODING 7738
SWIDTH 795 0
DWIDTH 9 0
BBX 9 13 0 -4
BITMAP
0622200000
5F02200000
8F02200000
8F02212210
8F022C0020
8F027F0220
8F02230220
8F02222120
8FB7777920
7FC0221200
09D2222200
0BFFFFA000
0355540000
ENDCHAR
STARTCHAR llinebelow
ENCODING 7739
SWIDTH 795 0
DWIDTH 9 0
BBX 9 13 0 -4
BITMAP
0622200000
5F02200000
8F02200000
8F02212210
8F022C0020
8F027F0220
8F02230220
8F02222120
8FB7777920
7FC0221200
09D2222200
0BFFFFA000
0355540000
ENDCHAR
STARTCHAR Mdotbelow
ENCODING 7746
SWIDTH 949 0
DWIDTH 10 0
BBX 10 14 0 -5
BITMAP
0632203223
5F02138122
8F02232122
8F02121122
8F02712522
8F028CD522
8F0278F522
8F0123F512
8F76438965
7FF8900CB1
000CA10200
000DB22100
000DFF6000
0003530000
ENDCHAR
STARTCHAR mdotbelow
ENCODING 7747
SWIDTH 949 0
DWIDTH 10 0
BBX 10 14 0 -5
BITMAP
0632203223
5F02138122
8F02232122
8F02121122
8F02712522
8F028CD522
8F0278F522
8F0123F512
8F76438965
7FF8900CB1
000CA10200
000DB22100
000DFF6000
0003530000
ENDCHAR
STARTCHAR Ndotaccent
ENCODING 7748
SWIDTH 853 0
DWIDTH 9 0
BBX 9 14 0 -1
BITMAP
0000322000
0009202000
005F212000
006F301000
0632BF6230
5F041E5220
8F02224220
8F02020220
8F02411220
8F02871320
8F028F3220
8F018F5120
8F765FA650
7FF62FFA10
ENDCHAR
STARTCHAR ndotaccent
ENCODING 7749
SWIDTH 853 0
DWIDTH 9 0
BBX 9 14 0 -1
BITMAP
0000322000
0009202000
005F212000
006F301000
0632BF6230
5F041E5220
8F02224220
8F02020220
8F02411220
8F02871320
8F028F3220
8F018F5120
8F765FA650
7FF62FFA10
ENDCHAR
STARTCHAR Ndotbelow
ENCODING 7750
SWIDTH 853 0
DWIDTH 9 0
BBX 9 14 0 -5
BITMAP
0632335230
5F041C5220
8F02224220
8F02020220
8F02411220
8F02871320
8F028F3220
8F018F5120
8F77686650
7FFF205A10
005F212000
006F522000
005FFC1000
0015510000
ENDCHAR
STARTCHAR ndotbelow
ENCODING 7751
SWIDTH 853 0
DWIDTH 9 0
BBX 9 14 0 -5
BITMAP
0632335230
5F041C5220
8F02224220
8F02020220
8F02411220
8F02871320
8F028F3220
8F018F5120
8F77686650
7FFF205A10
005F212000
006F522000
005FFC1000
0015510000
ENDCHAR
STARTCHAR Nlinebelow
ENCODING 7752
SWIDTH 853 0
DWIDTH 9 0
BBX 9 13 0 -4
BITMAP
0622335230
5F041C5220
8F02224220
8F02020220
8F02411220
8F02871320
8F028F3220
8F117F5120
8FE8588970
7FF2121200
04F4222300
06FFFFD200
0155551000
ENDCHAR
STARTCHAR nlinebelow
ENCODING 7753
SWIDTH 853 0
DWIDTH 9 0
BBX 9 13 0 -4
BITMAP
0622335230
5F041C5220
8F02224220
8F02020220
8F02411220
8F02871320
8F028F3220
8F117F5120
8FE8588970
7FF2121200
04F4222300
06FFFFD200
0155551000
ENDCHAR
STARTCHAR Rdotbelow
ENCODING 7770
SWIDTH 843 0
DWIDTH 9 0
BBX 10 14 0 -5
BITMAP
0632222200
5F02222020
8F027B2020
8F02462120
8F03223120
8F02120211
8F027F7201
8F014F7101
8F76686650
7FFF403C10
003F412000
004F622000
004FFD2000
0005510000
ENDCHAR
STARTCHAR rdotbelow
ENCODING 7771
SWIDTH 843 0
DWIDTH 9 0
BBX 10 14 0 -5
BITMAP
0632222200
5F02222020
8F027B2020
8F02462120
8F03223120
8F02120211
8F027F7201
8F014F7101
8F76686650
7FFF403C10
003F412000
004F622000
004FFD2000
0005510000
ENDCHAR
STARTCHAR Rdotbelowmacron
ENCODING 7772
SWIDTH 843 0
DWIDTH 9 0
BBX 10 17 0 -5
BITMAP
0022222100
0581220200
0E90000200
0E87777200
3E02222020
7F027B2020
8F02462120
8F03223120
8F02120211
8F027F7201
8F014F7101
8F76686650
7FFF403C10
003F412000
004F622000
004FFD2000
0005510000
ENDCHAR
STARTCHAR rdotbelowmacron
ENCODING 7773
SWIDTH 843 0
DWIDTH 9 0
BBX 10 17 0 -5
BITMAP
0022222100
0581220200
0E90000200
0E87777200
3E02222020
7F027B2020
8F02462120
8F03223120
8F02120211
8F027F7201
8F014F7101
8F76686650
7FFF403C10
003F412000
004F622000
004FFD2000
0005510000
ENDCHAR
STARTCHAR Rlinebelow
ENCODING 7774
SWIDTH 843 0
DWIDTH 9 0
BBX 10 13 0 -4
BITMAP
0624443200
5F02002020
8F027B2020
8F02462120
8F03223120
8F02373211
8F027F7201
8F103F7011
8FE8488AA0
7FF1221300
05F3222300
07FFFFC200
0155551000
ENDCHAR
STARTCHAR rlinebelow
ENCODING 7775
SWIDTH 843 0
DWIDTH 9 0
BBX 10 13 0 -4
BITMAP
0624443200
5F02002020
8F027B2020
8F02462120
8F03223120
8F02373211
8F027F7201
8F103F7011
8FE8488AA0
7FF1221300
05F3222300
07FFFFC200
0155551000
ENDCHAR
STARTCHAR Sdotaccent
ENCODING 7776
SWIDTH 750 0
DWIDTH 8 0
BBX 9 14 0 -1
BITMAP
0003221000
0059002000
00DA102000
00DA000000
0393222200
3D02221200
9C027ED300
BD02001300
AF41221100
7FFDB42010
0A21102110
7C02221100
BE66666100
AFFFEA1000
ENDCHAR
STARTCHAR sdotaccent
ENCODING 7777
SWIDTH 750 0
DWIDTH 8 0
BBX 9 14 0 -1
BITMAP
0003221000
0059002000
00DA102000
00DA000000
0393222200
3D02221200
9C027ED300
BD02001300
AF41221100
7FFDB42010
0A21102110
7C02221100
BE66666100
AFFFEA1000
ENDCHAR
STARTCHAR Sdotbelow
ENCODING 7778
SWIDTH 750 0
DWIDTH 8 0
BBX 9 14 0 -5
BITMAP
0032222200
0A02221200
7C027DD300
AD02001200
AF41221100
8FFDB42010
0921102110
7C02221500
BFBA77C300
AFFA002000
00AA102000
00DB221000
00DFF70000
0035300000
ENDCHAR
STARTCHAR sdotbelow
ENCODING 7779
SWIDTH 750 0
DWIDTH 8 0
BBX 9 14 0 -5
BITMAP
0032222200
0A02221200
7C027DD300
AD02001200
AF41221100
8FFDB42010
0921102110
7C02221500
BFBA77C300
AFFA002000
00AA102000
00DB221000
00DFF70000
0035300000
ENDCHAR
STARTCHAR Tdotbelow
ENCODING 7788
SWIDTH 756 0
DWIDTH 8 0
BBX 9 14 0 -5
BITMAP
2722222220
DA33324220
EFF920D900
45E9204000
00E9202000
00E9202000
00E9202000
00E9002000
00ED771000
00D9002000
00B9102000
00EB221000
00EFF40000
0035300000
ENDCHAR
STARTCHAR tdotbelow
ENCODING 7789
SWIDTH 756 0
DWIDTH 8 0
BBX 9 14 0 -5
BITMAP
2722222220
DA33324220
EFF920D900
45E9204000
00E9202000
00E9202000
00E9202000
00E9002000
00ED771000
00D9002000
00B9102000
00EB221000
00EFF40000
0035300000
ENDCHAR
STARTCHAR Tlinebelow
ENCODING 7790
SWIDTH 756 0
DWIDTH 8 0
BBX 9 13 0 -4
BITMAP
2734544220
DA21202220
EFF920D900
45E9204000
00E9202000
00E9202000
00E9202000
00E9002000
00C8762100
0381220200
0EA2222100
0EFFFF6000
0455530000
ENDCHAR
STARTCHAR tlinebelow
ENCODING 7791
SWIDTH 756 0
DWIDTH 8 0
BBX 9 13 0 -4
BITMAP
2734544220
DA21202220
EFF920D900
45E9204000
00E9202000
00E9202000
00E9202000
00E9002000
00C8762100
0381220200
0EA2222100
0EFFFF6000
0455530000
ENDCHAR
STARTCHAR Wgrave
ENCODING 7808
SWIDTH 931 0
DWIDTH 10 0
BBX 10 13 0 -1
BITMAP
0008975300
00BA9CDE20
02F6000010
0720466323
7E0222F522
9E0224C522
9E02602522
9E02221222
9E02112022
9F22262122
7F711B6112
3FD66FC650
0CFD2DFC10
ENDCHAR
STARTCHAR wgrave
ENCODING 7809
SWIDTH 931 0
DWIDTH 10 0
BBX 10 13 0 -1
BITMAP
0008975300
00BA9CDE20
02F6000010
0720466323
7E0222F522
9E0224C522
9E02602522
9E02221222
9E02112022
9F22262122
7F711B6112
3FD66FC650
0CFD2DFC10
ENDCHAR
STARTCHAR Wacute
ENCODING 7810
SWIDTH 931 0
DWIDTH 10 0
BBX 10 13 0 -1
BITMAP
0001357920
002CDDB840
00DA000320
0622225113
7E0222F522
9E0224C522
9E02602522
9E02221222
9E02112022
9F22262122
7F711B6112
3FD66FC650
0CFD2DFC10
ENDCHAR
STARTCHAR wacute
ENCODING 7811
SWIDTH 931 0
DWIDTH 10 0
BBX 10 13 0 -1
BITMAP
0001357920
002CDDB840
00DA000320
0622225113
7E0222F522
9E0224C522
9E02602522
9E02221222
9E02112022
9F22262122
7F711B6112
3FD66FC650
0CFD2DFC10
ENDCHAR
STARTCHAR Wdieresis
ENCODING 7812
SWIDTH 931 0
DWIDTH 10 0
BBX 10 13 0 -1
BITMAP
0003232210
00A4172120
04F4082000
0587CFFA77
4D0125F512
9E0224C522
9E02602522
9E02221222
9E02112022
9F22262121
7F611B6111
3FD66FC650
0CFD2DFC10
ENDCHAR
STARTCHAR wdieresis
ENCODING 7813
SWIDTH 931 0
DWIDTH 10 0
BBX 10 13 0 -1
BITMAP
0003232210
00A4172120
04F4082000
0587CFFA77
4D0125F512
9E0224C522
9E02602522
9E02221222
9E02112022
9F22262121
7F611B6111
3FD66FC650
0CFD2DFC10
ENDCHAR
STARTCHAR Ydotaccent
ENCODING 7822
SWIDTH 805 0
DWIDTH 9 0
BBX 9 14 0 -1
BITMAP
0001221000
001B002000
008D012000
00AE001000
0722CE3220
9C009F1120
CC118F1220
CD026B0120
BF52112110
6FE2130200
0AFA022000
01ED012000
00AE662000
009FF60000
ENDCHAR
STARTCHAR ydotaccent
ENCODING 7823
SWIDTH 805 0
DWIDTH 9 0
BBX 9 14 0 -1
BITMAP
0001221000
001B002000
008D012000
00AE001000
0722CE3220
9C009F1120
CC118F1220
CD026B0120
BF52112110
6FE2130200
0AFA022000
01ED012000
00AE662000
009FF60000
ENDCHAR
STARTCHAR Zdotbelow
ENCODING 7826
SWIDTH 760 0
DWIDTH 8 0
BBX 9 14 0 -5
BITMAP
0722222300
7F24322200
8FFF402200
2577020200
0080202000
0711111000
3B02032200
BC02222020
CFBB77BA10
AFFB009200
009B012000
00CC221000
00CFF70000
0035400000
ENDCHAR
STARTCHAR zdotbelow
ENCODING 7827
SWIDTH 760 0
DWIDTH 8 0
BBX 9 14 0 -5
BITMAP
0722222300
7F24322200
8FFF402200
2577020200
0080202000
0711111000
3B02032200
BC02222020
CFBB77BA10
AFFB009200
009B012000
00CC221000
00CFF70000
0035400000
ENDCHAR
STARTCHAR tdieresis
ENCODING 7831
SWIDTH 756 0
DWIDTH 8 0
BBX 9 13 0 -1
BITMAP
0032332100
1B51631200
3F50730000
4A22222220
EA33324220
EFF920D900
45E9204000
00E9202000
00E9202000
00E9202000
00E9102000
00EC651000
00DFE30000
ENDCHAR
STARTCHAR Germandbls
ENCODING 7838
SWIDTH 859 0
DWIDTH 9 0
BBX 10 10 0 -1
BITMAP
0632222200
5F02222020
8F02342020
8F02772120
8F02742211
8F027FA102
8F02751102
8F01731211
8F76B96740
7FFBFFD500
ENDCHAR
STARTCHAR Adotbelow
ENCODING 7840
SWIDTH 830 0
DWIDTH 9 0
BBX 9 14 0 -5
BITMAP
0023222200
01B0221200
07813A2010
0D317E1120
3E01000120
8D03222220
AD02220220
AD01BF3120
AE67986640
9FFF007900
007F012000
008F322000
007FFB0000
0015500000
ENDCHAR
STARTCHAR adotbelow
ENCODING 7841
SWIDTH 830 0
DWIDTH 9 0
BBX 9 14 0 -5
BITMAP
0023222200
01B0221200
07813A2010
0D317E1120
3E01000120
8D03222220
AD02220220
AD01BF3120
AE67986640
9FFF007900
007F012000
008F322000
007FFB0000
0015500000
ENDCHAR
STARTCHAR Ahookabove
ENCODING 7842
SWIDTH 830 0
DWIDTH 9 0
BBX 9 14 0 -1
BITMAP
0002121000
006E832100
00CF436100
004FEFA000
0045222200
01B0221200
07813A2010
0D317E1120
3E01000120
8D03222220
AD02220220
AD01BF3120
AE669F9640
9FE64FF900
ENDCHAR
STARTCHAR ahookabove
ENCODING 7843
SWIDTH 830 0
DWIDTH 9 0
BBX 9 14 0 -1
BITMAP
0002121000
006E832100
00CF436100
004FEFA000
0045222200
01B0221200
07813A2010
0D317E1120
3E01000120
8D03222220
AD02220220
AD01BF3120
AE669F9640
9FE64FF900
ENDCHAR
STARTCHAR Acircumflexacute
ENCODING 7844
SWIDTH 830 0
DWIDTH 9 0
BBX 9 16 0 -1
BITMAP
0000016910
00003DFD20
0000BC1500
0013517700
01B0000200
08F8CEA400
08F4000200
03C0221200
07713A2010
0D217E1120
3E01000120
8D03222220
AD02220220
AD01BF3120
AE669F9640
9FE64FF900
ENDCHAR
STARTCHAR acircumflexacute
ENCODING 7845
SWIDTH 830 0
DWIDTH 9 0
BBX 9 16 0 -1
BITMAP
0000016910
00003DFD20
0000BC1500
0013517700
01B0000200
08F8CEA400
08F4000200
03C0221200
07713A2010
0D217E1120
3E01000120
8D03222220
AD02220220
AD01BF3120
AE669F9640
9FE64FF900
ENDCHAR
STARTCHAR Acircumflexgrave
ENCODING 7846
SWIDTH 830 0
DWIDTH 9 0
BBX 9 16 0 -1
BITMAP
0000045100
00007FFD00
0000F93600
0014638600
01B0001200
08F8CEA400
08F4000200
03C0221200
07713A2010
0D217E1120
3E01000120
8D03222220
AD02220220
AD01BF3120
AE669F9640
9FE64FF900
ENDCHAR
STARTCHAR acircumflexgrave
ENCODING 7847
SWIDTH 830 0
DWIDTH 9 0
BBX 9 16 0 -1
BITMAP
0000045100
00007FFD00
0000F93600
0014638600
01B0001200
08F8CEA400
08F4000200
03C0221200
07713A2010
0D217E1120
3E01000120
8D03222220
AD02220220
AD01BF3120
AE669F9640
9FE64FF900
ENDCHAR
STARTCHAR Acircumflexhookabove
ENCODING 7848
SWIDTH 830 0
DWIDTH 9 0
BBX 10 17 0 -1
BITMAP
0000032220
00006A1230
0000CF8421
00003A6510
0010223600
01C0000200
08F8CEA400
08F4000200
03C0221200
07713A2010
0D217E1120
3E01000120
8D03222220
AD02220220
AD01BF3120
AE669F9640
9FE64FF900
ENDCHAR
STARTCHAR acircumflexhookabove
ENCODING 7849
SWIDTH 830 0
DWIDTH 9 0
BBX 10 17 0 -1
BITMAP
0000032220
00006A1230
0000CF8421
00003A6510
0010223600
01C0000200
08F8CEA400
08F4000200
03C0221200
07713A2010
0D217E1120
3E01000120
8D03222220
AD02220220
AD01BF3120
AE669F9640
9FE64FF900
ENDCHAR
STARTCHAR Acircumflextilde
ENCODING 7850
SWIDTH 830 0
DWIDTH 9 0
BBX 9 16 0 -1
BITMAP
0012222200
02C0211200
08FBA68200
04A5323300
03E0000200
08F8CEA400
08F4000200
03C0221200
07713A2010
0D217E1120
3E01000120
8D03222220
AD02220220
AD01BF3120
AE669F9640
9FE64FF900
ENDCHAR
STARTCHAR acircumflextilde
ENCODING 7851
SWIDTH 830 0
DWIDTH 9 0
BBX 9 16 0 -1
BITMAP
0012222200
02C0211200
08FBA68200
04A5323300
03E0000200
08F8CEA400
08F4000200
03C0221200
07713A2010
0D217E1120
3E01000120
8D03222220
AD02220220
AD01BF3120
AE669F9640
9FE64FF900
ENDCHAR
STARTCHAR Acircumflexdotbelow
ENCODING 7852
SWIDTH 830 0
DWIDTH 9 0
BBX 9 18 0 -5
BITMAP
0000221000
0022222200
02D0000200
08F8CEA400
08F4000200
03C0221200
07713A2010
0D217E1120
3E01000120
8D03222220
AD02220220
AD01BF3120
AE67986640
9FFF007900
007F012000
008F322000
007FFB0000
0015500000
ENDCHAR
STARTCHAR acircumflexdotbelow
ENCODING 7853
SWIDTH 830 0
DWIDTH 9 0
BBX 9 18 0 -5
BITMAP
0000221000
0022222200
02D0000200
08F8CEA400
08F4000200
03C0221200
07713A2010
0D217E1120
3E01000120
8D03222220
AD02220220
AD01BF3120
AE67986640
9FFF007900
007F012000
008F322000
007FFB0000
0015500000
ENDCHAR
STARTCHAR Abreveacute
ENCODING 7854
SWIDTH 830 0
DWIDTH 9 0
BBX 9 16 0 -1
BITMAP
00005CF100
0007FFD100
0017819200
01B116A200
09F1211100
09F9202000
05F9666400
01C1221300
07913A2120
0D417E1130
3E01000120
8D03222220
AD02220220
AD01BF3120
AE669F9640
9FE64FF900
ENDCHAR
STARTCHAR abreveacute
ENCODING 7855
SWIDTH 830 0
DWIDTH 9 0
BBX 9 16 0 -1
BITMAP
00005CF100
0007FFD100
0017819200
01B116A200
09F1211100
09F9202000
05F9666400
01C1221300
07913A2120
0D417E1130
3E01000120
8D03222220
AD02220220
AD01BF3120
AE669F9640
9FE64FF900
ENDCHAR
STARTCHAR Abrevegrave
ENCODING 7856
SWIDTH 830 0
DWIDTH 9 0
BBX 9 16 0 -1
BITMAP
002CE90000
00DEFF0000
00E3412200
02D2A61200
09F1211100
09F9202000
05F9666400
01C1221300
07913A2120
0D417E1130
3E01000120
8D03222220
AD02220220
AD01BF3120
AE669F9640
9FE64FF900
ENDCHAR
STARTCHAR abrevegrave
ENCODING 7857
SWIDTH 830 0
DWIDTH 9 0
BBX 9 16 0 -1
BITMAP
002CE90000
00DEFF0000
00E3412200
02D2A61200
09F1211100
09F9202000
05F9666400
01C1221300
07913A2120
0D417E1130
3E01000120
8D03222220
AD02220220
AD01BF3120
AE669F9640
9FE64FF900
ENDCHAR
STARTCHAR Abrevehookabove
ENCODING 7858
SWIDTH 830 0
DWIDTH 9 0
BBX 9 17 0 -1
BITMAP
0002122000
004E952100
005E923300
0018AE7200
01A1271200
09F1221100
09F9202000
05F9666400
01C1221300
07913A2120
0D417E1130
3E01000120
8D03222220
AD02220220
AD01BF3120
AE669F9640
9FE64FF900
ENDCHAR
STARTCHAR abrevehookabove
ENCODING 7859
SWIDTH 830 0
DWIDTH 9 0
BBX 9 17 0 -1
BITMAP
0002122000
004E952100
005E923300
0018AE7200
01A1271200
09F1221100
09F9202000
05F9666400
01C1221300
07913A2120
0D417E1130
3E01000120
8D03222220
AD02220220
AD01BF3120
AE669F9640
9FE64FF900
ENDCHAR
STARTCHAR Abrevetilde
ENCODING 7860
SWIDTH 830 0
DWIDTH 9 0
BBX 9 16 0 -1
BITMAP
0012223200
02C0210200
08F8BE7300
06D1381200
09F1221100
09F9202000
05F9666400
01C1221300
07913A2120
0D417E1130
3E01000120
8D03222220
AD02220220
AD01BF3120
AE669F9640
9FE64FF900
ENDCHAR
STARTCHAR abrevetilde
ENCODING 7861
SWIDTH 830 0
DWIDTH 9 0
BBX 9 16 0 -1
BITMAP
0012223200
02C0210200
08F8BE7300
06D1381200
09F1221100
09F9202000
05F9666400
01C1221300
07913A2120
0D417E1130
3E01000120
8D03222220
AD02220220
AD01BF3120
AE669F9640
9FE64FF900
ENDCHAR
STARTCHAR Abrevedotbelow
ENCODING 7862
SWIDTH 830 0
DWIDTH 9 0
BBX 9 18 0 -5
BITMAP
0012222200
01B1271200
09F1221100
09F9202000
05F9666400
01C1221300
07913A2120
0D417E1130
3E01000120
8D03222220
AD02220220
AD01BF3120
AE67986640
9FFF007900
007F012000
008F322000
007FFB0000
0015500000
ENDCHAR
STARTCHAR abrevedotbelow
ENCODING 7863
SWIDTH 830 0
DWIDTH 9 0
BBX 9 18 0 -5
BITMAP
0012222200
01B1271200
09F1221100
09F9202000
05F9666400
01C1221300
07913A2120
0D417E1130
3E01000120
8D03222220
AD02220220
AD01BF3120
AE67986640
9FFF007900
007F012000
008F322000
007FFB0000
0015500000
ENDCHAR
STARTCHAR Edotbelow
ENCODING 7864
SWIDTH 754 0
DWIDTH 8 0
BBX 8 14 0 -5
BITMAP
06222223
5F022221
8F027EE6
8F020002
8F032202
8F024850
8F024832
8F022221
8FCB77BB
7FFB0092
009B0120
00CC2210
00CFF700
00354000
ENDCHAR
STARTCHAR edotbelow
ENCODING 7865
SWIDTH 754 0
DWIDTH 8 0
BBX 8 14 0 -5
BITMAP
06222223
5F022221
8F027EE6
8F020002
8F032202
8F024850
8F024832
8F022221
8FCB77BB
7FFB0092
009B0120
00CC2210
00CFF700
00354000
ENDCHAR
STARTCHAR Ehookabove
ENCODING 7866
SWIDTH 754 0
DWIDTH 8 0
BBX 8 14 0 -1
BITMAP
00022200
00BC6310
02FE1450
008FEF50
06322223
5F022221
8F027EE6
8F020002
8F032202
8F024850
8F024832
8F022221
8F766666
7FFFFFC2
ENDCHAR
STARTCHAR ehookabove
ENCODING 7867
SWIDTH 754 0
DWIDTH 8 0
BBX 8 14 0 -1
BITMAP
00022200
00BC6310
02FE1450
008FEF50
06322223
5F022221
8F027EE6
8F020002
8F032202
8F024850
8F024832
8F022221
8F766666
7FFFFFC2
ENDCHAR
STARTCHAR Etilde
ENCODING 7868
SWIDTH 754 0
DWIDTH 8 0
BBX 8 13 0 -1
BITMAP
00122221
03912202
0CB33110
0D322223
5F022221
8F027EE6
8F020002
8F032202
8F024850
8F024832
8F022221
8F766666
7FFFFFC2
ENDCHAR
STARTCHAR etilde
ENCODING 7869
SWIDTH 754 0
DWIDTH 8 0
BBX 8 13 0 -1
BITMAP
00122221
03912202
0CB33110
0D322223
5F022221
8F027EE6
8F020002
8F032202
8F024850
8F024832
8F022221
8F766666
7FFFFFC2
ENDCHAR
STARTCHAR Ecircumflexacute
ENCODING 7870
SWIDTH 754 0
DWIDTH 8 0
BBX 8 16 0 -1
BITMAP
00000378
00006FFB
0001F805
00244375
04910002
0DC7BB72
0D322223
6F022221
8F027EE6
8F020002
8F032202
8F024850
8F024832
8F022221
8F766666
7FFFFFC2
ENDCHAR
STARTCHAR ecircumflexacute
ENCODING 7871
SWIDTH 754 0
DWIDTH 8 0
BBX 8 16 0 -1
BITMAP
00000378
00006FFB
0001F805
00244375
04910002
0DC7BB72
0D322223
6F022221
8F027EE6
8F020002
8F032202
8F024850
8F024832
8F022221
8F766666
7FFFFFC2
ENDCHAR
STARTCHAR Ecircumflexgrave
ENCODING 7872
SWIDTH 754 0
DWIDTH 8 0
BBX 8 16 0 -1
BITMAP
00000640
0001BFF8
0005F545
00364664
05A10020
0DC7BB72
0D322223
6F022221
8F027EE6
8F020002
8F032202
8F024850
8F024832
8F022221
8F766666
7FFFFFC2
ENDCHAR
STARTCHAR ecircumflexgrave
ENCODING 7873
SWIDTH 754 0
DWIDTH 8 0
BBX 8 16 0 -1
BITMAP
00000640
0001BFF8
0005F545
00364664
05A10020
0DC7BB72
0D322223
6F022221
8F027EE6
8F020002
8F032202
8F024850
8F024832
8F022221
8F766666
7FFFFFC2
ENDCHAR
STARTCHAR Ecircumflexhookabove
ENCODING 7874
SWIDTH 754 0
DWIDTH 8 0
BBX 9 17 0 -1
BITMAP
0000032210
0000A62220
0002FE7310
00007B4400
0032234400
06A1000200
0DC7BB7200
0D32222300
7F02222100
8F027EE600
8F02000200
8F03220200
8F02485000
8F02483200
8F02222100
8F76666600
7FFFFFC200
ENDCHAR
STARTCHAR ecircumflexhookabove
ENCODING 7875
SWIDTH 754 0
DWIDTH 8 0
BBX 9 17 0 -1
BITMAP
0000032210
0000A62220
0002FE7310
00007B4400
0032234400
06A1000200
0DC7BB7200
0D32222300
7F02222100
8F027EE600
8F02000200
8F03220200
8F02485000
8F02483200
8F02222100
8F76666600
7FFFFFC200
ENDCHAR
STARTCHAR Ecircumflextilde
ENCODING 7876
SWIDTH 754 0
DWIDTH 8 0
BBX 8 16 0 -1
BITMAP
00122221
05912102
0DEC9771
06B42342
09A10002
0DC7BB72
1E322223
7F022221
8F027EE6
8F020002
8F032202
8F024850
8F024832
8F022221
8F766666
7FFFFFC2
ENDCHAR
STARTCHAR ecircumflextilde
ENCODING 7877
SWIDTH 754 0
DWIDTH 8 0
BBX 8 16 0 -1
BITMAP
00122221
05912102
0DEC9771
06B42342
09A10002
0DC7BB72
1E322223
7F022221
8F027EE6
8F020002
8F032202
8F024850
8F024832
8F022221
8F766666
7FFFFFC2
ENDCHAR
STARTCHAR Ecircumflexdotbelow
ENCODING 7878
SWIDTH 754 0
DWIDTH 8 0
BBX 8 18 0 -5
BITMAP
00012200
00532322
08A10002
0DC7BB72
1E322223
7F022221
8F027EE6
8F020002
8F032202
8F024850
8F024832
8F022221
8FCA77BA
7FF900A2
00B91020
00EA2210
00EFF500
00353000
ENDCHAR
STARTCHAR ecircumflexdotbelow
ENCODING 7879
SWIDTH 754 0
DWIDTH 8 0
BBX 8 18 0 -5
BITMAP
00012200
00532322
08A10002
0DC7BB72
1E322223
7F022221
8F027EE6
8F020002
8F032202
8F024850
8F024832
8F022221
8FCA77BA
7FF900A2
00B91020
00EA2210
00EFF500
00353000
ENDCHAR
STARTCHAR Ihookabove
ENCODING 7880
SWIDTH 705 0
DWIDTH 8 0
BBX 8 14 0 -1
BITMAP
00212100
04E94210
08F72430
01EFFC10
08222222
8D023212
AE822172
9EF52240
03F52200
03F52200
04932121
4C022212
AE666662
9FFFFE50
ENDCHAR
STARTCHAR ihookabove
ENCODING 7881
SWIDTH 705 0
DWIDTH 8 0
BBX 8 14 0 -1
BITMAP
00212100
04E94210
08F72430
01EFFC10
08222222
8D023212
AE822172
9EF52240
03F52200
03F52200
04932121
4C022212
AE666662
9FFFFE50
ENDCHAR
STARTCHAR Idotbelow
ENCODING 7882
SWIDTH 705 0
DWIDTH 8 0
BBX 8 14 0 -5
BITMAP
06222222
7D023212
AE822172
9EF52240
03F52200
03F52200
04932121
4C022212
AFB978B4
9FF50270
01E51200
03F72300
03FFE300
00452000
ENDCHAR
STARTCHAR idotbelow
ENCODING 7883
SWIDTH 705 0
DWIDTH 8 0
BBX 8 14 0 -5
BITMAP
06222222
7D023212
AE822172
9EF52240
03F52200
03F52200
04932121
4C022212
AFB978B4
9FF50270
01E51200
03F72300
03FFE300
00452000
ENDCHAR
STARTCHAR Odotbelow
ENCODING 7884
SWIDTH 837 0
DWIDTH 9 0
BBX 9 14 0 -5
BITMAP
0022222210
0621222020
4E02250220
9E029F4220
9E027F4220
9E026F4220
9E025F3220
9F01222010
8F80000110
2EFD658300
018F112000
007F323000
007FFC1000
0015510000
ENDCHAR
STARTCHAR odotbelow
ENCODING 7885
SWIDTH 837 0
DWIDTH 9 0
BBX 9 14 0 -5
BITMAP
0022222210
0621222020
4E02250220
9E029F4220
9E027F4220
9E026F4220
9E025F3220
9F01222010
8F80000110
2EFD658300
018F112000
007F323000
007FFC1000
0015510000
ENDCHAR
STARTCHAR Ohookabove
ENCODING 7886
SWIDTH 837 0
DWIDTH 9 0
BBX 9 14 0 -1
BITMAP
0003120000
009F932100
006F777000
0045222210
0421222020
3E02000220
8E028F3220
9E028F4220
9E026F4220
9E026F4220
9F02250220
8F51222020
4FFA778500
06DFFC6000
ENDCHAR
STARTCHAR ohookabove
ENCODING 7887
SWIDTH 837 0
DWIDTH 9 0
BBX 9 14 0 -1
BITMAP
0003120000
009F932100
006F777000
0045222210
0421222020
3E02000220
8E028F3220
9E028F4220
9E026F4220
9E026F4220
9F02250220
8F51222020
4FFA778500
06DFFC6000
ENDCHAR
STARTCHAR Ocircumflexacute
ENCODING 7888
SWIDTH 837 0
DWIDTH 9 0
BBX 9 16 0 -1
BITMAP
000005CF20
00006FFD20
0001960910
004421C700
04F0000200
08F7AB9400
07A3222320
2E12000220
8E028F3220
9E028F4220
9E026F4220
9E026F4220
9E02250220
8F41222020
4FFA778600
06DFFD6000
ENDCHAR
STARTCHAR ocircumflexacute
ENCODING 7889
SWIDTH 837 0
DWIDTH 9 0
BBX 9 16 0 -1
BITMAP
000005CF20
00006FFD20
0001960910
004421C700
04F0000200
08F7AB9400
07A3222320
2E12000220
8E028F3220
9E028F4220
9E026F4220
9E026F4220
9E02250220
8F41222020
4FFA778600
06DFFD6000
ENDCHAR
STARTCHAR Ocircumflexgrave
ENCODING 7890
SWIDTH 837 0
DWIDTH 9 0
BBX 9 16 0 -1
BITMAP
000009A500
0000CFFE00
0001C32500
004424D800
05F0001200
08F7AB9400
07A3222320
2E12000220
8E028F3220
9E028F4220
9E026F4220
9E026F4220
9E02250220
8F41222020
4FFA778600
06DFFD6000
ENDCHAR
STARTCHAR ocircumflexgrave
ENCODING 7891
SWIDTH 837 0
DWIDTH 9 0
BBX 9 16 0 -1
BITMAP
000009A500
0000CFFE00
0001C32500
004424D800
05F0001200
08F7AB9400
07A3222320
2E12000220
8E028F3220
9E028F4220
9E026F4220
9E026F4220
9E02250220
8F41222020
4FFA778600
06DFFD6000
ENDCHAR
STARTCHAR Ocircumflexhookabove
ENCODING 7892
SWIDTH 837 0
DWIDTH 9 0
BBX 10 17 0 -1
BITMAP
0000032220
00006B1221
0000CF9421
00004A6510
0034323600
04E0000200
08F7AB9400
07A3222320
2E12000220
8E028F3220
9E028F4220
9E026F4220
9E026F4220
9E02250220
8F41222020
4FFA778600
06DFFD6000
ENDCHAR
STARTCHAR ocircumflexhookabove
ENCODING 7893
SWIDTH 837 0
DWIDTH 9 0
BBX 10 17 0 -1
BITMAP
0000032220
00006B1221
0000CF9421
00004A6510
0034323600
04E0000200
08F7AB9400
07A3222320
2E12000220
8E028F3220
9E028F4220
9E026F4220
9E026F4220
9E02250220
8F41222020
4FFA778600
06DFFD6000
ENDCHAR
STARTCHAR Ocircumflextilde
ENCODING 7894
SWIDTH 837 0
DWIDTH 9 0
BBX 9 17 0 -1
BITMAP
0002211200
0090221200
07F2310300
08FFA7B100
03A4222300
05F0000200
08F7AB9400
07A3222320
2E12000220
8E028F3220
9E028F4220
9E026F4220
9E026F4220
9E02250220
8F41222020
4FFA778600
06DFFD6000
ENDCHAR
STARTCHAR ocircumflextilde
ENCODING 7895
SWIDTH 837 0
DWIDTH 9 0
BBX 9 17 0 -1
BITMAP
0002211200
0090221200
07F2310300
08FFA7B100
03A4222300
05F0000200
08F7AB9400
07A3222320
2E12000220
8E028F3220
9E028F4220
9E026F4220
9E026F4220
9E02250220
8F41222020
4FFA778600
06DFFD6000
ENDCHAR
STARTCHAR Ocircumflexdotbelow
ENCODING 7896
SWIDTH 837 0
DWIDTH 9 0
BBX 9 17 0 -5
BITMAP
0000121000
0040121100
04F7AB9500
08B2000210
0711222020
3D02250220
8E029F4220
9E027F4220
9E026F4220
9E025F3220
9F02000210
8F81222110
3EFD658300
017F112000
007F323000
007FFC1000
0015510000
ENDCHAR
STARTCHAR ocircumflexdotbelow
ENCODING 7897
SWIDTH 837 0
DWIDTH 9 0
BBX 9 17 0 -5
BITMAP
0000121000
0040121100
04F7AB9500
08B2000210
0711222020
3D02250220
8E029F4220
9E027F4220
9E026F4220
9E025F3220
9F02000210
8F81222110
3EFD658300
017F112000
007F323000
007FFC1000
0015510000
ENDCHAR
STARTCHAR Ohornacute
ENCODING 7898
SWIDTH 847 0
DWIDTH 9 0
BBX 10 13 0 -1
BITMAP
0003688200
02CDB97521
0D90000402
0A76750321
2E11000320
8E028F3220
9E028F4220
9E026F4220
9E026F4220
9E02250220
9F41222020
6FFA778500
08DFFC6000
ENDCHAR
STARTCHAR ohornacute
ENCODING 7899
SWIDTH 847 0
DWIDTH 9 0
BBX 10 13 0 -1
BITMAP
0003688200
02CDB97521
0D90000402
0A76750321
2E11000320
8E028F3220
9E028F4220
9E026F4220
9E026F4220
9E02250220
9F41222020
6FFA778500
08DFFC6000
ENDCHAR
STARTCHAR Ohorngrave
ENCODING 7900
SWIDTH 847 0
DWIDTH 9 0
BBX 10 14 0 -1
BITMAP
0023100000
05EFFFC100
0FA68AC521
0F70000502
0390465221
1D11000320
7E028F3220
9E028F4220
9E026F4220
9E026F4220
9E02250220
9F41222020
6FFA778500
08DFFC6000
ENDCHAR
STARTCHAR ohorngrave
ENCODING 7901
SWIDTH 847 0
DWIDTH 9 0
BBX 10 14 0 -1
BITMAP
0023100000
05EFFFC100
0FA68AC521
0F70000502
0390465221
1D11000320
7E028F3220
9E028F4220
9E026F4220
9E026F4220
9E02250220
9F41222020
6FFA778500
08DFFC6000
ENDCHAR
STARTCHAR Ohornhookabove
ENCODING 7902
SWIDTH 847 0
DWIDTH 9 0
BBX 10 14 0 -1
BITMAP
0003120000
008F932100
007F878421
0025239602
0020013321
0A01000320
7E028F3220
9E028F4220
9E026F4220
9E026F4220
9F02250220
9F51222020
6FFA778500
08DFFC6000
ENDCHAR
STARTCHAR ohornhookabove
ENCODING 7903
SWIDTH 847 0
DWIDTH 9 0
BBX 10 14 0 -1
BITMAP
0003120000
008F932100
007F878421
0025239602
0020013321
0A01000320
7E028F3220
9E028F4220
9E026F4220
9E026F4220
9F02250220
9F51222020
6FFA778500
08DFFC6000
ENDCHAR
STARTCHAR Ohorntilde
ENCODING 7904
SWIDTH 847 0
DWIDTH 9 0
BBX 10 14 0 -1
BITMAP
0023212100
0281221200
0CA0000321
0DB4412502
07B4114321
1D11000320
8E028F3220
9E028F4220
9E026F4220
9E026F4220
9E02250220
9F41222020
6FFA778500
08DFFC6000
ENDCHAR
STARTCHAR ohorntilde
ENCODING 7905
SWIDTH 847 0
DWIDTH 9 0
BBX 10 14 0 -1
BITMAP
0023212100
0281221200
0CA0000321
0DB4412502
07B4114321
1D11000320
8E028F3220
9E028F4220
9E026F4220
9E026F4220
9E02250220
9F41222020
6FFA778500
08DFFC6000
ENDCHAR
STARTCHAR Ohorndotbelow
ENCODING 7906
SWIDTH 847 0
DWIDTH 9 0
BBX 10 15 0 -5
BITMAP
0000001321
0022122122
0620003321
4E01250220
9E029F4220
9E027F4220
9E026F4220
9E025F3220
9F01222010
8F80000110
2EFD658300
018F112000
007F323000
007FFC1000
0015510000
ENDCHAR
STARTCHAR ohorndotbelow
ENCODING 7907
SWIDTH 847 0
DWIDTH 9 0
BBX 10 15 0 -5
BITMAP
0000001321
0022122122
0620003321
4E01250220
9E029F4220
9E027F4220
9E026F4220
9E025F3220
9F01222010
8F80000110
2EFD658300
018F112000
007F323000
007FFC1000
0015510000
ENDCHAR
STARTCHAR Udotbelow
ENCODING 7908
SWIDTH 846 0
DWIDTH 9 0
BBX 9 14 0 -5
BITMAP
0622235230
6F013E4120
8F025F4220
8F025F4220
8F025F4220
8F025F4220
8F02151220
8F11222010
7F90000000
1DFE758300
007F212000
006F423000
006FFC2000
0015510000
ENDCHAR
STARTCHAR udotbelow
ENCODING 7909
SWIDTH 846 0
DWIDTH 9 0
BBX 9 14 0 -5
BITMAP
0622235230
6F013E4120
8F025F4220
8F025F4220
8F025F4220
8F025F4220
8F02151220
8F11222010
7F90000000
1DFE758300
007F212000
006F423000
006FFC2000
0015510000
ENDCHAR
STARTCHAR Uhookabove
ENCODING 7910
SWIDTH 846 0
DWIDTH 9 0
BBX 9 14 0 -1
BITMAP
0002122000
003E952100
007F924400
000DFFD200
06229E6230
6F013E4120
8F025F4220
8F025F4220
8F025F4220
8F025F4220
8F02151220
8F51222030
4FFA778600
06CFFD7000
ENDCHAR
STARTCHAR uhookabove
ENCODING 7911
SWIDTH 846 0
DWIDTH 9 0
BBX 9 14 0 -1
BITMAP
0002122000
003E952100
007F924400
000DFFD200
06229E6230
6F013E4120
8F025F4220
8F025F4220
8F025F4220
8F025F4220
8F02151220
8F51222030
4FFA778600
06CFFD7000
ENDCHAR
STARTCHAR Uhornacute
ENCODING 7912
SWIDTH 856 0
DWIDTH 9 0
BBX 10 13 0 -1
BITMAP
0003689200
02CDB97621
0D90003602
0E28073022
6F013E4221
8F025F4220
8F025F4220
8F025F4220
8F025F4220
8F02151220
8F51222030
5FFA778600
07DFFD7000
ENDCHAR
STARTCHAR uhornacute
ENCODING 7913
SWIDTH 856 0
DWIDTH 9 0
BBX 10 13 0 -1
BITMAP
0003689200
02CDB97621
0D90003602
0E28073022
6F013E4221
8F025F4220
8F025F4220
8F025F4220
8F025F4220
8F02151220
8F51222030
5FFA778600
07DFFD7000
ENDCHAR
STARTCHAR Uhorngrave
ENCODING 7914
SWIDTH 856 0
DWIDTH 9 0
BBX 10 13 0 -1
BITMAP
03DFFC9100
0EB8ACE521
1F70000702
0D13364022
6F014F4221
8F025F4220
8F025F4220
8F025F4220
8F025F4220
8F02151220
8F51222030
5FFA778600
07DFFD7000
ENDCHAR
STARTCHAR uhorngrave
ENCODING 7915
SWIDTH 856 0
DWIDTH 9 0
BBX 10 13 0 -1
BITMAP
03DFFC9100
0EB8ACE521
1F70000702
0D13364022
6F014F4221
8F025F4220
8F025F4220
8F025F4220
8F025F4220
8F02151220
8F51222030
5FFA778600
07DFFD7000
ENDCHAR
STARTCHAR Uhornhookabove
ENCODING 7916
SWIDTH 856 0
DWIDTH 9 0
BBX 10 14 0 -1
BITMAP
0003121000
005E942100
006E846621
001EFFF802
06229F7022
6F013E4221
8F025F4220
8F025F4220
8F025F4220
8F025F4220
8F02151220
8F51222030
5FFA778600
07DFFD7000
ENDCHAR
STARTCHAR uhornhookabove
ENCODING 7917
SWIDTH 856 0
DWIDTH 9 0
BBX 10 14 0 -1
BITMAP
0003121000
005E942100
006E846621
001EFFF802
06229F7022
6F013E4221
8F025F4220
8F025F4220
8F025F4220
8F025F4220
8F02151220
8F51222030
5FFA778600
07DFFD7000
ENDCHAR
STARTCHAR Uhorntilde
ENCODING 7918
SWIDTH 856 0
DWIDTH 9 0
BBX 10 14 0 -1
BITMAP
0022101100
0381220200
0D90000421
0EA4413702
4E229F7122
8F014E4221
8F025F4220
8F025F4220
8F025F4220
8F025F4220
8F02151220
8F51222030
4FFA778600
06DFFD7000
ENDCHAR
STARTCHAR uhorntilde
ENCODING 7919
SWIDTH 856 0
DWIDTH 9 0
BBX 10 14 0 -1
BITMAP
0022101100
0381220200
0D90000421
0EA4413702
4E229F7122
8F014E4221
8F025F4220
8F025F4220
8F025F4220
8F025F4220
8F02151220
8F51222030
4FFA778600
06DFFD7000
ENDCHAR
STARTCHAR Uhorndotbelow
ENCODING 7920
SWIDTH 856 0
DWIDTH 9 0
BBX 10 15 0 -5
BITMAP
0000000321
0622222122
6F013E4221
8F025F4220
8F025F4220
8F025F4220
8F025F4220
8F02151220
8F11222010
7F90000000
1DFE758300
007F212000
006F423000
006FFC2000
0015510000
ENDCHAR
STARTCHAR uhorndotbelow
ENCODING 7921
SWIDTH 856 0
DWIDTH 9 0
BBX 10 15 0 -5
BITMAP
0000000321
0622222122
6F013E4221
8F025F4220
8F025F4220
8F025F4220
8F025F4220
8F02151220
8F11222010
7F90000000
1DFE758300
007F212000
006F423000
006FFC2000
0015510000
ENDCHAR
STARTCHAR Ygrave
ENCODING 7922
SWIDTH 805 0
DWIDTH 9 0
BBX 9 13 0 -1
BITMAP
0059753000
07D8BDD600
0CB0000100
0A12576120
9C116F1120
CC118F1220
CD025A1120
BF51102110
6FE2130200
0AFA022000
01ED012000
00AE662000
009FF60000
ENDCHAR
STARTCHAR ygrave
ENCODING 7923
SWIDTH 805 0
DWIDTH 9 0
BBX 9 13 0 -1
BITMAP
0059753000
07D8BDD600
0CB0000100
0A12576120
9C116F1120
CC118F1220
CD025A1120
BF51102110
6FE2130200
0AFA022000
01ED012000
00AE662000
009FF60000
ENDCHAR
STARTCHAR Ydotbelow
ENCODING 7924
SWIDTH 805 0
DWIDTH 9 0
BBX 9 14 0 -5
BITMAP
0722253220
9C116F1120
CC118F1220
CD025A1120
BF61102110
4FE2130200
08FB022000
00DD012000
00AF773000
009D002000
007D012000
00AE221000
00AFF80000
0025400000
ENDCHAR
STARTCHAR ydotbelow
ENCODING 7925
SWIDTH 805 0
DWIDTH 9 0
BBX 9 14 0 -5
BITMAP
0722253220
9C116F1120
CC118F1220
CD025A1120
BF61102110
4FE2130200
08FB022000
00DD012000
00AF773000
009D002000
007D012000
00AE221000
00AFF80000
0025400000
ENDCHAR
STARTCHAR Yhookabove
ENCODING 7926
SWIDTH 805 0
DWIDTH 9 0
BBX 9 14 0 -1
BITMAP
0002121000
008D723000
00EF336000
005FEF8000
0722CC3220
9C116F1120
CC118F1220
CD025A1120
BF51102110
6FE2130200
0AFA022000
01ED012000
00AE662000
009FF60000
ENDCHAR
STARTCHAR yhookabove
ENCODING 7927
SWIDTH 805 0
DWIDTH 9 0
BBX 9 14 0 -1
BITMAP
0002121000
008D723000
00EF336000
005FEF8000
0722CC3220
9C116F1120
CC118F1220
CD025A1120
BF51102110
6FE2130200
0AFA022000
01ED012000
00AE662000
009FF60000
ENDCHAR
STARTCHAR Ytilde
ENCODING 7928
SWIDTH 805 0
DWIDTH 9 0
BBX 9 13 0 -1
BITMAP
0012222100
02A0221200
0AD3311000
0922CF4220
9C117F1120
CC118F1220
CD025A1120
BF51102110
6FE2130200
0AFA022000
01ED012000
00AE662000
009FF60000
ENDCHAR
STARTCHAR ytilde
ENCODING 7929
SWIDTH 805 0
DWIDTH 9 0
BBX 9 13 0 -1
BITMAP
0012222100
02A0221200
0AD3311000
0922CF4220
9C117F1120
CC118F1220
CD025A1120
BF51102110
6FE2130200
0AFA022000
01ED012000
00AE662000
009FF60000
ENDCHAR
STARTCHAR enspace
ENCODING 8192
SWIDTH 500 0
DWIDTH 6 0
BBX 1 1 0 0
BITMAP
00
ENDCHAR
STARTCHAR emspace
ENCODING 8193
SWIDTH 1000 0
DWIDTH 11 0
BBX 1 1 0 0
BITMAP
00
ENDCHAR
STARTCHAR uni2002
ENCODING 8194
SWIDTH 500 0
DWIDTH 6 0
BBX 1 1 0 0
BITMAP
00
ENDCHAR
STARTCHAR uni2003
ENCODING 8195
SWIDTH 1000 0
DWIDTH 11 0
BBX 1 1 0 0
BITMAP
00
ENDCHAR
STARTCHAR space.tab_en
ENCODING 8199
SWIDTH 1100 0
DWIDTH 12 0
BBX 1 1 0 0
BITMAP
00
ENDCHAR
STARTCHAR uni2010
ENCODING 8208
SWIDTH 520 0
DWIDTH 6 0
BBX 6 5 0 1
BITMAP
022221
5A1212
CC2223
CFFFB1
355400
ENDCHAR
STARTCHAR figuredash
ENCODING 8210
SWIDTH 834 0
DWIDTH 9 0
BBX 9 5 0 1
BITMAP
0122222220
2D02222120
7F32222230
7FFFFFFC10
1555555100
ENDCHAR
STARTCHAR endash
ENCODING 8211
SWIDTH 834 0
DWIDTH 9 0
BBX 9 5 0 1
BITMAP
0122222220
2D02222120
7F32222230
7FFFFFFC10
1555555100
ENDCHAR
STARTCHAR emdash
ENCODING 8212
SWIDTH 1234 0
DWIDTH 14 0
BBX 14 5 0 1
BITMAP
01222222222220
2D022222222201
7F322222222231
7FFFFFFFFFFF50
15555555555200
ENDCHAR
STARTCHAR horizontalbar
ENCODING 8213
SWIDTH 1234 0
DWIDTH 14 0
BBX 14 5 0 1
BITMAP
01222222222220
2D022222222201
7F322222222231
7FFFFFFFFFFF50
15555555555200
ENDCHAR
STARTCHAR quoteleft
ENCODING 8216
SWIDTH 484 0
DWIDTH 5 0
BBX 5 7 0 2
BITMAP
013430
1B2560
7D2020
AD1220
AE2230
AFFE20
255200
ENDCHAR
STARTCHAR quoteright
ENCODING 8217
SWIDTH 484 0
DWIDTH 5 0
BBX 5 7 0 2
BITMAP
072230
8D1230
AD0030
8F4330
6F9940
7FE400
020000
ENDCHAR
STARTCHAR quotesinglbase
ENCODING 8218
SWIDTH 484 0
DWIDTH 5 0
BBX 5 7 0 -3
BITMAP
022220
2C0020
AD1230
AF9430
7F1210
7FC800
386000
ENDCHAR
STARTCHAR quotedblleft
ENCODING 8220
SWIDTH 784 0
DWIDTH 9 0
BBX 9 7 0 2
BITMAP
0134354320
1A26B54710
9C20342020
BC22342120
CD22662210
BFFFFFF700
3552554000
ENDCHAR
STARTCHAR quotedblright
ENCODING 8221
SWIDTH 784 0
DWIDTH 9 0
BBX 9 7 0 2
BITMAP
0722352220
AC12342220
CC02340220
AE43694120
7F98FC9800
9FD3FF9000
0200110000
ENDCHAR
STARTCHAR quotedblbase
ENCODING 8222
SWIDTH 784 0
DWIDTH 9 0
BBX 9 7 0 -3
BITMAP
0222122210
3B00340020
BC12342220
CF844B7210
9E12872210
8FC9FEB200
4860872000
ENDCHAR
STARTCHAR dagger
ENCODING 8224
SWIDTH 818 0
DWIDTH 9 0
BBX 9 10 0 -1
BITMAP
0008222000
008F122110
1912021120
AC02232120
BD56125530
AEEF22BA00
006F122000
007F012000
007F763000
007FF70000
ENDCHAR
STARTCHAR daggerdbl
ENCODING 8225
SWIDTH 818 0
DWIDTH 9 0
BBX 9 10 0 -1
BITMAP
0019323110
2902232120
BD56124540
BFFF029C20
1636123220
5C02232120
BC00020020
BFCD118C40
79BF777500
007FF70000
ENDCHAR
STARTCHAR bullet
ENCODING 8226
SWIDTH 543 0
DWIDTH 6 0
BBX 6 7 0 0
BITMAP
022222
4B1222
BC2022
CC1222
CC2223
BFFFC1
355510
ENDCHAR
STARTCHAR ellipsis
ENCODING 8230
SWIDTH 1210 0
DWIDTH 13 0
BBX 13 5 0 -1
BITMAP
02222422242220
4C022D022D0220
AD002D002D0020
AE668E668E6660
9FFBAFFBAFFB10
ENDCHAR
STARTCHAR perthousand
ENCODING 8240
SWIDTH 1517 0
DWIDTH 17 0
BBX 17 10 0 -1
BITMAP
023445823000000000
4A2926A22000000000
BB2A25722000000000
CB2026313222012210
CE645B215221612220
7FFFCB25539272A220
0342B828539272A220
0000E40C6221912220
0003F97FE87AF97710
0005FD2BFE87EFB200
ENDCHAR
STARTCHAR minute
ENCODING 8242
SWIDTH 456 0
DWIDTH 5 0
BBX 5 7 0 2
BITMAP
062230
5E0120
8E0220
9E0120
9E2220
AFFA00
254000
ENDCHAR
STARTCHAR second
ENCODING 8243
SWIDTH 766 0
DWIDTH 8 0
BBX 9 7 0 2
BITMAP
0622452220
5E01661020
8E02752110
9E01851200
9E22B62300
AFFCFFD200
2541451000
ENDCHAR
STARTCHAR guilsinglleft
ENCODING 8249
SWIDTH 663 0
DWIDTH 7 0
BBX 7 8 0 -1
BITMAP
00012220
01312120
2C021330
8E025710
9F312120
7FEB7430
07BEFB10
00002000
ENDCHAR
STARTCHAR guilsinglright
ENCODING 8250
SWIDTH 663 0
DWIDTH 7 0
BBX 7 8 0 -1
BITMAP
02322100
2E211120
6F731220
5FB83220
1B212120
6F558710
6FDA6000
11000000
ENDCHAR
STARTCHAR fraction
ENCODING 8260
SWIDTH 417 0
DWIDTH 5 0
BBX 6 10 -1 -1
BITMAP
000623
00A812
00F522
02F222
05F112
07C210
0AA220
0D7120
0FA620
2FF600
ENDCHAR
STARTCHAR zero.sups
ENCODING 8304
SWIDTH 656 0
DWIDTH 7 0
BBX 7 9 0 0
BITMAP
01232200
17111110
781A9110
88199110
88188110
89122110
7E300200
1BFFB200
00110000
ENDCHAR
STARTCHAR foursuperior
ENCODING 8308
SWIDTH 608 0
DWIDTH 7 0
BBX 7 8 0 1
BITMAP
07236220
AB278220
CB278220
CB234220
CE543220
AFFF8120
045FD810
00099100
ENDCHAR
STARTCHAR five.sups
ENCODING 8309
SWIDTH 593 0
DWIDTH 7 0
BBX 7 9 0 0
BITMAP
07333300
7E100100
9E128600
9E111110
9FBB4120
4D122120
9E222300
AFFFC100
25540000
ENDCHAR
STARTCHAR six.sups
ENCODING 8310
SWIDTH 628 0
DWIDTH 7 0
BBX 7 9 0 0
BITMAP
00343310
1B200110
7E129700
9E221120
9E14B120
9F213130
8FEA9920
2DFFB100
00110000
ENDCHAR
STARTCHAR seven.sups
ENCODING 8311
SWIDTH 577 0
DWIDTH 6 0
BBX 7 9 0 0
BITMAP
07333300
AB220210
DFFD2210
35822200
0A415300
3F415000
4F621000
4FF60000
15300000
ENDCHAR
STARTCHAR eight.sups
ENCODING 8312
SWIDTH 638 0
DWIDTH 7 0
BBX 7 9 0 0
BITMAP
00333310
0A400120
5F439120
5F433220
6C16C120
BD123130
BFDA9A30
4EFFC200
00110000
ENDCHAR
STARTCHAR nine.sups
ENCODING 8313
SWIDTH 628 0
DWIDTH 7 0
BBX 7 9 0 0
BITMAP
01233310
2A100120
AC169220
BE213320
AFD95120
1C622120
2F822310
2FFFC100
04540000
ENDCHAR
STARTCHAR parenleft.sups
ENCODING 8317
SWIDTH 434 0
DWIDTH 5 0
BBX 5 10 0 0
BITMAP
001110
151110
871500
A71100
A71100
A71100
A71110
9C2010
4EF800
001000
ENDCHAR
STARTCHAR parenright.sups
ENCODING 8318
SWIDTH 435 0
DWIDTH 5 0
BBX 5 10 0 0
BITMAP
031100
871210
AF4110
0C4110
0C4110
0C4110
071110
871200
AFA100
110000
ENDCHAR
STARTCHAR n.sups
ENCODING 8319
SWIDTH 673 0
DWIDTH 7 0
BBX 7 8 0 1
BITMAP
01232210
29156110
7918B110
7917B110
7917B110
7907B010
7FB7FC20
02002100
ENDCHAR
STARTCHAR zero.sinf
ENCODING 8320
SWIDTH 656 0
DWIDTH 7 0
BBX 7 9 0 -2
BITMAP
01232200
17111110
781A9110
88199110
88188110
89122110
7E300200
1BFFB200
00110000
ENDCHAR
STARTCHAR one.sinf
ENCODING 8321
SWIDTH 557 0
DWIDTH 6 0
BBX 6 9 0 -2
BITMAP
073430
7F5120
8FF120
09F120
088112
3B1212
BD2222
BFFFE2
355520
ENDCHAR
STARTCHAR two.sinf
ENCODING 8322
SWIDTH 585 0
DWIDTH 6 0
BBX 7 9 0 -2
BITMAP
07244300
7FA92210
7EB42110
08222300
7B237210
CB222120
CC222210
CFFFF400
35553000
ENDCHAR
STARTCHAR three.sinf
ENCODING 8323
SWIDTH 584 0
DWIDTH 6 0
BBX 7 9 0 -2
BITMAP
07343200
8C001200
BFB82200
5D713310
1FCB4110
2C122120
AD222300
BFFFB100
35540000
ENDCHAR
STARTCHAR four.sinf
ENCODING 8324
SWIDTH 620 0
DWIDTH 7 0
BBX 7 8 0 -1
BITMAP
17246220
BA287220
DA287220
DA243220
DE432220
BFFF7120
146FD810
00098100
ENDCHAR
STARTCHAR five.sinf
ENCODING 8325
SWIDTH 593 0
DWIDTH 7 0
BBX 7 9 0 -2
BITMAP
07333300
7E100100
9E128600
9E111110
9FBB4120
4D122120
9E222300
AFFFC100
25540000
ENDCHAR
STARTCHAR six.sinf
ENCODING 8326
SWIDTH 628 0
DWIDTH 7 0
BBX 7 9 0 -2
BITMAP
00343310
1B200110
7E129700
9E221120
9E14B120
9F213130
8FEA9920
2DFFB100
00110000
ENDCHAR
STARTCHAR seven.sinf
ENCODING 8327
SWIDTH 577 0
DWIDTH 6 0
BBX 7 9 0 -2
BITMAP
07333300
AB220210
DFFD2210
35822200
0A415300
3F415000
4F621000
4FF60000
15300000
ENDCHAR
STARTCHAR eight.sinf
ENCODING 8328
SWIDTH 638 0
DWIDTH 7 0
BBX 7 9 0 -2
BITMAP
00333310
0A400120
5F439120
5F433220
6C16C120
BD123130
BFDA9A30
4EFFC200
00110000
ENDCHAR
STARTCHAR nine.sinf
ENCODING 8329
SWIDTH 628 0
DWIDTH 7 0
BBX 7 9 0 -2
BITMAP
01233310
2A100120
AC169220
BE213320
AFD95120
1C622120
2F822310
2FFFC100
04540000
ENDCHAR
STARTCHAR parenleft.sinf
ENCODING 8333
SWIDTH 434 0
DWIDTH 5 0
BBX 5 10 0 -2
BITMAP
001110
151110
871500
A71100
A71100
A71100
A71110
9C2010
4EF800
001000
ENDCHAR
STARTCHAR parenright.sinf
ENCODING 8334
SWIDTH 435 0
DWIDTH 5 0
BBX 5 10 0 -2
BITMAP
031100
871210
AF4110
0C4110
0C4110
0C4110
071110
871200
AFA100
110000
ENDCHAR
STARTCHAR colonsign
ENCODING 8353
SWIDTH 728 0
DWIDTH 8 0
BBX 8 13 0 -3
BITMAP
00013220
001C1810
01831004
0C112222
6E021223
9E029FD2
9E024510
9E021222
9F322222
6FD71224
1CFF4B42
008FED30
00133100
ENDCHAR
STARTCHAR lira
ENCODING 8356
SWIDTH 795 0
DWIDTH 9 0
BBX 9 10 0 -1
BITMAP
0022222200
0632320200
3E123BA100
7813161000
DB02222210
E813180020
EE024B0120
9F02222120
8F76666620
7FFFFFF500
ENDCHAR
STARTCHAR naira
ENCODING 8358
SWIDTH 853 0
DWIDTH 9 0
BBX 10 10 0 -1
BITMAP
0622245230
5F031A5220
8C02202211
8812020202
EC02211222
D812851302
FF028E2220
9F018F5120
8F765FA650
7FF62FFB10
ENDCHAR
STARTCHAR peseta
ENCODING 8359
SWIDTH 812 0
DWIDTH 9 0
BBX 11 10 -1 -1
BITMAP
005322222000
04F022220200
08C026B02200
098128E03110
1FF020002400
0BF033455100
08F027FA1000
08F003200000
08F762000000
07FF60000000
ENDCHAR
STARTCHAR dong
ENCODING 8363
SWIDTH 782 0
DWIDTH 9 0
BBX 9 13 0 -4
BITMAP
0001342210
001C223120
006EC52310
0242223200
2B20002200
AB22F72200
CB12D62200
CD02221100
BF91003100
3DBAAA4100
2E62222200
4FFFFF7000
1555530000
ENDCHAR
STARTCHAR Euro
ENCODING 8364
SWIDTH 748 0
DWIDTH 8 0
BBX 8 10 0 -1
BITMAP
00222223
04512221
2D222786
6B132220
CD124860
BB132220
CF222752
8F712211
3FFA7666
07EFFFC1
ENDCHAR
STARTCHAR peso
ENCODING 8369
SWIDTH 812 0
DWIDTH 9 0
BBX 10 10 0 -1
BITMAP
0622222210
5C01002020
88126B0311
EC028E0240
D812000301
DF03344310
8F027FA100
8F00320000
8F76200000
6FF6000000
ENDCHAR
STARTCHAR guarani
ENCODING 8370
SWIDTH 788 0
DWIDTH 9 0
BBX 9 12 0 -2
BITMAP
0001221000
0018112200
0132231200
1D02022300
7E02AFF400
9E026A4010
9E025C0120
9F02350220
8F71232120
3FFD106910
04CFBA8100
004BB30000
ENDCHAR
STARTCHAR cedi
ENCODING 8373
SWIDTH 728 0
DWIDTH 8 0
BBX 8 13 0 -3
BITMAP
00013210
001C1002
01A70134
0C322312
6E021223
9E029FD2
9E024510
9E021222
9F312212
6FE80124
0BFF3271
008FFB10
00154000
ENDCHAR
STARTCHAR indianrupee
ENCODING 8377
SWIDTH 713 0
DWIDTH 8 0
BBX 8 10 0 -1
BITMAP
18345432
AD220113
7E782342
AC000202
BF991272
7D345211
BFFFF022
355AF002
0007F764
0006FF80
ENDCHAR
STARTCHAR turkishlira
ENCODING 8378
SWIDTH 795 0
DWIDTH 9 0
BBX 10 10 -1 -1
BITMAP
0072220000
08E0221000
0971332000
1EA0322321
1E6225B202
1FD027F222
1DE0247111
09E0222210
09F7667710
08FFFEA100
ENDCHAR
STARTCHAR ruble
ENCODING 8381
SWIDTH 782 0
DWIDTH 9 0
BBX 9 10 0 -1
BITMAP
0632222200
5F02332020
8F028F0220
8F02240220
8F03222210
8D023AB300
8713152000
FB01310000
EF76200000
7FF6000000
ENDCHAR
STARTCHAR liter
ENCODING 8467
SWIDTH 749 0
DWIDTH 8 0
BBX 8 11 0 -2
BITMAP
00012200
00312122
1B021122
7E02A422
9E025122
9E032212
9E026A70
9F122110
8FA20020
2EFFFE50
01455200
ENDCHAR
STARTCHAR uni2117
ENCODING 8471
SWIDTH 967 0
DWIDTH 11 0
BBX 11 12 0 -3
BITMAP
001333333100
0445ADDB5310
3E2C2335E220
8E2C2242A220
9E2C25829220
9E2C2222D220
9E2C25CBF220
9E2C3527F220
8F46A3267310
5FD732235100
08FFFFFC2000
001444200000
ENDCHAR
STARTCHAR uni2120
ENCODING 8480
SWIDTH 1003 0
DWIDTH 11 0
BBX 11 7 0 1
BITMAP
032329235320
6A248E223320
CD221B212220
BD852927D220
8B345D39F330
CFFDBFA8FC10
222012012000
ENDCHAR
STARTCHAR trademark
ENCODING 8482
SWIDTH 1003 0
DWIDTH 11 0
BBX 12 7 -1 1
BITMAP
036333723532
1EC526C22332
1BF92BE21222
00E92BE27D22
00EB3BF39F33
00DF79FA8FC1
002201201200
ENDCHAR
STARTCHAR Omega
ENCODING 8486
SWIDTH 877 0
DWIDTH 10 0
BBX 10 11 0 -2
BITMAP
0000122000
0022010220
0742212220
3F224E5201
6F224F7201
6F223F7211
6F422F6221
6A021A1312
CA000A0002
DFFFEFFFB1
3554255400
ENDCHAR
STARTCHAR estimated
ENCODING 8494
SWIDTH 815 0
DWIDTH 9 0
BBX 9 11 0 -2
BITMAP
0000221000
0031001210
1A02222120
8D02AE1220
AD02111220
AD02111120
AD029EEC20
AE02221200
8FA2000200
2DFFFFE300
0045551000
ENDCHAR
STARTCHAR onethird
ENCODING 8531
SWIDTH 1269 0
DWIDTH 14 0
BBX 14 10 0 -1
BITMAP
07343055220000
6F5123F2120000
9FF126E2142220
2BF129B2352212
078118926EA322
5C3444626F0232
BFFFFF32AEB912
35557F10B52222
00007F76FA6662
00008FC4FFFC20
ENDCHAR
STARTCHAR twothirds
ENCODING 8532
SWIDTH 1269 0
DWIDTH 14 0
BBX 14 10 0 -1
BITMAP
06244465220000
5F7712F2120000
8F9431E2142220
28222AB2352212
7B2377926EA322
CB3222626F0232
CFFFFF329EB912
35558F10B52222
00007F76FA6662
00008FC4FFFC20
ENDCHAR
STARTCHAR oneeighth
ENCODING 8539
SWIDTH 1283 0
DWIDTH 14 0
BBX 14 10 0 -1
BITMAP
19243075220000
8FC124F2112220
4CF127E2141112
08F129B2343B12
1A110292671113
AD344462812222
BFFFFF32915E12
35557F10C12311
00007F77FB6550
00008FC5DFEB20
ENDCHAR
STARTCHAR threeeighths
ENCODING 8540
SWIDTH 1293 0
DWIDTH 14 0
BBX 14 10 0 -1
BITMAP
19453276220000
AFC715F3212220
5C7123E2151112
1FCB41B2152C12
1C000192481113
5D344782732222
BFFFDF52913E22
35543F20C11311
00005F77FC6551
00006FD5CFFB30
ENDCHAR
STARTCHAR fiveeighths
ENCODING 8541
SWIDTH 1303 0
DWIDTH 14 0
BBX 15 10 0 -1
BITMAP
0733335722000000
7E1157F521222100
9E1111D225111200
9FBB41B2071C2200
9D0001922A111300
6E34479254222200
AFFFCE72722E3110
35541F40A3131100
00003F86EC656100
00005FE5CEFC4000
ENDCHAR
STARTCHAR seveneighths
ENCODING 8542
SWIDTH 1241 0
DWIDTH 14 0
BBX 14 10 0 -1
BITMAP
283334A2300000
CB210292122210
68801372411220
08427C42718420
2F419F22C20040
4F639E11822312
4FF79C2361B712
1530C905812211
0000EB6BE85630
0000EF79EFD600
ENDCHAR
STARTCHAR arrowleft
ENCODING 8592
SWIDTH 1100 0
DWIDTH 12 0
BBX 10 9 1 -1
BITMAP
0000001000
0000122000
0001111120
0031220102
1B81222202
3FFB221E91
03CFE62600
0008FF6000
0000350000
ENDCHAR
STARTCHAR arrowup
ENCODING 8593
SWIDTH 1100 0
DWIDTH 12 0
BBX 8 9 2 -1
BITMAP
00002100
00081110
00842120
03811112
0B013212
8EBA22B6
68DC1260
00BD6500
009DB100
ENDCHAR
STARTCHAR arrowright
ENCODING 8594
SWIDTH 1100 0
DWIDTH 12 0
BBX 10 9 1 -1
BITMAP
0000110000
0003811000
001D911210
0640121111
3F51231211
3FEE911520
166E926100
000ED40000
0006100000
ENDCHAR
STARTCHAR arrowdown
ENCODING 8595
SWIDTH 1100 0
DWIDTH 12 0
BBX 8 9 2 -1
BITMAP
00032200
007B1200
01AA2222
3B013202
CF710112
4FF22120
08FC0110
01DF9100
003C3000
ENDCHAR
STARTCHAR arrowupleft
ENCODING 8598
SWIDTH 1100 0
DWIDTH 12 0
BBX 8 8 2 -1
BITMAP
05222220
7F132102
8F321120
5F622221
2F905112
0ED7FB21
0B82EB10
00001000
ENDCHAR
STARTCHAR arrowupright
ENCODING 8599
SWIDTH 1100 0
DWIDTH 12 0
BBX 8 8 2 -1
BITMAP
00122222
06302222
5FD22022
0BC22212
07114211
7FB4ED40
2DC2BB10
01100000
ENDCHAR
STARTCHAR arrowdownright
ENCODING 8600
SWIDTH 1100 0
DWIDTH 12 0
BBX 8 8 2 -1
BITMAP
00321220
08112211
7FB12212
2DE22022
06402222
3FEB8532
17ADFFC1
00001300
ENDCHAR
STARTCHAR arrowdownleft
ENCODING 8601
SWIDTH 1100 0
DWIDTH 12 0
BBX 8 8 2 -1
BITMAP
00420321
07904112
0D621221
1F322120
4F132202
7E247A91
9FEC9600
12000000
ENDCHAR
STARTCHAR uni21AA
ENCODING 8618
SWIDTH 1100 0
DWIDTH 12 0
BBX 10 11 1 -2
BITMAP
0002222220
0151222120
1D42688840
4F32CCC700
5F32B71200
5F42761121
5F81223212
2FFB961141
05ABE72610
0001FA4000
0002910000
ENDCHAR
STARTCHAR uni21AB
ENCODING 8619
SWIDTH 1100 0
DWIDTH 12 0
BBX 10 11 1 -2
BITMAP
0012222210
02C1122212
07F9888422
05CCCCDB22
000020BB22
0012208522
0621322212
6FD4208950
1AFF818400
006EFD2000
0002940000
ENDCHAR
STARTCHAR uni21B0
ENCODING 8624
SWIDTH 1100 0
DWIDTH 12 0
BBX 10 10 1 -2
BITMAP
0000022000
0001102000
0020202120
1B21322211
8FE710C322
08FFB2B622
003CFDF622
000063F602
000002FF90
0000004400
ENDCHAR
STARTCHAR uni21B1
ENCODING 8625
SWIDTH 1100 0
DWIDTH 12 0
BBX 10 10 1 -2
BITMAP
0000341000
0003E60210
0013532111
0361223303
1E52971250
3F52C45400
3F52C91000
3F50400000
3FF8000000
0540000000
ENDCHAR
STARTCHAR uni21B2
ENCODING 8626
SWIDTH 1100 0
DWIDTH 12 0
BBX 10 10 1 -2
BITMAP
0000001421
000001D612
000012C622
000210E522
0121313212
3D41311130
7FF910E900
05EFD43000
001AFB1000
0000300000
ENDCHAR
STARTCHAR uni21B3
ENCODING 8627
SWIDTH 1100 0
DWIDTH 12 0
BBX 10 10 1 -2
BITMAP
0332000000
4E22100000
6F22822000
6F22F40210
6F32213111
6FB2223212
1DFFF40530
0137F36100
0007E50000
0002100000
ENDCHAR
STARTCHAR partialdiff
ENCODING 8706
SWIDTH 792 0
DWIDTH 9 0
BBX 9 10 0 -2
BITMAP
0171112200
0C91222020
0EECB81120
0861221120
2B02222120
AC01BB1120
BD02112020
AF71221200
5FFEDD9000
0267740000
ENDCHAR
STARTCHAR Delta
ENCODING 8710
SWIDTH 830 0
DWIDTH 9 0
BBX 9 10 0 -2
BITMAP
0043111200
04D0222200
0992162110
0D624C1120
2F228F0220
5E02AE2220
9D03111220
AD00000020
AFFFFFFD30
2555555100
ENDCHAR
STARTCHAR product
ENCODING 8719
SWIDTH 859 0
DWIDTH 9 0
BBX 9 10 0 -2
BITMAP
0721111120
6F03222320
8F026C4220
8F026F5220
8F024F5220
8F024F5220
8F024F5220
8F104F6020
7FFC4FFE40
2550045200
ENDCHAR
STARTCHAR summation
ENCODING 8721
SWIDTH 750 0
DWIDTH 8 0
BBX 8 11 0 -3
BITMAP
07111112
7F032212
8F1207C4
8FD22140
1CFC0220
01B22120
04220321
5B122211
BC000002
BFFFFFE5
34444420
ENDCHAR
STARTCHAR minus
ENCODING 8722
SWIDTH 834 0
DWIDTH 9 0
BBX 9 5 0 1
BITMAP
0011111100
0810000020
6F11111120
7FEEEEEC20
2666666100
ENDCHAR
STARTCHAR uni2215
ENCODING 8725
SWIDTH 417 0
DWIDTH 5 0
BBX 6 10 -1 -1
BITMAP
000623
00A812
00F522
02F222
05F112
07C210
0AA220
0D7120
0FA620
2FF600
ENDCHAR
STARTCHAR uni2219
ENCODING 8729
SWIDTH 464 0
DWIDTH 5 0
BBX 5 5 0 1
BITMAP
022220
5B0220
BC0020
CD6650
BFFB10
ENDCHAR
STARTCHAR radical
ENCODING 8730
SWIDTH 841 0
DWIDTH 9 0
BBX 10 11 0 -2
BITMAP
0000006212
000007B101
00000C8220
03222F4220
89114F1220
EB321C1120
DFE1222100
0AF5212200
04FB010200
00DFFF9000
0025540000
ENDCHAR
STARTCHAR infinity
ENCODING 8734
SWIDTH 978 0
DWIDTH 11 0
BBX 11 9 0 -1
BITMAP
000010011000
022122222210
2B1122231220
AC22F12E6220
BC22F23C5220
CD1222222120
BF8337633410
5EFFCFFFA100
002101310000
ENDCHAR
STARTCHAR integral
ENCODING 8747
SWIDTH 574 0
DWIDTH 6 0
BBX 8 12 -1 -3
BITMAP
00012212
00190202
00AA2071
00D92020
00E92020
00E92020
00E92020
00D72020
05612110
1F702300
1FFE6000
04410000
ENDCHAR
STARTCHAR approxequal
ENCODING 8776
SWIDTH 834 0
DWIDTH 9 0
BBX 9 7 0 0
BITMAP
0222222220
3D02222120
7F9BB97720
5A9668A320
1C12222120
7F68865520
7DBCEFC400
ENDCHAR
STARTCHAR notequal
ENCODING 8800
SWIDTH 834 0
DWIDTH 9 0
BBX 9 9 0 -1
BITMAP
0000322000
0322411220
4E02232120
8FA9225930
4BBA227610
2C02232120
7F53104430
7FFC57F900
00CFB10000
ENDCHAR
STARTCHAR lessequal
ENCODING 8804
SWIDTH 814 0
DWIDTH 9 0
BBX 9 11 0 -2
BITMAP
0000000100
0000222120
0032122020
0932137600
4F224B8000
6F51211210
4FE9512020
0B21111020
5F30000020
6FFFFFF800
1555553000
ENDCHAR
STARTCHAR greaterequal
ENCODING 8805
SWIDTH 814 0
DWIDTH 9 0
BBX 9 11 0 -2
BITMAP
0010000000
0642221000
4F41211200
4FD8412120
19DFD80220
0132122110
2D41137500
4F41111020
4F40000020
4FFFFFF900
1555554000
ENDCHAR
STARTCHAR block
ENCODING 9608
SWIDTH 1000 0
DWIDTH 11 0
BBX 13 12 -1 -2
BITMAP
5CCCCCCCCCCC50
7FFFFFFFFFFF70
7FFFFFFFFFFF70
7FFFFFFFFFFF70
7FFFFFFFFFFF70
7FFFFFFFFFFF70
7FFFFFFFFFFF70
7FFFFFFFFFFF70
7FFFFFFFFFFF70
7FFFFFFFFFFF70
7FFFFFFFFFFF70
6DDDDDDDDDDD60
ENDCHAR
STARTCHAR blacksquare
ENCODING 9632
SWIDTH 1100 0
DWIDTH 12 0
BBX 8 7 2 0
BITMAP
00222221
0A500002
3F522302
3F522302
3F500002
3FB88871
1BCCCA20
ENDCHAR
STARTCHAR blackuppointingtriangle
ENCODING 9650
SWIDTH 1100 0
DWIDTH 12 0
BBX 8 7 2 0
BITMAP
00002100
00091100
00851020
02A02211
0A202102
5E888885
7CCCCC80
ENDCHAR
STARTCHAR whiteuppointingtriangle
ENCODING 9651
SWIDTH 1100 0
DWIDTH 12 0
BBX 7 6 3 1
BITMAP
00032000
00314000
00300400
04000310
22000040
23333340
ENDCHAR
STARTCHAR blackrightpointingtriangle
ENCODING 9654
SWIDTH 1100 0
DWIDTH 12 0
BBX 8 9 2 -1
BITMAP
00100000
06421000
3F401200
4F422021
4F422021
4F401620
4F556000
3FA10000
03000000
ENDCHAR
STARTCHAR whiterightpointingtriangle
ENCODING 9655
SWIDTH 1100 0
DWIDTH 12 0
BBX 6 8 4 0
BITMAP
100000
442000
302400
300041
300042
302400
442000
100000
ENDCHAR
STARTCHAR blackdownpointingtriangle
ENCODING 9660
SWIDTH 1100 0
DWIDTH 12 0
BBX 8 7 2 0
BITMAP
03222222
6E202202
9FA02211
1EF41020
06FD0200
00BF9100
002A2000
ENDCHAR
STARTCHAR whitedownpointingtriangle
ENCODING 9661
SWIDTH 1100 0
DWIDTH 12 0
BBX 7 6 3 1
BITMAP
23333340
22000040
04000310
00300300
00314000
00032000
ENDCHAR
STARTCHAR blackleftpointingtriangle
ENCODING 9664
SWIDTH 1100 0
DWIDTH 12 0
BBX 8 9 2 -1
BITMAP
00000010
00000212
00012002
00311302
1BA11302
2EFE5002
019FFB22
0004CFA0
00000400
ENDCHAR
STARTCHAR whiteleftpointingtriangle
ENCODING 9665
SWIDTH 1100 0
DWIDTH 12 0
BBX 6 8 4 0
BITMAP
000010
000433
024003
420003
320003
024003
000433
000010
ENDCHAR
STARTCHAR blackdiamond
ENCODING 9670
SWIDTH 1100 0
DWIDTH 12 0
BBX 9 9 2 -1
BITMAP
0000100000
0001120000
0021102000
0211120200
5C11120210
CFB1102100
2DFB121000
02DF910000
0027000000
ENDCHAR
STARTCHAR lozenge
ENCODING 9674
SWIDTH 831 0
DWIDTH 9 0
BBX 9 10 0 -2
BITMAP
0024111100
01C1222200
0782162110
0E226E0220
5F126E1220
7F72172110
2FE1222200
0AF6000200
03FFFF6000
0045530000
ENDCHAR
STARTCHAR uni25D6
ENCODING 9686
SWIDTH 546 0
DWIDTH 6 0
BBX 7 12 0 -2
BITMAP
00059B50
02BFFF70
1BFFFF70
5FFFFF70
AFFFFF70
DFFFFF70
DFFFFF70
BFFFFF70
6FFFFF70
1BFFFF70
02BFFF70
0016AD60
ENDCHAR
STARTCHAR uni25D7
ENCODING 9687
SWIDTH 546 0
DWIDTH 6 0
BBX 7 12 -1 -2
BITMAP
5B950000
7FFEB200
7FFFFB10
7FFFFF50
7FFFFFA0
7FFFFFD0
7FFFFFD0
7FFFFFB0
7FFFFF60
7FFFFB10
7FFFB200
6DA61000
ENDCHAR
STARTCHAR uni25DC
ENCODING 9692
SWIDTH 1280 0
DWIDTH 14 0
BBX 12 12 1 -2
BITMAP
00000258ABCA
00029DFFFFFD
003CFFFFFFFD
02CFFFFFFFFD
09FFFFFFFFFD
2DFFFFFFFFFD
5FFFFFFFFFFD
8FFFFFFFFFFD
AFFFFFFFFFFD
BFFFFFFFFFFD
CFFFFFFFFFFD
ADDDDDDDDDDC
ENDCHAR
STARTCHAR uni25DD
ENCODING 9693
SWIDTH 1280 0
DWIDTH 14 0
BBX 12 12 1 -2
BITMAP
9CBA85200000
CFFFFFD92000
CFFFFFFFD400
CFFFFFFFFD20
CFFFFFFFFFA0
CFFFFFFFFFE3
CFFFFFFFFFF6
CFFFFFFFFFFA
CFFFFFFFFFFB
CFFFFFFFFFFC
CFFFFFFFFFFD
BDDDDDDDDDDC
ENDCHAR
STARTCHAR uni25DE
ENCODING 9694
SWIDTH 1280 0
DWIDTH 14 0
BBX 12 12 1 -2
BITMAP
ACCCCCCCCCCA
CFFFFFFFFFFD
CFFFFFFFFFFD
CFFFFFFFFFFC
CFFFFFFFFFFA
CFFFFFFFFFF7
CFFFFFFFFFE3
CFFFFFFFFFA0
CFFFFFFFFD30
CFFFFFFFD500
CFFFFFEB3000
ADDCA7300000
ENDCHAR
STARTCHAR uni25DF
ENCODING 9695
SWIDTH 1280 0
DWIDTH 14 0
BBX 12 12 1 -2
BITMAP
9CCCCCCCCCCB
CFFFFFFFFFFD
BFFFFFFFFFFD
AFFFFFFFFFFD
9FFFFFFFFFFD
5FFFFFFFFFFD
2DFFFFFFFFFD
09FFFFFFFFFD
02DFFFFFFFFD
004DFFFFFFFD
0003AEFFFFFD
0000036ACDDC
ENDCHAR
STARTCHAR uni261A
ENCODING 9754
SWIDTH 1100 0
DWIDTH 12 0
BBX 10 8 1 -1
BITMAP
0122222532
2911100022
CFFC100022
23CF200022
008F610022
004FEDDE43
0016779FC1
0000001200
ENDCHAR
STARTCHAR uni261B
ENCODING 9755
SWIDTH 1100 0
DWIDTH 12 0
BBX 10 8 1 -1
BITMAP
0622222221
7E02001113
9E020005E3
9E02001410
9E02002200
9F2ADD9100
9FA7650000
1200000000
ENDCHAR
STARTCHAR uni261C
ENCODING 9756
SWIDTH 1100 0
DWIDTH 12 0
BBX 9 6 2 1
BITMAP
1333332590
43330024A0
00430004A0
00151004A0
00051014A0
0002343690
ENDCHAR
STARTCHAR uni261D
ENCODING 9757
SWIDTH 1100 0
DWIDTH 12 0
BBX 7 9 3 -1
BITMAP
04500000
04400000
04465300
04123400
03000400
03000300
15333530
29999970
01111110
ENDCHAR
STARTCHAR uni261E
ENCODING 9758
SWIDTH 1100 0
DWIDTH 12 0
BBX 9 6 2 1
BITMAP
2943333320
3850013350
3840025000
3840024000
3840034000
2954430000
ENDCHAR
STARTCHAR uni261F
ENCODING 9759
SWIDTH 1100 0
DWIDTH 12 0
BBX 7 9 3 -1
BITMAP
2AAAAA80
15444530
03000300
03000130
03321040
02566130
00003220
00003510
00000100
ENDCHAR
STARTCHAR uni27A1
ENCODING 10145
SWIDTH 650 0
DWIDTH 7 0
BBX 8 18 -1 -5
BITMAP
01000000
0BA10000
0CF80000
5EFE5000
7FFFD200
7FFFFB10
7FFFFF80
7FFFFFE5
7FFFFFFC
7FFFFFFC
7FFFFFE5
7FFFFF90
7FFFFB10
7FFFD300
6EFE5000
0CF90000
0BB10000
01100000
ENDCHAR
STARTCHAR uni2B1B
ENCODING 11035
SWIDTH 1280 0
DWIDTH 14 0
BBX 12 12 1 -2
BITMAP
9CCCCCCCCCCA
CFFFFFFFFFFD
CFFFFFFFFFFD
CFFFFFFFFFFD
CFFFFFFFFFFD
CFFFFFFFFFFD
CFFFFFFFFFFD
CFFFFFFFFFFD
CFFFFFFFFFFD
CFFFFFFFFFFD
CFFFFFFFFFFD
ADDDDDDDDDDC
ENDCHAR
STARTCHAR uni2B24
ENCODING 11044
SWIDTH 1280 0
DWIDTH 14 0
BBX 14 14 0 -3
BITMAP
00000011000000
00027CDDC82000
004DFFFFFFD500
02DFFFFFFFFD30
08FFFFFFFFFF90
1DFFFFFFFFFFD1
3DFFFFFFFFFFE3
3DFFFFFFFFFFE3
1DFFFFFFFFFFD2
0AFFFFFFFFFFB0
04EFFFFFFFFE50
007EFFFFFFE800
0005CEFFEC6000
00000344300000
ENDCHAR
STARTCHAR A.salt
ENCODING 57600
SWIDTH 836 0
DWIDTH 9 0
BBX 9 11 0 -2
BITMAP
0000221000
0031000210
0A12212120
6F028E2220
8F028E3220
8F03111220
8F02110220
8F029F3220
8F008F3020
8FFA6FFD20
2540155100
ENDCHAR
STARTCHAR Agrave.salt
ENCODING 57601
SWIDTH 836 0
DWIDTH 9 0
BBX 9 13 0 -2
BITMAP
0032222100
04E0221200
08FB965300
04A2000210
0A12212120
6F028E2220
8F028E3220
8F03111220
8F02110220
8F029F3220
8F008F3020
8FFA6FFD20
2540155100
ENDCHAR
STARTCHAR Aacute.salt
ENCODING 57602
SWIDTH 836 0
DWIDTH 9 0
BBX 9 13 0 -2
BITMAP
0002222200
0082121200
06F6679300
06B2000210
0A12212120
6F028E2220
8F028E3220
8F03111220
8F02110220
8F029F3220
8F008F3020
8FFA6FFD20
2540155100
ENDCHAR
STARTCHAR Acircumflex.salt
ENCODING 57603
SWIDTH 836 0
DWIDTH 9 0
BBX 9 13 0 -2
BITMAP
0002222100
0090221200
07F69A8400
08B2000210
0A12212120
6F028E2220
8F028E3220
8F03111220
8F02110220
8F029F3220
8F008F3020
8FFA6FFD20
2540155100
ENDCHAR
STARTCHAR Atilde.salt
ENCODING 57604
SWIDTH 836 0
DWIDTH 9 0
BBX 9 13 0 -2
BITMAP
0002222100
01A0221200
08F6754300
07B2000210
0A12212120
6F028E2220
8F028E3220
8F03111220
8F02110220
8F029F3220
8F008F3020
8FFA6FFD20
2540155100
ENDCHAR
STARTCHAR Adieresis.salt
ENCODING 57605
SWIDTH 836 0
DWIDTH 9 0
BBX 9 13 0 -2
BITMAP
0022232200
05B1091200
0CD55B5400
0BB2000220
0A12212120
6F028E2220
8F028E3220
8F03111220
8F02110220
8F029F3220
8F008F3020
8FFA6FFD20
2540155100
ENDCHAR
STARTCHAR Aring.salt
ENCODING 57606
SWIDTH 836 0
DWIDTH 9 0
BBX 9 13 0 -2
BITMAP
0002222100
0191242200
08E25D2200
0AA1232110
0B12212120
6F028E2220
8F028E3220
8F03111220
8F02110220
8F029F3220
8F008F3020
8FFA6FFD20
2540155100
ENDCHAR
STARTCHAR Amacron.salt
ENCODING 57607
SWIDTH 836 0
DWIDTH 9 0
BBX 9 13 0 -2
BITMAP
0002222100
01B0221200
08F6545300
07B2000210
0A12212120
6F028E2220
8F028E3220
8F03111220
8F02110220
8F029F3220
8F008F3020
8FFA6FFD20
2540155100
ENDCHAR
STARTCHAR Abreve.salt
ENCODING 57608
SWIDTH 836 0
DWIDTH 9 0
BBX 9 13 0 -2
BITMAP
0052252200
06F2242200
08FB545100
03A2000210
0A12212120
6F028E2220
8F028E3220
8F03111220
8F02110220
8F029F3220
8F008F3020
8FFA6FFD20
2540155100
ENDCHAR
STARTCHAR Aogonek.salt
ENCODING 57609
SWIDTH 836 0
DWIDTH 9 0
BBX 9 13 0 -4
BITMAP
0000221000
0031000210
0A12212120
6F028E2220
8F028E3220
8F03111220
8F02110220
8F029F3220
8F008F3120
8FFA6F2140
25408F2120
00008FFD30
0000155200
ENDCHAR
STARTCHAR E.salt
ENCODING 57610
SWIDTH 743 0
DWIDTH 8 0
BBX 8 10 0 -2
BITMAP
00221112
09122222
6E028DC4
9E021120
9E021120
9E029E61
9F122112
7FA20002
1DFFFFE4
00455520
ENDCHAR
STARTCHAR Egrave.salt
ENCODING 57611
SWIDTH 743 0
DWIDTH 8 0
BBX 8 13 0 -2
BITMAP
00422220
08A12202
0DEA9752
06A31112
09122222
6E028DC4
9E021120
9E021120
9E029E61
9F122112
7FA20002
1DFFFFE4
00455520
ENDCHAR
STARTCHAR Eacute.salt
ENCODING 57612
SWIDTH 743 0
DWIDTH 8 0
BBX 8 13 0 -2
BITMAP
00022222
01902212
09E56892
09B31112
09122222
6E028DC4
9E021120
9E021120
9E029E61
9F122112
7FA20002
1DFFFFE4
00455520
ENDCHAR
STARTCHAR Ecircumflex.salt
ENCODING 57613
SWIDTH 743 0
DWIDTH 8 0
BBX 8 13 0 -2
BITMAP
00022221
01802212
0AD6AB73
0BB31112
0A122222
6E028DC4
9E021120
9E021120
9E029E61
9F122112
7FA20002
1DFFFFE4
00455520
ENDCHAR
STARTCHAR Edieresis.salt
ENCODING 57614
SWIDTH 743 0
DWIDTH 8 0
BBX 8 13 0 -2
BITMAP
00222222
07912712
0EC57A54
0CB31112
09122222
6E028DC4
9E021120
9E021120
9E029E61
9F122112
7FA20002
1DFFFFE4
00455520
ENDCHAR
STARTCHAR Emacron.salt
ENCODING 57615
SWIDTH 743 0
DWIDTH 8 0
BBX 8 13 0 -2
BITMAP
00022221
01A02212
09E65553
08B31112
09122222
6E028DC4
9E021120
9E021120
9E029E61
9F122112
7FA20002
1DFFFFE4
00455520
ENDCHAR
STARTCHAR Ebreve.salt
ENCODING 57616
SWIDTH 743 0
DWIDTH 8 0
BBX 8 13 0 -2
BITMAP
00522522
08D12322
0AFA5551
04B31112
09122222
6E028DC4
9E021120
9E021120
9E029E61
9F122112
7FA20002
1DFFFFE4
00455520
ENDCHAR
STARTCHAR Edotaccent.salt
ENCODING 57617
SWIDTH 743 0
DWIDTH 8 0
BBX 8 13 0 -2
BITMAP
00032210
004D0120
009F6530
00631112
09122222
6E028DC4
9E021120
9E021120
9E029E61
9F122112
7FA20002
1DFFFFE4
00455520
ENDCHAR
STARTCHAR Eogonek.salt
ENCODING 57618
SWIDTH 743 0
DWIDTH 8 0
BBX 8 12 0 -4
BITMAP
00221112
09122222
6E028DC4
9E021120
9E021120
9E029E61
9F122112
7FA20022
1DFFF225
0049F412
0006FFE4
00005520
ENDCHAR
STARTCHAR Ecaron.salt
ENCODING 57619
SWIDTH 743 0
DWIDTH 8 0
BBX 8 13 0 -2
BITMAP
00622222
08D02212
0AFC7571
03A31112
09122222
6E028DC4
9E021120
9E021120
9E029E61
9F122112
7FA20002
1DFFFFE4
00455520
ENDCHAR
STARTCHAR I.salt
ENCODING 57620
SWIDTH 471 0
DWIDTH 5 0
BBX 5 10 0 -2
BITMAP
072120
6F0220
8F0220
8F0220
8F0220
8F0220
8F0220
8F1020
7FFC20
155100
ENDCHAR
STARTCHAR Igrave.salt
ENCODING 57621
SWIDTH 471 0
DWIDTH 5 0
BBX 6 13 0 -2
BITMAP
032110
7B1212
DE9763
7E2140
6F0220
8F0220
8F0220
8F0220
8F0220
8F0220
8F1020
7FFC20
155100
ENDCHAR
STARTCHAR Iacute.salt
ENCODING 57622
SWIDTH 471 0
DWIDTH 5 0
BBX 6 13 0 -2
BITMAP
012222
290212
CD6892
AF2120
6F0220
8F0220
8F0220
8F0220
8F0220
8F0220
8F1020
7FFC20
155100
ENDCHAR
STARTCHAR Icircumflex.salt
ENCODING 57623
SWIDTH 471 0
DWIDTH 5 0
BBX 6 13 0 -2
BITMAP
012221
651212
EAAB82
9D2130
6F0220
8F0220
8F0220
8F0220
8F0220
8F0220
8F1020
7FFC20
155100
ENDCHAR
STARTCHAR Idieresis.salt
ENCODING 57624
SWIDTH 471 0
DWIDTH 5 0
BBX 6 13 0 -2
BITMAP
122322
C31912
F85C54
9E2151
6F0220
8F0220
8F0220
8F0220
8F0220
8F0220
8F1020
7FFC20
155100
ENDCHAR
STARTCHAR Itilde.salt
ENCODING 57625
SWIDTH 471 0
DWIDTH 5 0
BBX 6 13 0 -2
BITMAP
012221
731212
D87652
7D2130
6F0220
8F0220
8F0220
8F0220
8F0220
8F0220
8F1020
7FFC20
155100
ENDCHAR
STARTCHAR Imacron.salt
ENCODING 57626
SWIDTH 471 0
DWIDTH 5 0
BBX 6 13 0 -2
BITMAP
012220
471202
EB5551
DF2120
6F0220
8F0220
8F0220
8F0220
8F0220
8F0220
8F1020
7FFC20
155100
ENDCHAR
STARTCHAR Ibreve.salt
ENCODING 57627
SWIDTH 471 0
DWIDTH 5 0
BBX 7 13 -1 -2
BITMAP
02426220
2E533220
4FD65410
1BF21200
06F02200
08F02200
08F02200
08F02200
08F02200
08F02200
08F10200
07FFC200
01551000
ENDCHAR
STARTCHAR Iogonek.salt
ENCODING 57628
SWIDTH 471 0
DWIDTH 5 0
BBX 5 12 0 -4
BITMAP
063120
5F2220
6F2220
6F2220
6F2220
6F2220
6F2220
6F2120
6E2140
8F2120
9FFD30
155100
ENDCHAR
STARTCHAR Idotaccent.salt
ENCODING 57629
SWIDTH 471 0
DWIDTH 5 0
BBX 5 13 0 -2
BITMAP
022220
3E0120
7F6530
6F2120
6F0220
8F0220
8F0220
8F0220
8F0220
8F0220
8F1020
7FFC20
155100
ENDCHAR
STARTCHAR L.salt
ENCODING 57630
SWIDTH 715 0
DWIDTH 8 0
BBX 8 10 0 -2
BITMAP
07212000
6F022000
8F022000
8F022000
8F022000
8F022221
8F031112
8F100002
7FFFFFD3
25555510
ENDCHAR
STARTCHAR Lacute.salt
ENCODING 57631
SWIDTH 715 0
DWIDTH 8 0
BBX 8 13 0 -2
BITMAP
00222220
09122120
7F568930
7F216300
6F022000
8F022000
8F022000
8F022000
8F022221
8F031112
8F100002
7FFFFFD3
25555510
ENDCHAR
STARTCHAR Lcommaaccent.salt
ENCODING 57632
SWIDTH 715 0
DWIDTH 8 0
BBX 8 14 0 -6
BITMAP
07212000
6F022000
8F022000
8F022000
8F022000
8F022221
8F031112
8F100002
7FFD77C3
25CA1220
00DD6220
00BC1310
00BFD200
00341000
ENDCHAR
STARTCHAR Lcaron.salt
ENCODING 57633
SWIDTH 715 0
DWIDTH 8 0
BBX 9 10 0 -2
BITMAP
0721371210
6F02782200
8F02760200
8F027FB100
8F02450000
8F02222100
8F03111200
8F10000200
7FFFFFD300
2555551000
ENDCHAR
STARTCHAR Ldot.salt
ENCODING 57634
SWIDTH 715 0
DWIDTH 8 0
BBX 9 10 0 -2
BITMAP
0721200000
6F02200000
8F02352200
8F02761110
8F027C9600
8F026C9100
8F03111200
8F10000200
7FFFFFD300
2555551000
ENDCHAR
STARTCHAR Lslash.salt
ENCODING 57635
SWIDTH 725 0
DWIDTH 8 0
BBX 9 10 -1 -2
BITMAP
0053120000
04F2220000
06F2212000
0771312000
0F90233000
1FF2222210
07F2211120
06F3000020
06FFFFFE40
0155555200
ENDCHAR
STARTCHAR M.salt
ENCODING 57636
SWIDTH 1170 0
DWIDTH 13 0
BBX 13 11 0 -2
BITMAP
00012200121000
00310022001300
0B122122112020
6F027C028B0220
8F028E029D0220
8F028E029D0220
8F028E029D0220
8F028E029D0220
8F009E00AD0020
8FFBAFFBBFFA10
25402540254000
ENDCHAR
STARTCHAR N.salt
ENCODING 57637
SWIDTH 846 0
DWIDTH 9 0
BBX 9 11 0 -2
BITMAP
0000221000
0032010210
0A12212120
6F027D2220
8F027F4220
8F026F4220
8F026F4220
8F026F4220
8F006F4020
8FFB5FFE30
2540155200
ENDCHAR
STARTCHAR Ntilde.salt
ENCODING 57638
SWIDTH 846 0
DWIDTH 9 0
BBX 9 13 0 -2
BITMAP
0002222200
0091221200
07F7754300
06B2010220
0A12212120
6F027D2220
8F027F4220
8F026F4220
8F026F4220
8F026F4220
8F006F4020
8FFB5FFE30
2540155200
ENDCHAR
STARTCHAR Nacute.salt
ENCODING 57639
SWIDTH 846 0
DWIDTH 9 0
BBX 9 13 0 -2
BITMAP
0001222200
0073121200
05F7579400
05B2010220
0A12212120
6F027D2220
8F027F4220
8F026F4220
8F026F4220
8F026F4220
8F006F4020
8FFB5FFE30
2540155200
ENDCHAR
STARTCHAR Ncommaaccent.salt
ENCODING 57640
SWIDTH 846 0
DWIDTH 9 0
BBX 9 15 0 -6
BITMAP
0000221000
0032010210
0A12212120
6F027D2220
8F027F4220
8F026F4220
8F026F4220
8F026F4220
8F006F4020
8FFD57BE30
257E223200
007F842000
005F432000
004FF60000
0014200000
ENDCHAR
STARTCHAR Ncaron.salt
ENCODING 57641
SWIDTH 846 0
DWIDTH 9 0
BBX 9 13 0 -2
BITMAP
0053222300
05F1221200
07FD748200
0292010210
0A12212120
6F027D2220
8F027F4220
8F026F4220
8F026F4220
8F026F4220
8F006F4020
8FFB5FFE30
2540155200
ENDCHAR
STARTCHAR W.salt
ENCODING 57642
SWIDTH 1170 0
DWIDTH 13 0
BBX 13 10 0 -2
BITMAP
07112711271120
7F028E029D0220
8F028E029D0220
8F028E029D0220
8F028E029D0220
8F028D029C0220
8F120023102110
7F911123110300
2EFFDDFFDDA100
01676147740000
ENDCHAR
STARTCHAR Wcircumflex.salt
ENCODING 57643
SWIDTH 1170 0
DWIDTH 13 0
BBX 13 13 0 -2
BITMAP
00000222210000
00019022120000
000AE6AB730000
07118E11681120
7F028E029D0220
8F028E029D0220
8F028E029D0220
8F028E029D0220
8F028D029C0220
8F120023102110
7F911123110300
2EFFDDFFDDA100
01676147740000
ENDCHAR
STARTCHAR Wgrave.salt
ENCODING 57644
SWIDTH 1170 0
DWIDTH 13 0
BBX 13 13 0 -2
BITMAP
00004222200000
0007B022120000
000CFB97520000
07117E11571120
7F028E029D0220
8F028E029D0220
8F028E029D0220
8F028E029D0220
8F028D029C0220
8F120023102110
7F911123110300
2EFFDDFFDDA100
01676147740000
ENDCHAR
STARTCHAR Wacute.salt
ENCODING 57645
SWIDTH 1170 0
DWIDTH 13 0
BBX 13 13 0 -2
BITMAP
00000222220000
0001A022120000
0008F568920000
07119E11371120
7F028E029D0220
8F028E029D0220
8F028E029D0220
8F028E029D0220
8F028D029C0220
8F120023102110
7F911123110300
2EFFDDFFDDA100
01676147740000
ENDCHAR
STARTCHAR Wdieresis.salt
ENCODING 57646
SWIDTH 1170 0
DWIDTH 13 0
BBX 13 13 0 -2
BITMAP
00002223220000
00079136120000
000EB58A540000
07119E11681120
7F028E029D0220
8F028E029D0220
8F028E029D0220
8F028E029D0220
8F028D029C0220
8F120023102110
7F911123110300
2EFFDDFFDDA100
01676147740000
ENDCHAR
STARTCHAR X.salt
ENCODING 57647
SWIDTH 837 0
DWIDTH 9 0
BBX 9 10 0 -2
BITMAP
0641262120
4F722C1120
2FB1192110
0D60202020
2D02222210
8E027E3220
9E027F3220
9E006F4020
9FFB5FFD30
2540155100
ENDCHAR
STARTCHAR Y.salt
ENCODING 57648
SWIDTH 806 0
DWIDTH 9 0
BBX 9 10 0 -2
BITMAP
0711262120
AC117F0220
BC119F0220
BC01590220
BE12222020
8FC5023400
1AFD023000
00AD002000
00AFFB1000
0025400000
ENDCHAR
STARTCHAR Yacute.salt
ENCODING 57649
SWIDTH 806 0
DWIDTH 9 0
BBX 9 13 0 -2
BITMAP
0002222200
01A0221200
08F5689200
09119E2120
AC117F0220
BC119F0220
BC01590220
BE12222020
8FC5023400
1AFD023000
00AD002000
00AFFB1000
0025400000
ENDCHAR
STARTCHAR Ycircumflex.salt
ENCODING 57650
SWIDTH 806 0
DWIDTH 9 0
BBX 9 13 0 -2
BITMAP
0002222100
0190221200
09E6AB7300
09119F2120
AC117F0220
BC119F0220
BC01590220
BE12222020
8FC5023400
1AFD023000
00AD002000
00AFFB1000
0025400000
ENDCHAR
STARTCHAR Ydieresis.salt
ENCODING 57651
SWIDTH 806 0
DWIDTH 9 0
BBX 9 13 0 -2
BITMAP
0022232200
0791361200
0EB58A5400
0C11BF2120
AC117F0220
BC119F0220
BC01590220
BE12222020
8FC5023400
1AFD023000
00AD002000
00AFFB1000
0025400000
ENDCHAR
STARTCHAR Ygrave.salt
ENCODING 57652
SWIDTH 806 0
DWIDTH 9 0
BBX 9 13 0 -2
BITMAP
0042222000
07B0221200
0CFB975200
0A11BF2120
AC118F0220
BC119F0220
BC01590220
BE12222020
8FC5023400
1AFD023000
00AD002000
00AFFB1000
0025400000
ENDCHAR
STARTCHAR AE.salt
ENCODING 57653
SWIDTH 1113 0
DWIDTH 12 0
BBX 12 10 0 -2
BITMAP
002221111112
082222232222
5F027D224DD5
8F028E321111
8F0311131111
8F0211024E71
8F029F321112
8F008F300002
8FFA6FFFFFE4
254015555520
ENDCHAR
STARTCHAR IJ.salt
ENCODING 57654
SWIDTH 1133 0
DWIDTH 12 0
BBX 12 10 0 -2
BITMAP
072120003612
6F022001E621
8F022002F621
8F022124F621
8F025702F621
8F026821E521
8F0269120122
8F107E401112
7FFCAFFEDD50
155103676100
ENDCHAR
STARTCHAR IJ.stack
ENCODING 57655
SWIDTH 1363 0
DWIDTH 15 0
BBX 15 10 0 -2
BITMAP
0711111200071120
9D023212007E0220
AFC42291009E0220
49F5221022AE0220
03F5221B109E0220
03E4227F128D0220
1901310A22102120
AD00000BA1110210
AFFFFFAEFFDDA100
2555540157640000
ENDCHAR
STARTCHAR quoteleft.salt
ENCODING 57656
SWIDTH 407 0
DWIDTH 4 0
BBX 5 5 0 3
BITMAP
033400
4D2410
AD1120
AFE700
354000
ENDCHAR
STARTCHAR quoteright.salt
ENCODING 57657
SWIDTH 407 0
DWIDTH 4 0
BBX 5 5 0 3
BITMAP
082220
9E3220
AF3310
7FC200
251000
ENDCHAR
STARTCHAR ampersand.salt
ENCODING 57658
SWIDTH 732 0
DWIDTH 8 0
BBX 8 12 0 -3
BITMAP
00062120
00440112
06712212
1F722CC3
2F912120
1B021120
9A20CE51
DB121112
CF510202
6FFF1073
029FFB10
00144000
ENDCHAR
STARTCHAR caron.2
ENCODING 57659
SWIDTH 600 0
DWIDTH 7 0
BBX 5 5 1 3
BITMAP
071120
7C2020
BA0200
DFD300
452000
ENDCHAR
STARTCHAR indexup
ENCODING 57660
SWIDTH 1100 0
DWIDTH 12 0
BBX 8 10 2 -2
BITMAP
01720000
0D820000
0F723220
1F611120
2F700020
2FA00020
0E722222
4E000002
8FFFFFD2
24444410
ENDCHAR
STARTCHAR indexdown
ENCODING 57661
SWIDTH 1100 0
DWIDTH 12 0
BBX 8 10 2 -2
BITMAP
08111113
7F622243
7EA00020
0D700020
1F611120
2F724850
1F85C700
0F920000
0ED20000
03100000
ENDCHAR
STARTCHAR indexupleft
ENCODING 57662
SWIDTH 1100 0
DWIDTH 12 0
BBX 10 11 1 -2
BITMAP
0012000000
02B1200000
0AFC120000
01D7102000
01C1100220
0971000202
2FF5002020
07FF620200
007F902000
000DF40000
0007600000
ENDCHAR
STARTCHAR indexupright
ENCODING 57663
SWIDTH 1100 0
DWIDTH 12 0
BBX 10 11 1 -2
BITMAP
0000000120
0000002120
0000021310
0000511120
0016500130
0251200011
1EE3120020
0AFE313200
00AFE31100
000AFE2000
0000940000
ENDCHAR
STARTCHAR indexdownleft
ENCODING 57664
SWIDTH 1100 0
DWIDTH 12 0
BBX 12 9 0 -1
BITMAP
000000120000
000002702000
00001D620200
000021012020
000520001211
005321100B30
0475E8215400
1EA8FFC20000
05002B300000
ENDCHAR
STARTCHAR indexdownright
ENCODING 57665
SWIDTH 1100 0
DWIDTH 12 0
BBX 12 9 0 -1
BITMAP
000001200000
000032110000
000330320000
003302002000
047120000200
1EFC50012120
078FF513CC12
0007FF86CF60
000069101400
ENDCHAR
STARTCHAR indexdownleft.outline
ENCODING 57666
SWIDTH 1100 0
DWIDTH 12 0
BBX 10 8 2 0
BITMAP
0000150000
0000478000
0002547800
0033014780
0221001583
2353101430
4425524000
1100330000
ENDCHAR
STARTCHAR indexdownright.outline
ENCODING 57667
SWIDTH 1100 0
DWIDTH 12 0
BBX 10 8 2 0
BITMAP
0002500000
002B510000
02B3540000
2B33004100
9340001500
1340024240
0014354342
0001410010
ENDCHAR
STARTCHAR indexupleft.outline
ENCODING 57668
SWIDTH 1100 0
DWIDTH 12 0
BBX 8 10 3 -1
BITMAP
14000000
33500000
04251000
06304000
43201430
42001573
14014690
01446900
00469000
00160000
ENDCHAR
STARTCHAR indexupright.outline
ENCODING 57669
SWIDTH 1100 0
DWIDTH 12 0
BBX 8 10 3 -1
BITMAP
00000130
00002340
00033510
00222430
13400260
93300132
2B330140
02B35400
002B5100
00025000
ENDCHAR
STARTCHAR uni261A.salt
ENCODING 57670
SWIDTH 1100 0
DWIDTH 12 0
BBX 10 8 1 -1
BITMAP
0122222432
3910000122
CFFF820022
345F920122
000FF81C22
0004E87FD3
0002F82510
0000200000
ENDCHAR
STARTCHAR uni261B.salt
ENCODING 57671
SWIDTH 1100 0
DWIDTH 12 0
BBX 10 8 1 -1
BITMAP
0422222221
6E03000012
9E02012FE4
9E03021420
9E09613000
9FCFF41000
3518E50000
0000100000
ENDCHAR
STARTCHAR indexdown.salt
ENCODING 57672
SWIDTH 1100 0
DWIDTH 12 0
BBX 8 10 2 -2
BITMAP
00811112
09E72233
08D70011
03212102
4ECC0201
37CFDC01
0027CE01
00009F11
00008F60
00002300
ENDCHAR
STARTCHAR indexdownleft.salt
ENCODING 57673
SWIDTH 1100 0
DWIDTH 12 0
BBX 10 9 1 -1
BITMAP
0000002000
0000061200
00007A3020
0003100202
0063010182
0361622180
1A1CF8A020
BE26CCF810
5200038000
ENDCHAR
STARTCHAR indexdownright.salt
ENCODING 57674
SWIDTH 1100 0
DWIDTH 12 0
BBX 10 9 1 -1
BITMAP
0000110000
0003120000
0042132000
0421100200
6E47001020
ADE9031501
01D758CF62
00FCA46FE3
0192000430
ENDCHAR
STARTCHAR indexup.salt
ENCODING 57675
SWIDTH 1100 0
DWIDTH 12 0
BBX 8 10 2 -2
BITMAP
02620000
0E620000
2F422100
4F220211
6F202102
7F700140
2F722220
4E000020
8FFFFD30
24444100
ENDCHAR
STARTCHAR indexupleft.salt
ENCODING 57676
SWIDTH 1100 0
DWIDTH 12 0
BBX 8 11 2 -2
BITMAP
00100000
17120000
CF602000
5FF30200
07820010
1D720032
3B200202
ACAC6021
A88E2210
007FA100
00050000
ENDCHAR
STARTCHAR indexupright.salt
ENCODING 57677
SWIDTH 1100 0
DWIDTH 12 0
BBX 9 11 2 -2
BITMAP
0000000100
0000012200
0000121200
0003103000
0068021100
0333012200
8C11100210
CFC11BC700
1CFC159100
01CF700000
0015000000
ENDCHAR
STARTCHAR uni261C.salt
ENCODING 57678
SWIDTH 1100 0
DWIDTH 12 0
BBX 9 6 2 1
BITMAP
1333342570
43220024A0
00155004A0
00043114A0
00006144A0
0000440210
ENDCHAR
STARTCHAR uni261D.salt
ENCODING 57679
SWIDTH 1100 0
DWIDTH 12 0
BBX 7 9 3 -1
BITMAP
04400000
03300000
03431000
03404320
13044240
04002400
15335300
29999800
01111100
ENDCHAR
STARTCHAR uni261E.salt
ENCODING 57680
SWIDTH 1100 0
DWIDTH 12 0
BBX 9 6 2 1
BITMAP
1833433320
3850012260
3840344100
3850431000
2954330000
0211430000
ENDCHAR
STARTCHAR uni261F.salt
ENCODING 57681
SWIDTH 1100 0
DWIDTH 12 0
BBX 7 9 3 -1
BITMAP
03AAAA80
02454530
01400120
14242040
03414030
00035130
00002130
00001520
00000100
ENDCHAR
STARTCHAR indexdownleft.salt_outline
ENCODING 57682
SWIDTH 1100 0
DWIDTH 12 0
BBX 9 8 2 0
BITMAP
0000030000
000026A000
0001454A00
00230044A0
0131302560
0426142100
4231452300
0200003100
ENDCHAR
STARTCHAR indexdownright.salt_outline
ENCODING 57683
SWIDTH 1100 0
DWIDTH 12 0
BBX 9 8 2 0
BITMAP
0003100000
004A500000
04A3530000
3A32004000
2550130400
0031435230
0034430450
0032000020
ENDCHAR
STARTCHAR indexupleft.salt_outline
ENCODING 57684
SWIDTH 1100 0
DWIDTH 12 0
BBX 8 10 3 -1
BITMAP
01000000
43300000
04140000
01604000
04311200
04500661
330044B0
33464B10
0016B100
00021000
ENDCHAR
STARTCHAR indexupright.salt_outline
ENCODING 57685
SWIDTH 1100 0
DWIDTH 12 0
BBX 8 10 3 -1
BITMAP
00000010
00001450
00024230
00221500
00404220
45402430
4A320141
04A35440
004A4000
00020000
ENDCHAR
STARTCHAR block.v
ENCODING 57687
SWIDTH 1000 0
DWIDTH 11 0
BBX 13 12 -1 -2
BITMAP
4EEEEEEEEEEE40
5FFFFFFFFFFF50
5FFFFFFFFFFF50
5FFFFFFFFFFF50
5FFFFFFFFFFF50
5FFFFFFFFFFF50
5FFFFFFFFFFF50
5FFFFFFFFFFF50
5FFFFFFFFFFF50
5FFFFFFFFFFF50
5FFFFFFFFFFF50
5FFFFFFFFFFF50
ENDCHAR
STARTCHAR uni25D6.v
ENCODING 57688
SWIDTH 1335 0
DWIDTH 15 0
BBX 13 8 1 0
BITMAP
00000221000000
0016CDDDA40000
01AFFFFFFE7000
08FFFFFFFFE400
2DFFFFFFFFFB00
5FFFFFFFFFFD20
7FFFFFFFFFFE30
24444444444410
ENDCHAR
STARTCHAR uni25D7.v
ENCODING 57689
SWIDTH 1335 0
DWIDTH 15 0
BBX 13 8 1 0
BITMAP
13333333333310
7FFFFFFFFFFE30
5FFFFFFFFFFD20
3EFFFFFFFFFC00
09FFFFFFFFE500
02BFFFFFFE8000
0017DDEDB50000
00000332000000
ENDCHAR
STARTCHAR uni27A1.w
ENCODING 57690
SWIDTH 650 0
DWIDTH 7 0
BBX 8 18 0 -5
BITMAP
00000010
000009C0
00006ED1
0003EFE7
001CFFF9
009FFFF9
06EFFFF9
3EFFFFF9
AFFFFFF9
BFFFFFF9
4EFFFFF9
07FFFFF9
00AFFFF9
002CFFF9
0004EFE8
00007FD1
000009C1
00000020
ENDCHAR
STARTCHAR uni27A1.n
ENCODING 57691
SWIDTH 1000 0
DWIDTH 11 0
BBX 17 8 -3 0
BITMAP
135BBBBBBBBBBB5310
7DEFFFFFFFFFFFDD70
2CFFFFFFFFFFFFFC20
019EFFFFFFFFFE9100
0006EFFFFFFFE60000
00003CFFFFFC300000
0000019EFE91000000
00000006A500000000
ENDCHAR
STARTCHAR uni27A1.s
ENCODING 57692
SWIDTH 1000 0
DWIDTH 11 0
BBX 17 8 -3 0
BITMAP
000000048400000000
0000018EFE81000000
00002BFFFFFB200000
0005DFFFFFFFD50000
018EFFFFFFFFFE8100
2BFFFFFFFFFFFFFB20
7EEFFFFFFFFFFFEE70
146CCCCCCCCCCC6410
ENDCHAR
STARTCHAR uni2B24.salt
ENCODING 57693
SWIDTH 1280 0
DWIDTH 14 0
BBX 12 14 1 -3
BITMAP
000013310000
005ADDDDB500
1AEFFFFFFFB2
AFFFFFFFFFFB
CFFFFFFFFFFD
CFFFFFFFFFFD
CFFFFFFFFFFD
CFFFFFFFFFFD
CFFFFFFFFFFD
CFFFFFFFFFFD
BFFFFFFFFFFC
2BFFFFFFFFC2
016CDEEEC610
000023330000
ENDCHAR
STARTCHAR uni25DD.curve
ENCODING 57694
SWIDTH 1280 0
DWIDTH 14 0
BBX 12 12 1 -2
BITMAP
9CCCCCCB8300
CFFFFFFFFE70
CFFFFFFFFFE4
CFFFFFFFFFF9
CFFFFFFFFFFC
CFFFFFFFFFFD
CFFFFFFFFFFD
CFFFFFFFFFFD
CFFFFFFFFFFD
CFFFFFFFFFFD
CFFFFFFFFFFD
BDDDDDDDDDDC
ENDCHAR
STARTCHAR uni2B1B.trapezoid_e
ENCODING 57695
SWIDTH 1280 0
DWIDTH 14 0
BBX 13 12 1 -2
BITMAP
9CCCCCCCCCCCB0
CFFFFFFFFFFFC0
CFFFFFFFFFFF90
CFFFFFFFFFFF60
CFFFFFFFFFFE30
CFFFFFFFFFFE10
CFFFFFFFFFFC00
CFFFFFFFFFF900
CFFFFFFFFFF600
CFFFFFFFFFE300
CFFFFFFFFFE100
ADDDDDDDDDB000
ENDCHAR
STARTCHAR uni2B1B.trapezoid_w
ENCODING 57696
SWIDTH 1280 0
DWIDTH 14 0
BBX 13 12 0 -2
BITMAP
ACCCCCCCCCCCB0
AFFFFFFFFFFFD0
7FFFFFFFFFFFD0
4FFFFFFFFFFFD0
2DFFFFFFFFFFD0
0DFFFFFFFFFFD0
0AFFFFFFFFFFD0
07FFFFFFFFFFD0
04FFFFFFFFFFD0
02DFFFFFFFFFD0
00DFFFFFFFFFD0
009DDDDDDDDDC0
ENDCHAR
STARTCHAR arrowleft.chevron
ENCODING 57697
SWIDTH 1330 0
DWIDTH 15 0
BBX 15 16 0 -4
BITMAP
0000018000000000
00000AC000000000
00008FECCCCCCC50
0005EFFFFFFFFE30
003DFFFFFFFFFA00
02CFFFFFFFFFF500
1AFFFFFFFFFFD100
8FFFFFFFFFFF8000
8FFFFFFFFFFF7000
1BFFFFFFFFFFC100
02DFFFFFFFFFF400
004EFFFFFFFFFA00
0006EFFFFFFFFE20
00008FEDDDDDDD50
00001AC000000000
0000028000000000
ENDCHAR
STARTCHAR arrowup.chevron
ENCODING 57698
SWIDTH 1280 0
DWIDTH 14 0
BBX 16 16 -1 -4
BITMAP
0000000460000000
0000007EE9100000
000019FFFFB20000
0002BFFFFFFC4000
003CFFFFFFFFE600
05EFFFFFFFFFFE81
6CEFFFFFFFFFFFD9
23BFFFFFFFFFFD42
00BFFFFFFFFFFD10
00BFFFFFFFFFFD10
00BFFFFFFFFFFD10
00BFFFFFFFFFFD10
00BFFFFFFFFFFD10
00BFFFECBEFFFD10
00BFD940038DFD10
0086200000015900
ENDCHAR
STARTCHAR arrowright.chevron
ENCODING 57699
SWIDTH 1330 0
DWIDTH 15 0
BBX 15 16 0 -4
BITMAP
0000000370000000
00000003D6000000
9CCCCCCCFE400000
6FFFFFFFFFC20000
2DFFFFFFFFFB1000
09FFFFFFFFFF9000
04EFFFFFFFFFF700
00CFFFFFFFFFFE40
00CFFFFFFFFFFE50
04EFFFFFFFFFF700
09FFFFFFFFFFA000
2DFFFFFFFFFB1000
6FFFFFFFFFD20000
ADDDDDDDFE400000
00000003D6000000
0000000370000000
ENDCHAR
STARTCHAR arrowdown.chevron
ENCODING 57700
SWIDTH 1280 0
DWIDTH 14 0
BBX 16 16 -1 -4
BITMAP
0064000000003600
00BEC620015AED10
00BFFFD98DFFFD10
00BFFFFFFFFFFD10
00BFFFFFFFFFFD10
00BFFFFFFFFFFD10
00BFFFFFFFFFFD10
00BFFFFFFFFFFD10
00BFFFFFFFFFFD10
7DEFFFFFFFFFFEDA
18EFFFFFFFFFFFA2
006EFFFFFFFFE810
0004DFFFFFFE6000
00002BFFFFD40000
0000019FFB200000
0000000781000000
ENDCHAR
STARTCHAR uni25D6.deco
ENCODING 57701
SWIDTH 560 0
DWIDTH 6 0
BBX 7 14 0 -3
BITMAP
00019900
002CED70
028FFF90
0AFFFF90
3EFFFF90
4FFFFF90
5FFFFF90
5FFFFF90
4FFFFF90
3EFFFF90
0BFFFF90
029FFF90
002CFE80
0002AA00
ENDCHAR
STARTCHAR uni25D7.deco
ENCODING 57702
SWIDTH 560 0
DWIDTH 6 0
BBX 7 14 -1 -3
BITMAP
07B20000
5DFD3000
7FFFA200
7FFFFC10
7FFFFF40
7FFFFF60
7FFFFF70
7FFFFF70
7FFFFF60
7FFFFF40
7FFFFC10
7FFFA300
6DFD3000
07B20000
ENDCHAR
STARTCHAR uni25D6.v_deco
ENCODING 57703
SWIDTH 1280 0
DWIDTH 14 0
BBX 14 7 0 0
BITMAP
00014677641000
002CFFFFFFC300
03AFFFFFFFFA30
2DFFFFFFFFFFD2
AFFFFFFFFFFFFB
7DFFFFFFFFFFD8
05777777777760
ENDCHAR
STARTCHAR uni25D7.v_deco
ENCODING 57704
SWIDTH 1280 0
DWIDTH 14 0
BBX 14 7 0 1
BITMAP
04666666666650
6DFFFFFFFFFFD7
BFFFFFFFFFFFFC
2DFFFFFFFFFFE3
04AFFFFFFFFB40
003CFFFFFFD400
00025789852000
ENDCHAR
STARTCHAR uni25D6.bevel
ENCODING 57705
SWIDTH 350 0
DWIDTH 4 0
BBX 5 12 0 -2
BITMAP
002B30
03DF40
2AFF40
3EFF40
3EFF40
3EFF40
3EFF40
3EFF40
3EFF40
2BFF40
04EF40
003C40
ENDCHAR
STARTCHAR uni25D7.bevel
ENCODING 57706
SWIDTH 350 0
DWIDTH 4 0
BBX 5 12 -1 -2
BITMAP
5A1000
7EC200
7FF900
7FFD10
7FFD10
7FFD10
7FFD10
7FFD10
7FFD10
7FFA10
7FD200
6A2000
ENDCHAR
STARTCHAR uni25D6.v_bevel
ENCODING 57707
SWIDTH 1280 0
DWIDTH 14 0
BBX 12 4 1 2
BITMAP
006999999700
09EFFFFFFEA1
6EFFFFFFFFE7
9CCCCCCCCCCA
ENDCHAR
STARTCHAR uni25D7.v_bevel
ENCODING 57708
SWIDTH 1280 0
DWIDTH 14 0
BBX 12 4 1 2
BITMAP
8BBBBBBBBBB9
7EFFFFFFFFF8
1AEFFFFFFEB1
007AAAAAA800
ENDCHAR
STARTCHAR uni25D6.spike
ENCODING 57709
SWIDTH 350 0
DWIDTH 4 0
BBX 5 14 0 -3
BITMAP
020000
0ADC30
05FF40
01DF40
00BF40
06EF40
4EFF40
5EFF40
07EF40
00BF40
01DF40
05FF40
0ADD40
032000
ENDCHAR
STARTCHAR uni25D7.spike
ENCODING 57710
SWIDTH 350 0
DWIDTH 4 0
BBX 5 14 -1 -3
BITMAP
000100
5CD800
7FE400
7FC000
7F9000
7FE400
7FFD20
7FFD30
7FE500
7F9000
7FB000
7FE300
6DD800
002300
ENDCHAR
STARTCHAR uni25D6.v_spike
ENCODING 57711
SWIDTH 1280 0
DWIDTH 14 0
BBX 14 4 0 2
BITMAP
02000078100021
1CA429FFA249C3
0DFEDFFFFDEFD1
0CFFFFFFFFFFD0
ENDCHAR
STARTCHAR uni25D7.v_spike
ENCODING 57712
SWIDTH 1280 0
DWIDTH 14 0
BBX 14 4 0 2
BITMAP
0BEEEEEEEEEEC0
0DFFDFFFFEFFD1
1CB53AFFB35AC3
13000189100031
ENDCHAR
STARTCHAR uni25D6.square
ENCODING 57713
SWIDTH 350 0
DWIDTH 4 0
BBX 4 12 1 -2
BITMAP
9CC3
CFF4
CFF4
CFF4
CFF4
CFF4
CFF4
CFF4
CFF4
CFF4
CFF4
ADD4
ENDCHAR
STARTCHAR uni25D7.square
ENCODING 57714
SWIDTH 350 0
DWIDTH 4 0
BBX 4 12 -1 -2
BITMAP
5CC7
7FFA
7FFA
7FFA
7FFA
7FFA
7FFA
7FFA
7FFA
7FFA
7FFA
6DD8
ENDCHAR
STARTCHAR uni25D6.v_square
ENCODING 57715
SWIDTH 1280 0
DWIDTH 14 0
BBX 12 4 1 2
BITMAP
577777777775
CFFFFFFFFFFD
CFFFFFFFFFFD
8AAAAAAAAAA8
ENDCHAR
STARTCHAR uni25D7.v_square
ENCODING 57716
SWIDTH 1280 0
DWIDTH 14 0
BBX 12 4 1 2
BITMAP
788888888887
CFFFFFFFFFFD
CFFFFFFFFFFD
688888888886
ENDCHAR
STARTCHAR uni25D6.rounded
ENCODING 57717
SWIDTH 350 0
DWIDTH 4 0
BBX 5 12 0 -2
BITMAP
018B30
06FF40
0BFF40
1DFF40
3DFF40
3DFF40
3DFF40
3DFF40
1DFF40
0CFF40
07FF40
019D40
ENDCHAR
STARTCHAR uni25D7.rounded
ENCODING 57718
SWIDTH 350 0
DWIDTH 4 0
BBX 5 12 -1 -2
BITMAP
5B7000
7FE500
7FF900
7FFC00
7FFD00
7FFD10
7FFD10
7FFD00
7FFC00
7FF900
7FE500
6C8000
ENDCHAR
STARTCHAR uni25D6.v_rounded
ENCODING 57719
SWIDTH 1280 0
DWIDTH 14 0
BBX 12 4 1 2
BITMAP
014789987410
4CFFFFFFFFD4
AFFFFFFFFFFC
9CCCCCCCCCCA
ENDCHAR
STARTCHAR uni25D7.v_rounded
ENCODING 57720
SWIDTH 1280 0
DWIDTH 14 0
BBX 12 4 1 2
BITMAP
8BBBBBBBBBB9
AFFFFFFFFFFC
4DFFFFFFFFD5
0258AAAA8520
ENDCHAR
STARTCHAR uni21AB.arrow
ENCODING 57721
SWIDTH 1000 0
DWIDTH 11 0
BBX 14 20 -1 -10
BITMAP
5CCCBA73000000
6FFFFFFE910000
6FFFFFFFFB1000
6FFFFFFFFF8000
6FFFFFFFFFD200
6FFFFFFFFFF600
6FFFFFFFFFFA00
6FFFFFFFFFFB00
6FFFFFFFFFFC00
6FFFFFFFFFFD00
6FFFFFFFFFFD00
5DFFFFFFFFFD00
01DFFFFFFFFD00
7BEFFFFFFFFEB9
2CFFFFFFFFFFD4
02BFFFFFFFFD30
001BFFFFFFC300
0001AFFFFC2000
00001AFFB20000
0000019B200000
ENDCHAR
STARTCHAR uni21AC.arrow
ENCODING 57722
SWIDTH 1000 0
DWIDTH 11 0
BBX 14 20 -1 -2
BITMAP
0000008A100000
000019FFB10000
00019FFFFB2000
001AFFFFFFC200
01AFFFFFFFFC30
1BFFFFFFFFFFD3
7CEFFFFFFFFECA
00DFFFFFFFFD00
5CEFFFFFFFFD00
6FFFFFFFFFFD00
6FFFFFFFFFFD00
6FFFFFFFFFFD00
6FFFFFFFFFFC00
6FFFFFFFFFFA00
6FFFFFFFFFF600
6FFFFFFFFFE300
6FFFFFFFFF9000
6FFFFFFFFC2000
6FFFFFFEA20000
5DDDDB84000000
ENDCHAR
STARTCHAR uni21AB.v_arrow
ENCODING 57723
SWIDTH 1335 0
DWIDTH 15 0
BBX 21 15 -7 -4
BITMAP
0000002100000000000000
000003B36EEEEEEEEEED30
00002CE7BFFFFFFFFFFF30
0002CFFFFFFFFFFFFFFF30
002CFFFFFFFFFFFFFFFF30
01BFFFFFFFFFFFFFFFFE30
1BFFFFFFFFFFFFFFFFFD10
7FFFFFFFFFFFFFFFFFFA00
2CFFFFFFFFFFFFFFFFE500
02CFFFFFFFFFFFFFFF9000
003DFFFFFFFFFFFFE91000
0003DFFFFFFFFFDB500000
00004DE755554420000000
000004C300000000000000
0000004100000000000000
ENDCHAR
STARTCHAR uni21AC.v_arrow
ENCODING 57724
SWIDTH 1335 0
DWIDTH 15 0
BBX 21 15 1 -4
BITMAP
0000000000000210000000
7EEEEEEEEEED36A1000000
7FFFFFFFFFFF88F9100000
7FFFFFFFFFFFFFFF910000
7FFFFFFFFFFFFFFFF90000
6FFFFFFFFFFFFFFFFF8000
4FFFFFFFFFFFFFFFFFF800
2DFFFFFFFFFFFFFFFFFE30
09FFFFFFFFFFFFFFFFF900
02CFFFFFFFFFFFFFFFA100
003BFFFFFFFFFFFFFA1000
00016CDFFFFFFFFFB10000
00000034555559FB200000
00000000000006C2000000
0000000000000320000000
ENDCHAR
STARTCHAR uni25D6.wings
ENCODING 57725
SWIDTH 900 0
DWIDTH 10 0
BBX 11 17 0 -5
BITMAP
00ADDDDC3000
00BFFFFF6000
8CDFFFFFEC40
AFFFFFFFFF50
AFFFFFFFFF50
AFFFFFFFFF50
AFFFFFFFFF50
AFFFFFFFFF50
AFFFFFFFFF50
AFFFFFFFFF50
AFFFFFFFFF50
AFFFFFFFFF50
AFFFFFFFFF50
9DEFFFFFFD50
00BFFFFF8100
00ADDDDD3000
001111110000
ENDCHAR
STARTCHAR uni25D7.wings
ENCODING 57726
SWIDTH 900 0
DWIDTH 10 0
BBX 11 17 -1 -5
BITMAP
003DDDDD9000
008FFFFF9000
5DEFFFFFDC70
7FFFFFFFFF90
7FFFFFFFFF90
7FFFFFFFFF90
7FFFFFFFFF90
7FFFFFFFFF90
7FFFFFFFFF90
7FFFFFFFFF90
7FFFFFFFFF90
7FFFFFFFFF90
7FFFFFFFFF90
6DFFFFFFED80
018FFFFF9000
003DDDDD9000
000111110000
ENDCHAR
STARTCHAR uni25D6.v_wings
ENCODING 57727
SWIDTH 1280 0
DWIDTH 14 0
BBX 17 11 -1 -2
BITMAP
00BDDDDDDDDDDC0000
11CFFFFFFFFFFD1100
CDEFFFFFFFFFFEDC10
DFFFFFFFFFFFFFFD10
DFFFFFFFFFFFFFFD10
DFFFFFFFFFFFFFFD10
DFFFFFFFFFFFFFFD10
CEFFFFFFFFFFFFEC10
04EFFFFFFFFFFE5000
00CFFFFFFFFFFD0000
001111111111110000
ENDCHAR
STARTCHAR uni25D7.v_wings
ENCODING 57728
SWIDTH 1280 0
DWIDTH 14 0
BBX 17 11 -1 -2
BITMAP
00CFFFFFFFFFFD0000
03EFFFFFFFFFFE4000
BEFFFFFFFFFFFFEB10
DFFFFFFFFFFFFFFD10
DFFFFFFFFFFFFFFD10
DFFFFFFFFFFFFFFD10
DFFFFFFFFFFFFFFD10
CDEFFFFFFFFFFEDC10
22CFFFFFFFFFFD2200
00BDDDDDDDDDDC0000
001111111111110000
ENDCHAR
STARTCHAR uni2B1B.chevron_e
ENCODING 57729
SWIDTH 1280 0
DWIDTH 14 0
BBX 14 12 0 -2
BITMAP
9CCCCCCCCCCA00
6FFFFFFFFFFE40
2DFFFFFFFFFF90
09FFFFFFFFFFD2
04EFFFFFFFFFF6
00CFFFFFFFFFFC
00CFFFFFFFFFFC
04EFFFFFFFFFF7
09FFFFFFFFFFD2
2DFFFFFFFFFFA0
6FFFFFFFFFFE40
ADDDDDDDDDDB10
ENDCHAR
STARTCHAR uni2B1B.chevron_n
ENCODING 57730
SWIDTH 1280 0
DWIDTH 14 0
BBX 12 14 1 -3
BITMAP
00015AB51000
038DFFFFD830
9EFFFFFFFFEA
CFFFFFFFFFFD
CFFFFFFFFFFD
CFFFFFFFFFFD
CFFFFFFFFFFD
CFFFFFFFFFFD
CFFFFFFFFFFD
CFFFFFFFFFFD
CFFFFFFFFFFD
CFFFFDDFFFFD
CFEB5115AEFD
A8300000037B
ENDCHAR
STARTCHAR uni2B1B.chevron_s
ENCODING 57731
SWIDTH 1280 0
DWIDTH 14 0
BBX 12 14 1 -3
BITMAP
A8300000027B
CFEB5114AEFD
CFFFFDCFFFFD
CFFFFFFFFFFD
CFFFFFFFFFFD
CFFFFFFFFFFD
CFFFFFFFFFFD
CFFFFFFFFFFD
CFFFFFFFFFFD
CFFFFFFFFFFD
CFFFFFFFFFFD
AEFFFFFFFFEB
038DFFFFD830
00015BB51000
ENDCHAR
STARTCHAR uni2B1B.chevron_w
ENCODING 57732
SWIDTH 1280 0
DWIDTH 14 0
BBX 14 12 0 -2
BITMAP
009CCCCCCCCCCA
03DFFFFFFFFFF8
07FFFFFFFFFFE3
1CFFFFFFFFFFB0
5EFFFFFFFFFF50
AFFFFFFFFFFD10
BFFFFFFFFFFD10
5FFFFFFFFFFF50
1DFFFFFFFFFFB0
08FFFFFFFFFFE3
03EFFFFFFFFFF7
00ADDDDDDDDDDB
ENDCHAR
STARTCHAR uni2B1B.semichevron_e
ENCODING 57733
SWIDTH 650 0
DWIDTH 7 0
BBX 8 12 0 -2
BITMAP
9CCCCCC8
7FFFFFFA
2DFFFFFA
09FFFFFA
04EFFFFA
01CFFFFA
00CFFFFA
04EFFFFA
09FFFFFA
2DFFFFFA
6FFFFFFA
ADDDDDD8
ENDCHAR
STARTCHAR uni2B1B.semichevron_w
ENCODING 57734
SWIDTH 650 0
DWIDTH 7 0
BBX 9 12 -1 -2
BITMAP
5CCCCCCB10
7FFFFFFA00
7FFFFFE400
7FFFFFC100
7FFFFF7000
7FFFFD2000
7FFFFD2000
7FFFFF6000
7FFFFFC000
7FFFFFE400
7FFFFFF900
6DDDDDDC10
ENDCHAR
STARTCHAR uni2B1B.semichevron_n
ENCODING 57735
SWIDTH 1000 0
DWIDTH 11 0
BBX 13 8 -1 0
BITMAP
36200000002630
5FDA400049DF50
5FFFEC8CEFFF50
5FFFFFFFFFFF50
5FFFFFFFFFFF50
5FFFFFFFFFFF50
5FFFFFFFFFFF50
4CCCCCCCCCCC40
ENDCHAR
STARTCHAR uni2B1B.semichevron_s
ENCODING 57736
SWIDTH 1000 0
DWIDTH 11 0
BBX 13 8 -1 0
BITMAP
4BBBBBBBBBBB40
5FFFFFFFFFFF50
5FFFFFFFFFFF50
5FFFFFFFFFFF50
5FFFFFFFFFFF50
5FFFFD9DFFFF50
5FEB51015BEF50
48300000003840
ENDCHAR
STARTCHAR space.v
ENCODING 57737
SWIDTH 1000 0
DWIDTH 11 0
BBX 1 1 0 0
BITMAP
00
ENDCHAR
STARTCHAR Agrave.v
ENCODING 57738
SWIDTH 1000 0
DWIDTH 11 0
BBX 9 13 1 -2
BITMAP
0002100000
01A0222200
09F5321200
08FA887300
01B0221200
0792022100
0D324A1120
3E02240220
8E03222220
9E027B1220
9E00AF2020
9FFA8FFC20
2540155100
ENDCHAR
STARTCHAR Aacute.v
ENCODING 57739
SWIDTH 1000 0
DWIDTH 11 0
BBX 9 13 1 -2
BITMAP
0000012100
0042221200
05E0224300
09F8787100
04E0221200
0792022100
0D324A1120
3E02240220
8E03222220
9E027B1220
9E00AF2020
9FFA8FFC20
2540155100
ENDCHAR
STARTCHAR Acircumflex.v
ENCODING 57740
SWIDTH 1000 0
DWIDTH 11 0
BBX 9 13 1 -2
BITMAP
0000221000
0032222200
05E0351200
09F9888400
05D0221200
0792022100
0D324A1120
3E02240220
8E03222220
9E027B1220
9E00AF2020
9FFA8FFC20
2540155100
ENDCHAR
STARTCHAR Atilde.v
ENCODING 57741
SWIDTH 1000 0
DWIDTH 11 0
BBX 9 12 1 -2
BITMAP
0042222200
06E0221200
09F9876200
04D0221200
0792022100
0D324A1120
3E02240220
8E03222220
9E027B1220
9E00AF2020
9FFA8FFC20
2540155100
ENDCHAR
STARTCHAR Adieresis.v
ENCODING 57742
SWIDTH 1000 0
DWIDTH 11 0
BBX 9 13 1 -2
BITMAP
0001101100
0171261200
0CA0280200
0DF9777400
05E0221200
0792022100
0D324A1120
3E02240220
8E03222220
9E027B1220
9E00AF2020
9FFA8FFC20
2540155100
ENDCHAR
STARTCHAR Aring.v
ENCODING 57743
SWIDTH 1000 0
DWIDTH 11 0
BBX 9 13 1 -2
BITMAP
0001222000
0042222200
05C2492200
0AE2472200
0AD1221200
0882132110
0E325B1120
4E02240220
8E03222220
9E028B0220
9E00AF1020
9FFA8FFC20
2540155100
ENDCHAR
STARTCHAR Amacron.v
ENCODING 57744
SWIDTH 1000 0
DWIDTH 11 0
BBX 9 12 1 -2
BITMAP
0052222200
06E0221200
09F9777300
04E0221200
0792022100
0D324A1120
3E02240220
8E03222220
9E027B1220
9E00AF2020
9FFA8FFC20
2540155100
ENDCHAR
STARTCHAR Abreve.v
ENCODING 57745
SWIDTH 1000 0
DWIDTH 11 0
BBX 9 13 1 -2
BITMAP
0012112100
03B1161200
0AF4222200
07FA766100
01D0221200
0792022100
0D324A1120
3E02240220
8E03222220
9E027B1220
9E00AF2020
9FFA8FFC20
2540155100
ENDCHAR
STARTCHAR Aogonek.v
ENCODING 57746
SWIDTH 1000 0
DWIDTH 11 0
BBX 9 11 1 -3
BITMAP
0043111200
04C1221200
0A72162010
1E125A0220
6E03222220
9E02220220
9E01AF1120
9F769E2230
7DD48C2120
0000BF7630
00006EE700
ENDCHAR
STARTCHAR Ccedilla.v
ENCODING 57747
SWIDTH 1000 0
DWIDTH 11 0
BBX 9 11 1 -3
BITMAP
0022111120
0A12222120
6D026CCA10
AD02687100
AD02200000
AE02122210
9F31222120
6FE9124620
07DE11B500
008FF60000
0024200000
ENDCHAR
STARTCHAR Cacute.v
ENCODING 57748
SWIDTH 1000 0
DWIDTH 11 0
BBX 9 13 1 -2
BITMAP
0000002100
0032221200
04F0223300
08F8887210
0641222120
3D02255520
9D029EE600
AD02200000
AD02222210
AF12211120
8FA2000020
2DFFFFFB10
0045554000
ENDCHAR
STARTCHAR Ccircumflex.v
ENCODING 57749
SWIDTH 1000 0
DWIDTH 11 0
BBX 9 13 1 -2
BITMAP
0000221000
0032222200
04E0352200
08F9888410
0741222120
3D02255520
9D029EE600
AD02200000
AD02222210
AF12211120
8FA2000020
2DFFFFFB10
0045554000
ENDCHAR
STARTCHAR Cdotaccent.v
ENCODING 57750
SWIDTH 1000 0
DWIDTH 11 0
BBX 9 13 1 -2
BITMAP
0000221000
0009112000
006F102000
007A774210
0431222120
3D02255520
9D029EE600
AD02200000
AD02222210
AF12211120
8FA2000020
2DFFFFFB10
0045554000
ENDCHAR
STARTCHAR Ccaron.v
ENCODING 57751
SWIDTH 1000 0
DWIDTH 11 0
BBX 9 13 1 -2
BITMAP
0012101200
02D0221200
08F7223300
05EA866210
0431222120
3D02255520
9D029EE600
AD02200000
AD02222210
AF12211120
8FA2000020
2DFFFFFB10
0045554000
ENDCHAR
STARTCHAR Dcaron.v
ENCODING 57752
SWIDTH 1000 0
DWIDTH 11 0
BBX 9 13 1 -2
BITMAP
0012102200
03C0221200
09F6223200
0888766200
4D02222020
9E02350220
9E029F1220
9E026F1220
9E026D1220
9E03112120
9E00001310
9FFFFFB100
2555430000
ENDCHAR
STARTCHAR Egrave.v
ENCODING 57753
SWIDTH 1000 0
DWIDTH 11 0
BBX 9 13 1 -2
BITMAP
0002100000
01A0222200
09E4321200
0988887310
4D02222120
9E02477620
9E02344400
9E03221200
9E028DC400
9E03111120
9E00000020
9FFFFFFB10
2555554000
ENDCHAR
STARTCHAR Eacute.v
ENCODING 57754
SWIDTH 1000 0
DWIDTH 11 0
BBX 9 13 1 -2
BITMAP
0000012100
0042221200
05E0224300
0986787210
4D02222120
9E02477620
9E02344400
9E03221200
9E028DC400
9E03111120
9E00000020
9FFFFFFB10
2555554000
ENDCHAR
STARTCHAR Ecircumflex.v
ENCODING 57755
SWIDTH 1000 0
DWIDTH 11 0
BBX 9 13 1 -2
BITMAP
0000221000
0032222200
05D0351200
0987887410
4D02222120
9E02477620
9E02344400
9E03221200
9E028DC400
9E03111120
9E00000020
9FFFFFFB10
2555554000
ENDCHAR
STARTCHAR Edieresis.v
ENCODING 57756
SWIDTH 1000 0
DWIDTH 11 0
BBX 9 13 1 -2
BITMAP
0001101100
0271261200
0CA0270200
0D87777410
4D02222120
9E02477620
9E02344400
9E03221200
9E028DC400
9E03111120
9E00000020
9FFFFFFB10
2555554000
ENDCHAR
STARTCHAR Emacron.v
ENCODING 57757
SWIDTH 1000 0
DWIDTH 11 0
BBX 9 12 1 -2
BITMAP
0052222200
06E0221200
0987777310
4D02222120
9E02477620
9E02344400
9E03221200
9E028DC400
9E03111120
9E00000020
9FFFFFFB10
2555554000
ENDCHAR
STARTCHAR Ebreve.v
ENCODING 57758
SWIDTH 1000 0
DWIDTH 11 0
BBX 9 13 1 -2
BITMAP
0012112100
03B1161200
0AF4222200
0888766210
4D02222120
9E02477620
9E02344400
9E03221200
9E028DC400
9E03111120
9E00000020
9FFFFFFB10
2555554000
ENDCHAR
STARTCHAR Edotaccent.v
ENCODING 57759
SWIDTH 1000 0
DWIDTH 11 0
BBX 9 13 1 -2
BITMAP
0000221000
001A012000
008F002000
0258773210
4D02222120
9E02477620
9E02344400
9E03221200
9E028DC400
9E03111120
9E00000020
9FFFFFFB10
2555554000
ENDCHAR
STARTCHAR Eogonek.v
ENCODING 57760
SWIDTH 1000 0
DWIDTH 11 0
BBX 9 11 1 -3
BITMAP
0711111120
8E03222120
9E027BBA10
9E03221200
9E02355300
9E02587210
9E02222120
9F77752320
7DDDFB2120
0000CE7620
00008EE600
ENDCHAR
STARTCHAR Ecaron.v
ENCODING 57761
SWIDTH 1000 0
DWIDTH 11 0
BBX 9 13 1 -2
BITMAP
0012102200
03C0221200
09F6223200
0888765210
4D02222120
9E02477620
9E02344400
9E03221200
9E028DC400
9E03111120
9E00000020
9FFFFFFB10
2555554000
ENDCHAR
STARTCHAR Gcircumflex.v
ENCODING 57762
SWIDTH 1000 0
DWIDTH 11 0
BBX 9 13 1 -2
BITMAP
0000221000
0032222200
05D0351200
09F9887400
0841221200
3D02255400
9D029EB200
AD02281120
AD027E0220
AF12211220
8FA2000020
1DFFFFFC10
0035555000
ENDCHAR
STARTCHAR Gbreve.v
ENCODING 57763
SWIDTH 1000 0
DWIDTH 11 0
BBX 9 13 1 -2
BITMAP
0012112100
03B1161200
0AF4222200
08FA766200
0431221200
3D02255400
9D029EB200
AD02281120
AD027E0220
AF12211220
8FA2000020
1DFFFFFC10
0035555000
ENDCHAR
STARTCHAR Gdotaccent.v
ENCODING 57764
SWIDTH 1000 0
DWIDTH 11 0
BBX 9 13 1 -2
BITMAP
0000221000
001A012000
008F002000
008A773200
0421221200
3D02255400
9D029EB200
AD02281120
AD027E0220
AF12211220
8FA2000020
1DFFFFFC10
0035555000
ENDCHAR
STARTCHAR Gcommaaccent.v
ENCODING 57765
SWIDTH 1000 0
DWIDTH 11 0
BBX 9 13 1 -5
BITMAP
0032111200
0A12221200
7D027CC400
AD02696210
AD024D0120
AD02470220
9F32222120
5FE9777730
06BF338600
007F332000
008F632000
005FD60000
0037400000
ENDCHAR
STARTCHAR Hcircumflex.v
ENCODING 57766
SWIDTH 1000 0
DWIDTH 11 0
BBX 9 13 1 -2
BITMAP
0000221000
0032222200
05D0351200
0987DF8410
4D016F0120
9E029F0220
9E02110220
9E03222220
9E02690220
9E029F0220
9E009F1020
9FFB9FFC10
2540255000
ENDCHAR
STARTCHAR Igrave.v
ENCODING 57767
SWIDTH 1000 0
DWIDTH 11 0
BBX 9 13 1 -2
BITMAP
0002100000
01A0222200
09E4321200
0988887310
3E02222120
8F65022520
6EFD026600
00AD022000
009C022210
0A01131120
7F10000020
8FFFFFFB10
2555554000
ENDCHAR
STARTCHAR Iacute.v
ENCODING 57768
SWIDTH 1000 0
DWIDTH 11 0
BBX 9 13 1 -2
BITMAP
0000012100
0042221200
05E0224300
0986787210
3E02222120
8F65022520
6EFD026600
00AD022000
009C022210
0A01131120
7F10000020
8FFFFFFB10
2555554000
ENDCHAR
STARTCHAR Icircumflex.v
ENCODING 57769
SWIDTH 1000 0
DWIDTH 11 0
BBX 9 13 1 -2
BITMAP
0000221000
0032222200
05D0351200
0987887410
3E02222120
8F65022520
6EFD026600
00AD022000
009C022210
0A01131120
7F10000020
8FFFFFFB10
2555554000
ENDCHAR
STARTCHAR Idieresis.v
ENCODING 57770
SWIDTH 1000 0
DWIDTH 11 0
BBX 9 13 1 -2
BITMAP
0001101100
0271261200
0CA0270200
0D87777410
3E02222120
8F65022520
6EFD026600
00AD022000
009C022210
0A01131120
7F10000020
8FFFFFFB10
2555554000
ENDCHAR
STARTCHAR Itilde.v
ENCODING 57771
SWIDTH 1000 0
DWIDTH 11 0
BBX 9 12 1 -2
BITMAP
0042222200
06E0221200
0987876310
3E02222120
8F65022520
6EFD026600
00AD022000
009C022210
0A01131120
7F10000020
8FFFFFFB10
2555554000
ENDCHAR
STARTCHAR Imacron.v
ENCODING 57772
SWIDTH 1000 0
DWIDTH 11 0
BBX 9 12 1 -2
BITMAP
0052222200
06E0221200
0987777310
3E02222120
8F65022520
6EFD026600
00AD022000
009C022210
0A01131120
7F10000020
8FFFFFFB10
2555554000
ENDCHAR
STARTCHAR Ibreve.v
ENCODING 57773
SWIDTH 1000 0
DWIDTH 11 0
BBX 9 13 1 -2
BITMAP
0012112100
03B1161200
0AF4222200
0888766210
3E02222120
8F65022520
6EFD026600
00AD022000
009C022210
0A01131120
7F10000020
8FFFFFFB10
2555554000
ENDCHAR
STARTCHAR Iogonek.v
ENCODING 57774
SWIDTH 1000 0
DWIDTH 11 0
BBX 9 11 1 -3
BITMAP
0721111120
6F02232120
8FCB025A10
38CD024100
00AD022000
0256021210
3E02222120
8F77752320
6DDDFB2120
0000CE7620
00008EE600
ENDCHAR
STARTCHAR Idotaccent.v
ENCODING 57775
SWIDTH 1000 0
DWIDTH 11 0
BBX 9 13 1 -2
BITMAP
0000221000
001A012000
008F002000
0258773210
3E02222120
8F65022520
6EFD026600
00AD022000
009C022210
0A01131120
7F10000020
8FFFFFFB10
2555554000
ENDCHAR
STARTCHAR Jcircumflex.v
ENCODING 57776
SWIDTH 1000 0
DWIDTH 11 0
BBX 9 13 1 -2
BITMAP
0000022100
0003222220
005D035120
00AFEF8740
00443E0120
00009F0220
0122AF0220
2B00BF0220
9E029E0220
9F02102120
8F91110310
2EFFDDB100
0157640000
ENDCHAR
STARTCHAR Kcommaaccent.v
ENCODING 57777
SWIDTH 1000 0
DWIDTH 11 0
BBX 9 13 1 -5
BITMAP
0711251120
8E02842200
9E02511300
9E03231020
9E02120220
9E029F0220
9E019F0120
9F76AF7730
7DDC238600
007F332000
008F632000
005FD60000
0037400000
ENDCHAR
STARTCHAR Lacute.v
ENCODING 57778
SWIDTH 1000 0
DWIDTH 11 0
BBX 9 13 1 -2
BITMAP
0000121000
0422212000
5E02243000
9F67C80000
7E01200000
9E02200000
9E02202210
9E02292020
9E027E2220
9E03111220
9E00000020
9FFFFFFC10
2555555000
ENDCHAR
STARTCHAR Lcommaaccent.v
ENCODING 57779
SWIDTH 1000 0
DWIDTH 11 0
BBX 9 13 1 -5
BITMAP
0711200000
8E02200000
9E02200000
9E02223220
9E024E2120
9E02471220
9E02222120
9F77777730
7DDF338600
007F332000
008F632000
005FD60000
0037400000
ENDCHAR
STARTCHAR Lcaron.v
ENCODING 57780
SWIDTH 1000 0
DWIDTH 11 0
BBX 9 10 1 -2
BITMAP
0711235120
8E023E3220
9E026F1020
9E028FC910
9E024E2020
9E027E2220
9E03111220
9E00000020
9FFFFFFC20
2555555000
ENDCHAR
STARTCHAR Ntilde.v
ENCODING 57781
SWIDTH 1000 0
DWIDTH 11 0
BBX 9 12 1 -2
BITMAP
0042222200
06E0221200
0988EE7310
4D024F1120
9E03161220
9E02110220
9E02211220
9E02942220
9E02AE1220
9E009F2020
9FFA7FFC20
2540155000
ENDCHAR
STARTCHAR Nacute.v
ENCODING 57782
SWIDTH 1000 0
DWIDTH 11 0
BBX 9 13 1 -2
BITMAP
0000012100
0042221200
05E0224300
0987EF8210
4D023D1120
9E03161220
9E02110220
9E02211220
9E02942220
9E02AE1220
9E009F2020
9FFA7FFC20
2540155000
ENDCHAR
STARTCHAR Ncommaaccent.v
ENCODING 57783
SWIDTH 1000 0
DWIDTH 11 0
BBX 9 13 1 -5
BITMAP
0711263120
8E041C1220
9E02221220
9E02020220
9E02612220
9E02A91220
9E01AF1120
9F769F8730
7DDB238600
007F332000
008F632000
005FD60000
0037400000
ENDCHAR
STARTCHAR Ncaron.v
ENCODING 57784
SWIDTH 1000 0
DWIDTH 11 0
BBX 9 13 1 -2
BITMAP
0012102200
03C0221200
09F6223200
0888ED6210
4D023D1120
9E03161220
9E02110220
9E02211220
9E02942220
9E02AE1220
9E009F2020
9FFA7FFC20
2540155000
ENDCHAR
STARTCHAR Ograve.v
ENCODING 57785
SWIDTH 1000 0
DWIDTH 11 0
BBX 9 13 1 -2
BITMAP
0002100000
01A0222200
09E4321200
08E9666400
0521222020
4D02470220
9D029F1220
AD026F1220
AD026F1220
AE02102120
8F91120210
2EFFDDB200
0157740000
ENDCHAR
STARTCHAR Oacute.v
ENCODING 57786
SWIDTH 1000 0
DWIDTH 11 0
BBX 9 13 1 -2
BITMAP
0000012100
0042221200
05E0224300
09E7666200
0831222020
4D02470220
9D029F1220
AD026F1220
AD026F1220
AE02102120
8F91120210
2EFFDDB200
0157740000
ENDCHAR
STARTCHAR Ocircumflex.v
ENCODING 57787
SWIDTH 1000 0
DWIDTH 11 0
BBX 9 13 1 -2
BITMAP
0000221000
0032222200
05D0351200
09E8667400
0831222020
4D02470220
9D029F1220
AD026F1220
AD026F1220
AE02102120
8F91120210
2EFFDDB200
0157740000
ENDCHAR
STARTCHAR Otilde.v
ENCODING 57788
SWIDTH 1000 0
DWIDTH 11 0
BBX 9 12 1 -2
BITMAP
0042222200
06E0221200
09E8645300
0831222020
4D02470220
9D029F1220
AD026F1220
AD026F1220
AE02102120
8F91120210
2EFFDDB200
0157740000
ENDCHAR
STARTCHAR Odieresis.v
ENCODING 57789
SWIDTH 1000 0
DWIDTH 11 0
BBX 9 13 1 -2
BITMAP
0001101100
0271261200
0CA0270200
0DE7556500
0931222020
4D02470220
9D029F1220
AD026F1220
AD026F1220
AE02102120
8F91120210
2EFFDDB200
0157740000
ENDCHAR
STARTCHAR Omacron.v
ENCODING 57790
SWIDTH 1000 0
DWIDTH 11 0
BBX 9 12 1 -2
BITMAP
0052222200
06E0221200
09E8546400
0731222020
4D02470220
9D029F1220
AD026F1220
AD026F1220
AE02102120
8F91120210
2EFFDDB200
0157740000
ENDCHAR
STARTCHAR Obreve.v
ENCODING 57791
SWIDTH 1000 0
DWIDTH 11 0
BBX 9 13 1 -2
BITMAP
0012112100
03B1161200
0AF4222200
08E9545200
0531222020
4D02470220
9D029F1220
AD026F1220
AD026F1220
AE02102120
8F91120210
2EFFDDB200
0157740000
ENDCHAR
STARTCHAR Ohungarumlaut.v
ENCODING 57792
SWIDTH 1000 0
DWIDTH 11 0
BBX 9 14 1 -2
BITMAP
0000101100
0035063120
01E22D2210
05E03B0200
09E7566400
0831222020
4D02470220
9D029F1220
AD026F1220
AD026F1220
AE02102120
8F91120210
2EFFDDB200
0157740000
ENDCHAR
STARTCHAR Racute.v
ENCODING 57793
SWIDTH 1000 0
DWIDTH 11 0
BBX 9 13 1 -2
BITMAP
0000012100
0042221200
08B0224200
0C86886100
4D02221200
9E02432020
9E02761200
9E03123120
9E02230220
9E029F2220
9E008F2020
9FFB6FFD20
2540155100
ENDCHAR
STARTCHAR Rcommaaccent.v
ENCODING 57794
SWIDTH 1000 0
DWIDTH 11 0
BBX 9 13 1 -5
BITMAP
0711112200
8E03222110
9E02872010
9E02322210
9E03122120
9E026A1220
9E019F2120
9F768F8730
7DDB238700
007F332000
008F632000
005FD60000
0037400000
ENDCHAR
STARTCHAR Rcaron.v
ENCODING 57795
SWIDTH 1000 0
DWIDTH 11 0
BBX 9 13 1 -2
BITMAP
0012102200
03C0221200
09F6223200
0888765100
4D02221200
9E02432020
9E02761200
9E03123120
9E02230220
9E029F2220
9E008F2020
9FFB6FFD20
2540155100
ENDCHAR
STARTCHAR Sacute.v
ENCODING 57796
SWIDTH 1000 0
DWIDTH 11 0
BBX 9 13 1 -2
BITMAP
0000012100
0042221200
05E0224300
09E8787210
0832222020
4E02477610
9E02134310
9F31222120
7FFCA90220
0B12222120
8E00001310
9FFFFFC200
2555530000
ENDCHAR
STARTCHAR Scircumflex.v
ENCODING 57797
SWIDTH 1000 0
DWIDTH 11 0
BBX 9 13 1 -2
BITMAP
0000221000
0032222200
05D0351200
09E8887410
0832222020
4E02477610
9E02134310
9F31222120
7FFCA90220
0B12222120
8E00001310
9FFFFFC200
2555530000
ENDCHAR
STARTCHAR Scedilla.v
ENCODING 57798
SWIDTH 1000 0
DWIDTH 11 0
BBX 9 11 1 -3
BITMAP
0032111120
0A12222020
7E025AB900
9F02221010
9F93211120
3D99990220
3C02222020
9F75117400
7DF9135000
00EFC20000
0044100000
ENDCHAR
STARTCHAR Scaron.v
ENCODING 57799
SWIDTH 1000 0
DWIDTH 11 0
BBX 9 13 1 -2
BITMAP
0012102200
03C0221200
09F6223200
07E9765210
0422222020
4E02477610
9E02134310
9F31222120
7FFCA90220
0B12222120
8E00001310
9FFFFFC200
2555530000
ENDCHAR
STARTCHAR Scommaaccent.v
ENCODING 57800
SWIDTH 1000 0
DWIDTH 11 0
BBX 9 13 1 -5
BITMAP
0032111120
0A12222020
7E025AB900
9F02221010
9F93211120
3D99980220
3C02222020
9F77777400
7DDF334000
007F332000
008F632000
005FD60000
0037400000
ENDCHAR
STARTCHAR Tcommaaccent.v
ENCODING 57801
SWIDTH 1000 0
DWIDTH 11 0
BBX 9 12 1 -4
BITMAP
0711111120
8E02232120
9FCB026B20
48CD024200
00AD022000
00AD012000
00AE553000
009E122000
008F432000
008F432000
005FE50000
0026300000
ENDCHAR
STARTCHAR Tcaron.v
ENCODING 57802
SWIDTH 1000 0
DWIDTH 11 0
BBX 9 13 1 -2
BITMAP
0012102200
03C0221200
09F6223200
0888765210
4D02222120
9F65023530
8EFD027700
00AD022000
00AD022000
00AD022000
00AE002000
00AFFC2000
0025510000
ENDCHAR
STARTCHAR Ugrave.v
ENCODING 57803
SWIDTH 1000 0
DWIDTH 11 0
BBX 9 13 1 -2
BITMAP
0002100000
01A0222200
09E4321200
0988CF7310
4D017F1120
9E028F1220
9E028F1220
9E028F1220
9E027E0220
9F02102120
8F91110210
1EFFDDB100
0157640000
ENDCHAR
STARTCHAR Uacute.v
ENCODING 57804
SWIDTH 1000 0
DWIDTH 11 0
BBX 9 13 1 -2
BITMAP
0000002100
0023221200
03E2123400
0686CF8210
4D015E1120
9E028F1220
9E028F1220
9E028F1220
9E027E0220
9F02102120
8F91110210
1EFFDDB100
0157640000
ENDCHAR
STARTCHAR Ucircumflex.v
ENCODING 57805
SWIDTH 1000 0
DWIDTH 11 0
BBX 9 13 1 -2
BITMAP
0000221000
0032222200
05D0351200
0987CF8410
4D015F1120
9E028F1220
9E028F1220
9E028F1220
9E027E0220
9F02102120
8F91110210
1EFFDDB100
0157640000
ENDCHAR
STARTCHAR Udieresis.v
ENCODING 57806
SWIDTH 1000 0
DWIDTH 11 0
BBX 9 13 1 -2
BITMAP
0001101100
0271261200
0CA0270200
0D87CF7410
4D017F1120
9E028F1220
9E028F1220
9E028F1220
9E027E0220
9F02102120
8F91110210
1EFFDDB100
0157640000
ENDCHAR
STARTCHAR Utilde.v
ENCODING 57807
SWIDTH 1000 0
DWIDTH 11 0
BBX 9 12 1 -2
BITMAP
0042222200
06E0221200
0987CE7310
4D017F1120
9E028F1220
9E028F1220
9E028F1220
9E027E0220
9F02102120
8F91110210
1EFFDDB100
0157640000
ENDCHAR
STARTCHAR Umacron.v
ENCODING 57808
SWIDTH 1000 0
DWIDTH 11 0
BBX 9 12 1 -2
BITMAP
0052222200
06E0221200
0987BE7310
4D017F1120
9E028F1220
9E028F1220
9E028F1220
9E027E0220
9F02102120
8F91110210
1EFFDDB100
0157640000
ENDCHAR
STARTCHAR Ubreve.v
ENCODING 57809
SWIDTH 1000 0
DWIDTH 11 0
BBX 9 13 1 -2
BITMAP
0012112100
03B1161200
0AF4222200
0888BD6210
4D017F1120
9E028F1220
9E028F1220
9E028F1220
9E027E0220
9F02102120
8F91110210
1EFFDDB100
0157640000
ENDCHAR
STARTCHAR Uring.v
ENCODING 57810
SWIDTH 1000 0
DWIDTH 11 0
BBX 9 15 1 -2
BITMAP
0000221000
0022222200
03C2372200
0AD2382200
0BF4222200
0888BD6210
4D017F1120
9E028F1220
9E028F1220
9E028F1220
9E027E0220
9F02102120
8F91110210
1EFFDDB100
0157640000
ENDCHAR
STARTCHAR Uhungarumlaut.v
ENCODING 57811
SWIDTH 1000 0
DWIDTH 11 0
BBX 9 14 1 -2
BITMAP
0000101100
0035064020
01E22D2210
05E03C0200
0887CF7410
4D017F1120
9E028F1220
9E028F1220
9E028F1220
9E027E0220
9F02102120
8F91110210
1EFFDDB100
0157640000
ENDCHAR
STARTCHAR Uogonek.v
ENCODING 57812
SWIDTH 1000 0
DWIDTH 11 0
BBX 9 11 1 -3
BITMAP
0711272120
8E027F1220
9E028F1220
9E028F1220
9E028F1220
9E02480220
9F21222020
6FE7126400
08EF123000
007F954000
004EEA1000
ENDCHAR
STARTCHAR Wcircumflex.v
ENCODING 57813
SWIDTH 1000 0
DWIDTH 11 0
BBX 9 13 1 -2
BITMAP
0000221000
0032222200
05D0351200
0887FFC420
7A103D8120
DA203A8220
DB20404220
CB20120220
CC11221220
CF13392220
8F506E1020
5FFCBFF600
0440253000
ENDCHAR
STARTCHAR Wgrave.v
ENCODING 57814
SWIDTH 1000 0
DWIDTH 11 0
BBX 9 13 1 -2
BITMAP
0002100000
01A0222200
09E4321200
0888FFB320
7A106D8120
DA203A8220
DB20404220
CB20120220
CC11221220
CF13392220
8F506E1020
5FFCBFF600
0440253000
ENDCHAR
STARTCHAR Wacute.v
ENCODING 57815
SWIDTH 1000 0
DWIDTH 11 0
BBX 9 13 1 -2
BITMAP
0000002100
0032221200
04F0223300
0786EFC220
7A10398120
DA203A8220
DB20404220
CB20120220
CC11221220
CF13392220
8F506E1020
5FFCBFF600
0440253000
ENDCHAR
STARTCHAR Wdieresis.v
ENCODING 57816
SWIDTH 1000 0
DWIDTH 11 0
BBX 9 13 1 -2
BITMAP
0001101100
0181171200
0BB0090200
0A87EFB520
7A106D8120
DA203A8220
DB20404220
CB20120220
CC11221220
CF13392220
8F506E1020
5FFCBFF600
0440253000
ENDCHAR
STARTCHAR Yacute.v
ENCODING 57817
SWIDTH 1000 0
DWIDTH 11 0
BBX 9 13 1 -2
BITMAP
0000002100
0023221200
03E2123400
0686CF9210
4D015E1120
9E028F1220
9F12381120
8FA1102110
2EF5131100
05FD022000
00AE002000
009FFC1000
0025500000
ENDCHAR
STARTCHAR Ycircumflex.v
ENCODING 57818
SWIDTH 1000 0
DWIDTH 11 0
BBX 9 13 1 -2
BITMAP
0000221000
0032222200
05D0351200
0987DF9410
4D015F1120
9E028F1220
9F12381120
8FA1102110
2EF5131100
05FD022000
00AE002000
009FFC1000
0025500000
ENDCHAR
STARTCHAR Ydieresis.v
ENCODING 57819
SWIDTH 1000 0
DWIDTH 11 0
BBX 9 13 1 -2
BITMAP
0001101100
0181171200
0BB0180200
0C87CF8510
4D017F1120
9E028F1220
9F12381120
8FA1102110
2EF5131100
05FD022000
00AE002000
009FFC1000
0025500000
ENDCHAR
STARTCHAR Ygrave.v
ENCODING 57820
SWIDTH 1000 0
DWIDTH 11 0
BBX 9 13 1 -2
BITMAP
0002100000
01A0222200
09E4321200
0988DF8310
4D016F1120
9E028F1220
9F12381120
8FA1102110
2EF5131100
05FD022000
00AE002000
009FFC1000
0025500000
ENDCHAR
STARTCHAR Zacute.v
ENCODING 57821
SWIDTH 1000 0
DWIDTH 11 0
BBX 9 13 1 -2
BITMAP
0000002100
0023221200
03E2123400
0686788210
3E02222120
8F65511120
7EEE611110
0012212100
0322132210
4D12111120
9E00000020
9FFFFFFC10
2555555000
ENDCHAR
STARTCHAR Zdotaccent.v
ENCODING 57822
SWIDTH 1000 0
DWIDTH 11 0
BBX 9 13 1 -2
BITMAP
0000221000
001A012000
008F002000
0258773210
3E02222120
8F65511120
7EEE611110
0012212100
0322132210
4D12111120
9E00000020
9FFFFFFC10
2555555000
ENDCHAR
STARTCHAR Zcaron.v
ENCODING 57823
SWIDTH 1000 0
DWIDTH 11 0
BBX 9 13 1 -2
BITMAP
0012102200
02C0221200
08F6223200
0788766210
3E02222120
8F65511120
7EEE611110
0012212100
0322132210
4D12111120
9E00000020
9FFFFFFC10
2555555000
ENDCHAR
STARTCHAR AE.v
ENCODING 57824
SWIDTH 1000 0
DWIDTH 11 0
BBX 9 10 1 -2
BITMAP
0052111120
0682232120
0D22511B30
5C11B12120
A920111120
E922221B30
E923D12120
E903E00020
EFECFFFD20
4522555100
ENDCHAR
STARTCHAR Eth.v
ENCODING 57825
SWIDTH 1000 0
DWIDTH 11 0
BBX 10 10 0 -2
BITMAP
0071111221
08E0322212
09E028B022
096021C022
3F4130C022
4FD028D022
1BE0311212
09E0000131
09FFFFFA10
0255542000
ENDCHAR
STARTCHAR Oslash.v
ENCODING 57826
SWIDTH 1000 0
DWIDTH 11 0
BBX 9 12 1 -3
BITMAP
0000232210
0031011100
0A12214120
7E02B30220
9E02821220
9E02254220
9E022A3220
9F02222120
8F71120210
3F84ADB100
2FF8640000
0110000000
ENDCHAR
STARTCHAR Thorn.v
ENCODING 57827
SWIDTH 1000 0
DWIDTH 11 0
BBX 9 10 1 -2
BITMAP
0711200000
8E02122210
9E03222120
9E027B1220
9E028D1220
9E03222120
9E02123410
9E009F9000
9FFB210000
2540000000
ENDCHAR
STARTCHAR Dcroat.v
ENCODING 57828
SWIDTH 1000 0
DWIDTH 11 0
BBX 10 10 0 -2
BITMAP
0071111221
08E0322212
09E028B022
096021C022
3F4130C022
4FD028D022
1BE0311212
09E0000131
09FFFFFA10
0255542000
ENDCHAR
STARTCHAR Hbar.v
ENCODING 57829
SWIDTH 1000 0
DWIDTH 11 0
BBX 11 10 0 -2
BITMAP
007112721200
08A023702110
1C5132223020
2FB026A02200
1DE022302200
09E032222200
09E026902200
09E00AF10200
09FFA8FFC100
025401550000
ENDCHAR
STARTCHAR IJ.v
ENCODING 57830
SWIDTH 1000 0
DWIDTH 11 0
BBX 9 10 1 -2
BITMAP
0711272120
8E028F0220
9E029F0220
9E019F0220
9FA8AF0220
5AC48B0220
1A01112120
9E00001300
9FFFFFA100
2555530000
ENDCHAR
STARTCHAR Ldot.v
ENCODING 57831
SWIDTH 1000 0
DWIDTH 11 0
BBX 9 12 1 -4
BITMAP
0711200000
8E02200000
9E02200000
9E02223220
9E024E2120
9E02471220
9E02222120
9F77777730
7DDE647600
003F212000
006FA93000
003BB50000
ENDCHAR
STARTCHAR Lslash.v
ENCODING 57832
SWIDTH 1000 0
DWIDTH 11 0
BBX 9 10 1 -2
BITMAP
0711200000
8E02200000
9E02220000
9813122210
E9025C2020
FE027E2220
AE03111220
9E00000020
9FFFFFFC20
2555555000
ENDCHAR
STARTCHAR Eng.v
ENCODING 57833
SWIDTH 1000 0
DWIDTH 11 0
BBX 9 11 1 -3
BITMAP
0022222200
0722212120
5E025A0220
9E029F0220
9E029F0220
9E029F0220
9E029D0220
9E00902120
9FFFE01310
2549FFA100
0002420000
ENDCHAR
STARTCHAR OE.v
ENCODING 57834
SWIDTH 1000 0
DWIDTH 11 0
BBX 9 10 1 -2
BITMAP
0022111120
1A12223120
9A20C02A50
CA21F02120
DA21F02120
DA21D02A40
CC12113120
AF82000020
3EFFFFFE30
0145555100
ENDCHAR
STARTCHAR Tbar.v
ENCODING 57835
SWIDTH 1000 0
DWIDTH 11 0
BBX 9 10 1 -1
BITMAP
0722222220
8E02232120
9FFE027D30
37A8024300
05A1231200
0DC4022400
0CFE025100
02AE012000
009F762000
008FF60000
ENDCHAR
STARTCHAR Germandbls.v
ENCODING 57836
SWIDTH 1000 0
DWIDTH 11 0
BBX 9 10 1 -2
BITMAP
0711111200
8E03222200
9E02842200
9E02933110
9E02941220
9E029F3220
9E02902210
9E00900210
9FFFFFD300
2543541000
ENDCHAR
STARTCHAR A.salt_v
ENCODING 57837
SWIDTH 1000 0
DWIDTH 11 0
BBX 9 11 1 -2
BITMAP
0001221000
0031000210
0B12212120
7E029E0220
9E029E1220
9E03111220
9E02110220
9E02AF1220
9E009F1020
9FFA7FFC10
2540155000
ENDCHAR
STARTCHAR Agrave.salt_v
ENCODING 57838
SWIDTH 1000 0
DWIDTH 11 0
BBX 9 13 1 -2
BITMAP
0002100000
01A0222200
09E4321200
08E8666400
0521222020
4E02470220
9E02AF1220
9E02230220
9E03222220
9E028C1220
9E00AF1020
9FFA7FFC20
2540155000
ENDCHAR
STARTCHAR Aacute.salt_v
ENCODING 57839
SWIDTH 1000 0
DWIDTH 11 0
BBX 9 13 1 -2
BITMAP
0000012100
0042221200
05E0224300
09E7666200
0831222020
4E02470220
9E02AF1220
9E02230220
9E03222220
9E028C1220
9E00AF1020
9FFA7FFC20
2540155000
ENDCHAR
STARTCHAR Acircumflex.salt_v
ENCODING 57840
SWIDTH 1000 0
DWIDTH 11 0
BBX 9 13 1 -2
BITMAP
0000221000
0032222200
05D0351200
09E7667400
0831222020
4E02470220
9E02AF1220
9E02230220
9E03222220
9E028C1220
9E00AF1020
9FFA7FFC20
2540155000
ENDCHAR
STARTCHAR Atilde.salt_v
ENCODING 57841
SWIDTH 1000 0
DWIDTH 11 0
BBX 9 12 1 -2
BITMAP
0042222200
06E0221200
09E8645300
0831222020
4E02470220
9E02AF1220
9E02230220
9E03222220
9E028C1220
9E00AF1020
9FFA7FFC20
2540155000
ENDCHAR
STARTCHAR Adieresis.salt_v
ENCODING 57842
SWIDTH 1000 0
DWIDTH 11 0
BBX 9 13 1 -2
BITMAP
0001101100
0271261200
0CA0270200
0DE7556500
0931222020
4E02470220
9E02AF1220
9E02230220
9E03222220
9E028C1220
9E00AF1020
9FFA7FFC20
2540155000
ENDCHAR
STARTCHAR Aring.salt_v
ENCODING 57843
SWIDTH 1000 0
DWIDTH 11 0
BBX 9 13 1 -2
BITMAP
0001222000
0042222200
06C2492200
0BC2472200
0B31222020
4E02480220
9E02AF1220
9E02220220
9E03222220
9E028C1220
9E00AF1020
9FFA8FFC10
2540155000
ENDCHAR
STARTCHAR Amacron.salt_v
ENCODING 57844
SWIDTH 1000 0
DWIDTH 11 0
BBX 9 12 1 -2
BITMAP
0052222200
06E0221200
09E7546400
0731222020
4E02470220
9E02AF1220
9E02230220
9E03222220
9E028C1220
9E00AF1020
9FFA7FFC20
2540155000
ENDCHAR
STARTCHAR Abreve.salt_v
ENCODING 57845
SWIDTH 1000 0
DWIDTH 11 0
BBX 9 13 1 -2
BITMAP
0012112100
03B1161200
0AF4222200
08E8545200
0531222020
4E02470220
9E02AF1220
9E02230220
9E03222220
9E028C1220
9E00AF1020
9FFA7FFC20
2540155000
ENDCHAR
STARTCHAR Aogonek.salt_v
ENCODING 57846
SWIDTH 1000 0
DWIDTH 11 0
BBX 9 12 1 -4
BITMAP
0012222200
0521222020
4E02470220
9E02AF1220
9E02230220
9E03222220
9E028C1220
9E00AF2120
9FFA8D2230
25409E2120
0000AFFC20
0000155100
ENDCHAR
STARTCHAR E.salt_v
ENCODING 57847
SWIDTH 1000 0
DWIDTH 11 0
BBX 9 10 1 -2
BITMAP
0032111120
0A12222120
6D027DDA10
AD02111200
AD02111200
AD028EC310
AF12211120
7FA2000020
1CFFFFFB10
0035554000
ENDCHAR
STARTCHAR Egrave.salt_v
ENCODING 57848
SWIDTH 1000 0
DWIDTH 11 0
BBX 9 13 1 -2
BITMAP
0002100000
01A0222200
09E4321200
08FA887310
0431222120
3D02377620
9D02344400
AD03221200
AD028DC400
AF12211120
8FA2000020
2DFFFFFB10
0045554000
ENDCHAR
STARTCHAR Eacute.salt_v
ENCODING 57849
SWIDTH 1000 0
DWIDTH 11 0
BBX 9 13 1 -2
BITMAP
0000012100
0042221200
05E0224300
09F8887210
0741222120
3D02377620
9D02344400
AD03221200
AD028DC400
AF12211120
8FA2000020
2DFFFFFB10
0045554000
ENDCHAR
STARTCHAR Ecircumflex.salt_v
ENCODING 57850
SWIDTH 1000 0
DWIDTH 11 0
BBX 9 13 1 -2
BITMAP
0000221000
0032222200
05D0351200
09F9887410
0741222120
3D02377620
9D02344400
AD03221200
AD028DC400
AF12211120
8FA2000020
2DFFFFFB10
0045554000
ENDCHAR
STARTCHAR Edieresis.salt_v
ENCODING 57851
SWIDTH 1000 0
DWIDTH 11 0
BBX 9 13 1 -2
BITMAP
0001101100
0271261200
0CA0270200
0DF9777410
0841222120
3D02377620
9D02344400
AD03221200
AD027DC400
9F12211120
8FA2000020
1DFFFFFB10
0045554000
ENDCHAR
STARTCHAR Emacron.salt_v
ENCODING 57852
SWIDTH 1000 0
DWIDTH 11 0
BBX 9 12 1 -2
BITMAP
0052222200
06E0221200
09F9777310
0641222120
3D02377620
9D02344400
AD03221200
AD028DC400
AF12211120
8FA2000020
2DFFFFFB10
0045554000
ENDCHAR
STARTCHAR Ebreve.salt_v
ENCODING 57853
SWIDTH 1000 0
DWIDTH 11 0
BBX 9 13 1 -2
BITMAP
0012112100
03B1161200
0AF4222200
08FA766210
0441222120
3D02377620
9D02344400
AD03221200
AD028DC400
AF12211120
8FA2000020
2DFFFFFB10
0045554000
ENDCHAR
STARTCHAR Edotaccent.salt_v
ENCODING 57854
SWIDTH 1000 0
DWIDTH 11 0
BBX 9 13 1 -2
BITMAP
0000221000
001A012000
008F002000
008A773210
0431222120
3D02377620
9D02344400
AD03221200
AD028DC400
AF12211120
8FA2000020
2DFFFFFB10
0045554000
ENDCHAR
STARTCHAR Eogonek.salt_v
ENCODING 57855
SWIDTH 1000 0
DWIDTH 11 0
BBX 9 11 1 -3
BITMAP
0022111120
0A12222120
6D026BBA10
AD03221200
AD02355300
AE02487210
9F31222120
5FE9752320
06CDFB2120
0000CE7620
00008EE600
ENDCHAR
STARTCHAR Ecaron.salt_v
ENCODING 57856
SWIDTH 1000 0
DWIDTH 11 0
BBX 9 13 1 -2
BITMAP
0012102200
03C0221200
09F6223200
07EA865210
0431222120
3D02377620
9D02344400
AD03221200
AD028DC400
AF12211120
8FA2000020
2DFFFFFB10
0045554000
ENDCHAR
STARTCHAR I.salt_v
ENCODING 57857
SWIDTH 1000 0
DWIDTH 11 0
BBX 5 10 3 -2
BITMAP
071120
7E0220
9E0220
9E0220
9E0220
9E0220
9E0220
9E0020
9FFB10
254000
ENDCHAR
STARTCHAR I_I.salt_v
ENCODING 57858
SWIDTH 1000 0
DWIDTH 11 0
BBX 9 10 1 -2
BITMAP
0711272120
8E028F0220
9E029F0220
9E029F0220
9E029F0220
9E029F0220
9E029F0220
9E009F1020
9FFB9FFC10
2540255000
ENDCHAR
STARTCHAR Igrave.salt_v
ENCODING 57859
SWIDTH 1000 0
DWIDTH 11 0
BBX 7 13 2 -2
BITMAP
00210000
1A022220
9E432120
8FF88920
05E01200
09E02200
09E02200
09E02200
09E02200
09E02200
09E00200
09FFB100
02540000
ENDCHAR
STARTCHAR Iacute.salt_v
ENCODING 57860
SWIDTH 1000 0
DWIDTH 11 0
BBX 7 13 2 -2
BITMAP
00001210
04222120
5E022430
9FD88700
49E01200
09E02200
09E02200
09E02200
09E02200
09E02200
09E00200
09FFB100
02540000
ENDCHAR
STARTCHAR Icircumflex.salt_v
ENCODING 57861
SWIDTH 1000 0
DWIDTH 11 0
BBX 7 13 2 -2
BITMAP
00022100
03222220
5D035120
9FE88B30
48D01200
09E02200
09E02200
09E02200
09E02200
09E02200
09E00200
09FFB100
02540000
ENDCHAR
STARTCHAR Idieresis.salt_v
ENCODING 57862
SWIDTH 1000 0
DWIDTH 11 0
BBX 7 13 2 -2
BITMAP
00110110
27126120
CA027020
DFE77A40
49E01200
09E02200
09E02200
09E02200
09E02200
09E02200
09E00200
09FFB100
02540000
ENDCHAR
STARTCHAR Itilde.salt_v
ENCODING 57863
SWIDTH 1000 0
DWIDTH 11 0
BBX 7 12 2 -2
BITMAP
04222220
6E022120
9FE87710
38E01200
09E02200
09E02200
09E02200
09E02200
09E02200
09E00200
09FFB100
02540000
ENDCHAR
STARTCHAR Imacron.salt_v
ENCODING 57864
SWIDTH 1000 0
DWIDTH 11 0
BBX 7 12 2 -2
BITMAP
05222220
6E022120
9FE77920
39E01200
09E02200
09E02200
09E02200
09E02200
09E02200
09E00200
09FFB100
02540000
ENDCHAR
STARTCHAR Ibreve.salt_v
ENCODING 57865
SWIDTH 1000 0
DWIDTH 11 0
BBX 7 13 2 -2
BITMAP
01211210
3B116120
AF422220
8FF76600
08E01200
09E02200
09E02200
09E02200
09E02200
09E02200
09E00200
09FFB100
02540000
ENDCHAR
STARTCHAR Iogonek.salt_v
ENCODING 57866
SWIDTH 1000 0
DWIDTH 11 0
BBX 5 12 3 -4
BITMAP
022210
3D0120
7F0220
8F0220
8F0220
8F0220
8F0220
8F2020
8D2230
AE1120
AFFC20
155100
ENDCHAR
STARTCHAR Idotaccent.salt_v
ENCODING 57867
SWIDTH 1000 0
DWIDTH 11 0
BBX 5 13 3 -2
BITMAP
002210
1A0120
8F0020
8F7730
6E0120
9E0220
9E0220
9E0220
9E0220
9E0220
9E0020
9FFB10
254000
ENDCHAR
STARTCHAR L.salt_v
ENCODING 57868
SWIDTH 1000 0
DWIDTH 11 0
BBX 9 10 1 -2
BITMAP
0711200000
8E02200000
9E02200000
9E02200000
9E02200000
9E02222210
9E03111120
9E00000020
9FFFFFFB10
2555554000
ENDCHAR
STARTCHAR Lacute.salt_v
ENCODING 57869
SWIDTH 1000 0
DWIDTH 11 0
BBX 9 13 1 -2
BITMAP
0000121000
0422212000
5E02243000
9F67C80000
7E01200000
9E02200000
9E02200000
9E02200000
9E02222210
9E03111120
9E00000020
9FFFFFFB10
2555554000
ENDCHAR
STARTCHAR Lcommaaccent.salt_v
ENCODING 57870
SWIDTH 1000 0
DWIDTH 11 0
BBX 9 13 1 -5
BITMAP
0711200000
8E02200000
9E02200000
9E02200000
9E02200000
9E02122210
9E02222120
9F77777620
7DDF338500
007F332000
008F632000
005FD60000
0037400000
ENDCHAR
STARTCHAR Lcaron.salt_v
ENCODING 57871
SWIDTH 1000 0
DWIDTH 11 0
BBX 10 10 1 -2
BITMAP
0711207212
8E0227C202
9E022AA020
9E022DFD30
9E02245200
9E02222210
9E03111120
9E00000020
9FFFFFFB10
2555554000
ENDCHAR
STARTCHAR Ldot.salt_v
ENCODING 57872
SWIDTH 1000 0
DWIDTH 11 0
BBX 9 12 1 -4
BITMAP
0711200000
8E02200000
9E02200000
9E02200000
9E02200000
9E02122210
9E02222120
9F77777620
7DE945D500
01D6111000
02FC960000
01BB800000
ENDCHAR
STARTCHAR Lslash.salt_v
ENCODING 57873
SWIDTH 1000 0
DWIDTH 11 0
BBX 10 10 0 -2
BITMAP
0071120000
08E0220000
09D0212000
0A41312000
3F60242000
4FE0222221
0AE0311112
09E0000002
09FFFFFFB1
0255555400
ENDCHAR
STARTCHAR L.salt_s_v
ENCODING 57874
SWIDTH 1000 0
DWIDTH 11 0
BBX 9 10 1 -2
BITMAP
0222100000
4D01200000
9E02200000
9E02200000
9E02200000
9E02222210
9E03111120
9E00000020
9FFFFFFB10
2555554000
ENDCHAR
STARTCHAR M.salt_v
ENCODING 57875
SWIDTH 1000 0
DWIDTH 11 0
BBX 11 11 0 -2
BITMAP
000121021000
003101210200
077212212110
1F6272291120
2F62832B1120
2F62832B1120
2F62832B1120
2F62832B1120
2F60930B0020
2FFEFFEFF600
044154253000
ENDCHAR
STARTCHAR N.salt_v
ENCODING 57876
SWIDTH 1000 0
DWIDTH 11 0
BBX 9 11 1 -2
BITMAP
0001221000
0031000210
0B12212120
7E028D0220
9E029F0220
9E029F0220
9E029F0220
9E029F0220
9E00AF1020
9FFA9FFC10
2540255000
ENDCHAR
STARTCHAR Ntilde.salt_v
ENCODING 57877
SWIDTH 1000 0
DWIDTH 11 0
BBX 9 12 1 -2
BITMAP
0042222200
06E0221200
09E8645300
0831222020
4E02360220
9E029F0220
9E029F0220
9E029F0220
9E029F0220
9E00AF1020
9FFB9FFC10
2540255000
ENDCHAR
STARTCHAR Nacute.salt_v
ENCODING 57878
SWIDTH 1000 0
DWIDTH 11 0
BBX 9 13 1 -2
BITMAP
0000012100
0042221200
05E0224300
09E7666200
0831222020
4E02360220
9E029F0220
9E029F0220
9E029F0220
9E029F0220
9E00AF1020
9FFB9FFC10
2540255000
ENDCHAR
STARTCHAR Ncommaaccent.salt_v
ENCODING 57879
SWIDTH 1000 0
DWIDTH 11 0
BBX 9 13 1 -4
BITMAP
0000110000
0022112210
0912212120
6E026B0220
9E029F0220
9E029F0220
9E019F0120
9F55BF5530
8FFF128700
008F432000
008F532000
005FE60000
0026300000
ENDCHAR
STARTCHAR Ncaron.salt_v
ENCODING 57880
SWIDTH 1000 0
DWIDTH 11 0
BBX 9 13 1 -2
BITMAP
0012102200
03C0221200
09F6223200
07E8545200
0521222020
4E02360220
9E029F0220
9E029F0220
9E029F0220
9E029F0220
9E00AF1020
9FFB9FFC10
2540255000
ENDCHAR
STARTCHAR W.salt_v
ENCODING 57881
SWIDTH 1000 0
DWIDTH 11 0
BBX 11 10 0 -2
BITMAP
035164181110
1E62832B1120
2F62832B1120
2F62832B1120
2F62832B1120
2F62822A1120
2F7201202110
1FD111310200
0AFFDEFD8000
005625740000
ENDCHAR
STARTCHAR Wcircumflex.salt_v
ENCODING 57882
SWIDTH 1000 0
DWIDTH 11 0
BBX 11 13 0 -2
BITMAP
000002210000
000322222000
005D03512000
0078BA8D4210
0B61831B0020
2F62832B1120
2F62832B1120
2F62832B1120
2F62822A1120
2F7201202110
1FD111310200
0BFFDEFD8000
005625740000
ENDCHAR
ENDFONT
